{
  "version": "1.0",
  "generated_at": "/Users/James/Documents/tg",
  "total_motifs": 100,
  "processed_files": [
    "2025-08-03T174139Z.midi"
  ],
  "motifs": [
    {
      "id": "2025-08-03T174139Z_0_0_667f3e97",
      "source_file": "2025-08-03T174139Z",
      "instrument_idx": 0,
      "bar_idx": 0,
      "pitch_hash": "667f3e97",
      "notes": [
        {
          "pitch": 57,
          "velocity": 57,
          "start": 0.0,
          "end": 0.09114583333333333,
          "duration": 0.09114583333333333
        },
        {
          "pitch": 57,
          "velocity": 57,
          "start": 0.21614583333333331,
          "end": 0.3020833333333333,
          "duration": 0.0859375
        },
        {
          "pitch": 57,
          "velocity": 59,
          "start": 0.7942708333333333,
          "end": 1.1666666666666665,
          "duration": 0.37239583333333326
        },
        {
          "pitch": 57,
          "velocity": 59,
          "start": 1.4270833333333333,
          "end": 1.5260416666666665,
          "duration": 0.09895833333333326
        },
        {
          "pitch": 57,
          "velocity": 53,
          "start": 1.6848958333333333,
          "end": 1.7578125,
          "duration": 0.07291666666666674
        },
        {
          "pitch": 57,
          "velocity": 60,
          "start": 1.8854166666666665,
          "end": 1.9791666666666665,
          "duration": 0.09375
        }
      ],
      "metadata": {
        "note_count": 6,
        "pitch_range": 0,
        "avg_velocity": 57,
        "note_density": 3.0,
        "duration": 2.0,
        "lowest_pitch": 57,
        "highest_pitch": 57
      },
      "label": "MOMENTUM_POS",
      "label_description": "Rising energy with sustained notes",
      "is_labeled": true
    },
    {
      "id": "2025-08-03T174139Z_0_1_cab1b343",
      "source_file": "2025-08-03T174139Z",
      "instrument_idx": 0,
      "bar_idx": 1,
      "pitch_hash": "cab1b343",
      "notes": [
        {
          "pitch": 57,
          "velocity": 59,
          "start": 0.13802083333333304,
          "end": 0.234375,
          "duration": 0.09635416666666696
        },
        {
          "pitch": 57,
          "velocity": 62,
          "start": 0.3984375,
          "end": 0.49739583333333304,
          "duration": 0.09895833333333304
        }
      ],
      "metadata": {
        "note_count": 2,
        "pitch_range": 0,
        "avg_velocity": 60,
        "note_density": 1.0,
        "duration": 2.0,
        "lowest_pitch": 57,
        "highest_pitch": 57
      },
      "label": "UNLABELED",
      "label_description": "",
      "is_labeled": false
    },
    {
      "id": "2025-08-03T174139Z_0_24_8c3b95e9",
      "source_file": "2025-08-03T174139Z",
      "instrument_idx": 0,
      "bar_idx": 24,
      "pitch_hash": "8c3b95e9",
      "notes": [
        {
          "pitch": 59,
          "velocity": 45,
          "start": 1.9088541666666643,
          "end": 2.0598958333333286,
          "duration": 0.1510416666666643
        }
      ],
      "metadata": {
        "note_count": 1,
        "pitch_range": 0,
        "avg_velocity": 45,
        "note_density": 0.5,
        "duration": 2.0,
        "lowest_pitch": 59,
        "highest_pitch": 59
      },
      "label": "UNLABELED",
      "label_description": "",
      "is_labeled": false
    },
    {
      "id": "2025-08-03T174139Z_0_25_7315a47c",
      "source_file": "2025-08-03T174139Z",
      "instrument_idx": 0,
      "bar_idx": 25,
      "pitch_hash": "7315a47c",
      "notes": [
        {
          "pitch": 60,
          "velocity": 62,
          "start": 0.3307291666666643,
          "end": 0.4192708333333286,
          "duration": 0.0885416666666643
        },
        {
          "pitch": 57,
          "velocity": 35,
          "start": 0.40625,
          "end": 0.4973958333333286,
          "duration": 0.0911458333333286
        },
        {
          "pitch": 60,
          "velocity": 82,
          "start": 0.4947916666666643,
          "end": 0.6197916666666643,
          "duration": 0.125
        },
        {
          "pitch": 57,
          "velocity": 66,
          "start": 0.5911458333333286,
          "end": 0.7057291666666643,
          "duration": 0.1145833333333357
        },
        {
          "pitch": 60,
          "velocity": 68,
          "start": 0.6953125,
          "end": 0.8177083333333286,
          "duration": 0.1223958333333286
        }
      ],
      "metadata": {
        "note_count": 5,
        "pitch_range": 3,
        "avg_velocity": 62,
        "note_density": 2.5,
        "duration": 2.0,
        "lowest_pitch": 57,
        "highest_pitch": 60
      },
      "label": "UNLABELED",
      "label_description": "",
      "is_labeled": false
    },
    {
      "id": "2025-08-03T174139Z_0_28_b96ee2e2",
      "source_file": "2025-08-03T174139Z",
      "instrument_idx": 0,
      "bar_idx": 28,
      "pitch_hash": "b96ee2e2",
      "notes": [
        {
          "pitch": 66,
          "velocity": 58,
          "start": 1.453125,
          "end": 1.7838541666666643,
          "duration": 0.3307291666666643
        },
        {
          "pitch": 38,
          "velocity": 46,
          "start": 1.4557291666666643,
          "end": 2.3385416666666643,
          "duration": 0.8828125
        },
        {
          "pitch": 50,
          "velocity": 42,
          "start": 1.4557291666666643,
          "end": 2.34375,
          "duration": 0.8880208333333357
        },
        {
          "pitch": 57,
          "velocity": 36,
          "start": 1.734375,
          "end": 1.8385416666666643,
          "duration": 0.1041666666666643
        }
      ],
      "metadata": {
        "note_count": 4,
        "pitch_range": 28,
        "avg_velocity": 45,
        "note_density": 2.0,
        "duration": 2.0,
        "lowest_pitch": 38,
        "highest_pitch": 66
      },
      "label": "UNLABELED",
      "label_description": "",
      "is_labeled": false
    },
    {
      "id": "2025-08-03T174139Z_0_29_b83b3333",
      "source_file": "2025-08-03T174139Z",
      "instrument_idx": 0,
      "bar_idx": 29,
      "pitch_hash": "b83b3333",
      "notes": [
        {
          "pitch": 66,
          "velocity": 73,
          "start": 0.4505208333333286,
          "end": 0.7942708333333286,
          "duration": 0.34375
        },
        {
          "pitch": 38,
          "velocity": 43,
          "start": 0.4791666666666643,
          "end": 1.109375,
          "duration": 0.6302083333333357
        },
        {
          "pitch": 50,
          "velocity": 50,
          "start": 0.5026041666666643,
          "end": 1.1145833333333286,
          "duration": 0.6119791666666643
        },
        {
          "pitch": 57,
          "velocity": 53,
          "start": 0.734375,
          "end": 0.828125,
          "duration": 0.09375
        },
        {
          "pitch": 64,
          "velocity": 83,
          "start": 1.0442708333333286,
          "end": 1.4088541666666643,
          "duration": 0.3645833333333357
        },
        {
          "pitch": 57,
          "velocity": 77,
          "start": 1.0520833333333286,
          "end": 1.3385416666666643,
          "duration": 0.2864583333333357
        },
        {
          "pitch": 50,
          "velocity": 60,
          "start": 1.3229166666666643,
          "end": 1.3802083333333286,
          "duration": 0.0572916666666643
        },
        {
          "pitch": 38,
          "velocity": 53,
          "start": 1.3307291666666643,
          "end": 1.40625,
          "duration": 0.0755208333333357
        },
        {
          "pitch": 62,
          "velocity": 63,
          "start": 1.7265625,
          "end": 1.9375,
          "duration": 0.2109375
        }
      ],
      "metadata": {
        "note_count": 9,
        "pitch_range": 28,
        "avg_velocity": 61,
        "note_density": 4.5,
        "duration": 2.0,
        "lowest_pitch": 38,
        "highest_pitch": 66
      },
      "label": "UNLABELED",
      "label_description": "",
      "is_labeled": false
    },
    {
      "id": "2025-08-03T174139Z_0_30_3d6f8af1",
      "source_file": "2025-08-03T174139Z",
      "instrument_idx": 0,
      "bar_idx": 30,
      "pitch_hash": "3d6f8af1",
      "notes": [
        {
          "pitch": 64,
          "velocity": 58,
          "start": 0.125,
          "end": 0.4375,
          "duration": 0.3125
        },
        {
          "pitch": 43,
          "velocity": 38,
          "start": 0.125,
          "end": 0.5911458333333286,
          "duration": 0.4661458333333286
        },
        {
          "pitch": 31,
          "velocity": 48,
          "start": 0.1432291666666643,
          "end": 0.5546875,
          "duration": 0.4114583333333357
        },
        {
          "pitch": 57,
          "velocity": 35,
          "start": 0.1536458333333286,
          "end": 0.2239583333333286,
          "duration": 0.0703125
        },
        {
          "pitch": 62,
          "velocity": 61,
          "start": 0.421875,
          "end": 0.59375,
          "duration": 0.171875
        },
        {
          "pitch": 57,
          "velocity": 53,
          "start": 0.671875,
          "end": 0.7682291666666643,
          "duration": 0.0963541666666643
        },
        {
          "pitch": 62,
          "velocity": 64,
          "start": 0.9427083333333286,
          "end": 1.1223958333333286,
          "duration": 0.1796875
        },
        {
          "pitch": 31,
          "velocity": 43,
          "start": 0.9453125,
          "end": 1.7395833333333286,
          "duration": 0.7942708333333286
        },
        {
          "pitch": 43,
          "velocity": 41,
          "start": 0.9479166666666643,
          "end": 1.5026041666666643,
          "duration": 0.5546875
        },
        {
          "pitch": 57,
          "velocity": 47,
          "start": 0.9635416666666643,
          "end": 1.046875,
          "duration": 0.0833333333333357
        },
        {
          "pitch": 57,
          "velocity": 39,
          "start": 1.2083333333333286,
          "end": 1.2734375,
          "duration": 0.0651041666666714
        },
        {
          "pitch": 57,
          "velocity": 60,
          "start": 1.4453125,
          "end": 1.6458333333333286,
          "duration": 0.2005208333333286
        },
        {
          "pitch": 43,
          "velocity": 52,
          "start": 1.6796875,
          "end": 1.8020833333333286,
          "duration": 0.1223958333333286
        },
        {
          "pitch": 57,
          "velocity": 52,
          "start": 1.9479166666666643,
          "end": 2.3385416666666643,
          "duration": 0.390625
        },
        {
          "pitch": 62,
          "velocity": 39,
          "start": 1.9817708333333286,
          "end": 2.0755208333333286,
          "duration": 0.09375
        }
      ],
      "metadata": {
        "note_count": 15,
        "pitch_range": 33,
        "avg_velocity": 48,
        "note_density": 7.5,
        "duration": 2.0,
        "lowest_pitch": 31,
        "highest_pitch": 64
      },
      "label": "UNLABELED",
      "label_description": "",
      "is_labeled": false
    },
    {
      "id": "2025-08-03T174139Z_0_31_49ac8e67",
      "source_file": "2025-08-03T174139Z",
      "instrument_idx": 0,
      "bar_idx": 31,
      "pitch_hash": "49ac8e67",
      "notes": [
        {
          "pitch": 64,
          "velocity": 61,
          "start": 0.1484375,
          "end": 0.28125,
          "duration": 0.1328125
        },
        {
          "pitch": 50,
          "velocity": 52,
          "start": 0.1614583333333286,
          "end": 0.6380208333333286,
          "duration": 0.4765625
        },
        {
          "pitch": 38,
          "velocity": 51,
          "start": 0.1640625,
          "end": 0.6223958333333286,
          "duration": 0.4583333333333286
        },
        {
          "pitch": 66,
          "velocity": 58,
          "start": 0.3854166666666643,
          "end": 0.5807291666666643,
          "duration": 0.1953125
        },
        {
          "pitch": 57,
          "velocity": 59,
          "start": 0.6276041666666643,
          "end": 0.7604166666666643,
          "duration": 0.1328125
        },
        {
          "pitch": 38,
          "velocity": 47,
          "start": 0.8098958333333286,
          "end": 1.3229166666666643,
          "duration": 0.5130208333333357
        },
        {
          "pitch": 50,
          "velocity": 51,
          "start": 0.8385416666666643,
          "end": 1.296875,
          "duration": 0.4583333333333357
        },
        {
          "pitch": 62,
          "velocity": 58,
          "start": 0.8645833333333286,
          "end": 1.3541666666666643,
          "duration": 0.4895833333333357
        },
        {
          "pitch": 57,
          "velocity": 63,
          "start": 1.0833333333333286,
          "end": 1.2239583333333286,
          "duration": 0.140625
        },
        {
          "pitch": 69,
          "velocity": 71,
          "start": 1.296875,
          "end": 1.59375,
          "duration": 0.296875
        },
        {
          "pitch": 38,
          "velocity": 59,
          "start": 1.53125,
          "end": 1.6328125,
          "duration": 0.1015625
        },
        {
          "pitch": 50,
          "velocity": 59,
          "start": 1.5416666666666643,
          "end": 1.5963541666666643,
          "duration": 0.0546875
        },
        {
          "pitch": 66,
          "velocity": 63,
          "start": 1.71875,
          "end": 1.8802083333333286,
          "duration": 0.1614583333333286
        }
      ],
      "metadata": {
        "note_count": 13,
        "pitch_range": 31,
        "avg_velocity": 57,
        "note_density": 6.5,
        "duration": 2.0,
        "lowest_pitch": 38,
        "highest_pitch": 69
      },
      "label": "UNLABELED",
      "label_description": "",
      "is_labeled": false
    },
    {
      "id": "2025-08-03T174139Z_0_32_ea868063",
      "source_file": "2025-08-03T174139Z",
      "instrument_idx": 0,
      "bar_idx": 32,
      "pitch_hash": "ea868063",
      "notes": [
        {
          "pitch": 45,
          "velocity": 47,
          "start": 0.3463541666666572,
          "end": 0.8880208333333286,
          "duration": 0.5416666666666714
        },
        {
          "pitch": 64,
          "velocity": 57,
          "start": 0.3567708333333286,
          "end": 0.796875,
          "duration": 0.4401041666666714
        },
        {
          "pitch": 33,
          "velocity": 45,
          "start": 0.3619791666666572,
          "end": 0.8541666666666572,
          "duration": 0.4921875
        },
        {
          "pitch": 57,
          "velocity": 44,
          "start": 0.3723958333333286,
          "end": 0.4739583333333286,
          "duration": 0.1015625
        },
        {
          "pitch": 57,
          "velocity": 55,
          "start": 0.8125,
          "end": 1.0546875,
          "duration": 0.2421875
        },
        {
          "pitch": 33,
          "velocity": 42,
          "start": 1.0286458333333286,
          "end": 1.8072916666666572,
          "duration": 0.7786458333333286
        },
        {
          "pitch": 45,
          "velocity": 53,
          "start": 1.0625,
          "end": 1.4921875,
          "duration": 0.4296875
        },
        {
          "pitch": 62,
          "velocity": 72,
          "start": 1.2786458333333286,
          "end": 1.4453125,
          "duration": 0.1666666666666714
        },
        {
          "pitch": 57,
          "velocity": 56,
          "start": 1.5026041666666572,
          "end": 1.6875,
          "duration": 0.1848958333333428
        },
        {
          "pitch": 45,
          "velocity": 45,
          "start": 1.7447916666666572,
          "end": 1.8619791666666572,
          "duration": 0.1171875
        },
        {
          "pitch": 57,
          "velocity": 54,
          "start": 1.9869791666666572,
          "end": 2.296875,
          "duration": 0.3098958333333428
        }
      ],
      "metadata": {
        "note_count": 11,
        "pitch_range": 31,
        "avg_velocity": 51,
        "note_density": 5.5,
        "duration": 2.0,
        "lowest_pitch": 33,
        "highest_pitch": 64
      },
      "label": "UNLABELED",
      "label_description": "",
      "is_labeled": false
    },
    {
      "id": "2025-08-03T174139Z_0_33_8da36edf",
      "source_file": "2025-08-03T174139Z",
      "instrument_idx": 0,
      "bar_idx": 33,
      "pitch_hash": "8da36edf",
      "notes": [
        {
          "pitch": 64,
          "velocity": 55,
          "start": 0.2083333333333286,
          "end": 0.2760416666666572,
          "duration": 0.0677083333333286
        },
        {
          "pitch": 50,
          "velocity": 47,
          "start": 0.2135416666666572,
          "end": 0.7213541666666572,
          "duration": 0.5078125
        },
        {
          "pitch": 38,
          "velocity": 49,
          "start": 0.2213541666666572,
          "end": 0.7083333333333286,
          "duration": 0.4869791666666714
        },
        {
          "pitch": 66,
          "velocity": 69,
          "start": 0.421875,
          "end": 0.5182291666666572,
          "duration": 0.09635416666665719
        },
        {
          "pitch": 57,
          "velocity": 51,
          "start": 0.6432291666666572,
          "end": 0.75,
          "duration": 0.10677083333334281
        },
        {
          "pitch": 62,
          "velocity": 63,
          "start": 0.8645833333333286,
          "end": 0.9895833333333286,
          "duration": 0.125
        },
        {
          "pitch": 38,
          "velocity": 37,
          "start": 0.8723958333333286,
          "end": 1.3645833333333286,
          "duration": 0.4921875
        },
        {
          "pitch": 50,
          "velocity": 50,
          "start": 0.9036458333333286,
          "end": 1.3489583333333286,
          "duration": 0.4453125
        },
        {
          "pitch": 57,
          "velocity": 51,
          "start": 1.0885416666666572,
          "end": 1.1927083333333286,
          "duration": 0.1041666666666714
        },
        {
          "pitch": 69,
          "velocity": 71,
          "start": 1.2916666666666572,
          "end": 1.484375,
          "duration": 0.1927083333333428
        },
        {
          "pitch": 38,
          "velocity": 50,
          "start": 1.5078125,
          "end": 1.6041666666666572,
          "duration": 0.09635416666665719
        },
        {
          "pitch": 50,
          "velocity": 44,
          "start": 1.5260416666666572,
          "end": 1.59375,
          "duration": 0.06770833333334281
        },
        {
          "pitch": 66,
          "velocity": 66,
          "start": 1.6328125,
          "end": 1.7864583333333286,
          "duration": 0.1536458333333286
        },
        {
          "pitch": 64,
          "velocity": 61,
          "start": 1.890625,
          "end": 2.1692708333333286,
          "duration": 0.2786458333333286
        },
        {
          "pitch": 43,
          "velocity": 51,
          "start": 1.9036458333333286,
          "end": 2.3333333333333286,
          "duration": 0.4296875
        },
        {
          "pitch": 31,
          "velocity": 37,
          "start": 1.9270833333333286,
          "end": 2.3098958333333286,
          "duration": 0.3828125
        }
      ],
      "metadata": {
        "note_count": 16,
        "pitch_range": 38,
        "avg_velocity": 53,
        "note_density": 8.0,
        "duration": 2.0,
        "lowest_pitch": 31,
        "highest_pitch": 69
      },
      "label": "UNLABELED",
      "label_description": "",
      "is_labeled": false
    },
    {
      "id": "2025-08-03T174139Z_0_34_1be696e6",
      "source_file": "2025-08-03T174139Z",
      "instrument_idx": 0,
      "bar_idx": 34,
      "pitch_hash": "1be696e6",
      "notes": [
        {
          "pitch": 62,
          "velocity": 60,
          "start": 0.0989583333333286,
          "end": 0.2578125,
          "duration": 0.1588541666666714
        },
        {
          "pitch": 57,
          "velocity": 53,
          "start": 0.296875,
          "end": 0.4036458333333286,
          "duration": 0.1067708333333286
        },
        {
          "pitch": 62,
          "velocity": 67,
          "start": 0.5182291666666572,
          "end": 0.6588541666666572,
          "duration": 0.140625
        },
        {
          "pitch": 43,
          "velocity": 44,
          "start": 0.5234375,
          "end": 0.9973958333333286,
          "duration": 0.4739583333333286
        },
        {
          "pitch": 31,
          "velocity": 48,
          "start": 0.5234375,
          "end": 1.0182291666666572,
          "duration": 0.4947916666666572
        },
        {
          "pitch": 57,
          "velocity": 53,
          "start": 0.75,
          "end": 0.8177083333333286,
          "duration": 0.0677083333333286
        },
        {
          "pitch": 62,
          "velocity": 63,
          "start": 0.953125,
          "end": 1.1145833333333286,
          "duration": 0.1614583333333286
        },
        {
          "pitch": 31,
          "velocity": 50,
          "start": 1.15625,
          "end": 1.3046875,
          "duration": 0.1484375
        },
        {
          "pitch": 43,
          "velocity": 43,
          "start": 1.1979166666666572,
          "end": 1.3046875,
          "duration": 0.10677083333334281
        },
        {
          "pitch": 62,
          "velocity": 60,
          "start": 1.3697916666666572,
          "end": 1.515625,
          "duration": 0.1458333333333428
        },
        {
          "pitch": 45,
          "velocity": 56,
          "start": 1.6119791666666572,
          "end": 2.151041666666657,
          "duration": 0.5390625
        },
        {
          "pitch": 64,
          "velocity": 74,
          "start": 1.6145833333333286,
          "end": 1.9557291666666572,
          "duration": 0.3411458333333286
        },
        {
          "pitch": 33,
          "velocity": 50,
          "start": 1.625,
          "end": 2.2083333333333286,
          "duration": 0.5833333333333286
        }
      ],
      "metadata": {
        "note_count": 13,
        "pitch_range": 33,
        "avg_velocity": 55,
        "note_density": 6.5,
        "duration": 2.0,
        "lowest_pitch": 31,
        "highest_pitch": 64
      },
      "label": "UNLABELED",
      "label_description": "",
      "is_labeled": false
    },
    {
      "id": "2025-08-03T174139Z_0_35_44459390",
      "source_file": "2025-08-03T174139Z",
      "instrument_idx": 0,
      "bar_idx": 35,
      "pitch_hash": "44459390",
      "notes": [
        {
          "pitch": 64,
          "velocity": 73,
          "start": 0.078125,
          "end": 0.1979166666666572,
          "duration": 0.11979166666665719
        },
        {
          "pitch": 33,
          "velocity": 41,
          "start": 0.3802083333333286,
          "end": 0.8854166666666572,
          "duration": 0.5052083333333286
        },
        {
          "pitch": 45,
          "velocity": 35,
          "start": 0.421875,
          "end": 0.8697916666666572,
          "duration": 0.4479166666666572
        },
        {
          "pitch": 64,
          "velocity": 63,
          "start": 0.5755208333333286,
          "end": 0.6796875,
          "duration": 0.1041666666666714
        },
        {
          "pitch": 62,
          "velocity": 54,
          "start": 0.8098958333333286,
          "end": 0.9765625,
          "duration": 0.1666666666666714
        },
        {
          "pitch": 62,
          "velocity": 55,
          "start": 1.3098958333333286,
          "end": 1.4479166666666572,
          "duration": 0.1380208333333286
        },
        {
          "pitch": 50,
          "velocity": 44,
          "start": 1.96875,
          "end": 2.5078125,
          "duration": 0.5390625
        },
        {
          "pitch": 62,
          "velocity": 56,
          "start": 1.9739583333333286,
          "end": 2.2421875,
          "duration": 0.2682291666666714
        },
        {
          "pitch": 38,
          "velocity": 42,
          "start": 1.9895833333333286,
          "end": 2.4427083333333286,
          "duration": 0.453125
        }
      ],
      "metadata": {
        "note_count": 9,
        "pitch_range": 31,
        "avg_velocity": 51,
        "note_density": 4.5,
        "duration": 2.0,
        "lowest_pitch": 33,
        "highest_pitch": 64
      },
      "label": "UNLABELED",
      "label_description": "",
      "is_labeled": false
    },
    {
      "id": "2025-08-03T174139Z_0_36_e1b48804",
      "source_file": "2025-08-03T174139Z",
      "instrument_idx": 0,
      "bar_idx": 36,
      "pitch_hash": "e1b48804",
      "notes": [
        {
          "pitch": 57,
          "velocity": 44,
          "start": 0.0,
          "end": 0.1484375,
          "duration": 0.1484375
        },
        {
          "pitch": 57,
          "velocity": 56,
          "start": 0.4609375,
          "end": 0.6822916666666572,
          "duration": 0.2213541666666572
        },
        {
          "pitch": 38,
          "velocity": 42,
          "start": 0.6822916666666572,
          "end": 1.1041666666666572,
          "duration": 0.421875
        },
        {
          "pitch": 50,
          "velocity": 41,
          "start": 0.6953125,
          "end": 1.1588541666666572,
          "duration": 0.4635416666666572
        },
        {
          "pitch": 57,
          "velocity": 54,
          "start": 0.9479166666666572,
          "end": 1.2552083333333286,
          "duration": 0.3072916666666714
        },
        {
          "pitch": 62,
          "velocity": 48,
          "start": 1.2213541666666572,
          "end": 1.3229166666666572,
          "duration": 0.1015625
        },
        {
          "pitch": 38,
          "velocity": 40,
          "start": 1.390625,
          "end": 1.6588541666666572,
          "duration": 0.2682291666666572
        },
        {
          "pitch": 50,
          "velocity": 47,
          "start": 1.4296875,
          "end": 1.6744791666666572,
          "duration": 0.2447916666666572
        },
        {
          "pitch": 57,
          "velocity": 56,
          "start": 1.6692708333333286,
          "end": 1.7708333333333286,
          "duration": 0.1015625
        },
        {
          "pitch": 66,
          "velocity": 77,
          "start": 1.890625,
          "end": 2.0390625,
          "duration": 0.1484375
        },
        {
          "pitch": 38,
          "velocity": 56,
          "start": 1.890625,
          "end": 2.338541666666657,
          "duration": 0.4479166666666572
        },
        {
          "pitch": 50,
          "velocity": 51,
          "start": 1.8958333333333286,
          "end": 2.359375,
          "duration": 0.4635416666666714
        }
      ],
      "metadata": {
        "note_count": 12,
        "pitch_range": 28,
        "avg_velocity": 51,
        "note_density": 6.0,
        "duration": 2.0,
        "lowest_pitch": 38,
        "highest_pitch": 66
      },
      "label": "UNLABELED",
      "label_description": "",
      "is_labeled": false
    },
    {
      "id": "2025-08-03T174139Z_0_37_4d65776b",
      "source_file": "2025-08-03T174139Z",
      "instrument_idx": 0,
      "bar_idx": 37,
      "pitch_hash": "4d65776b",
      "notes": [
        {
          "pitch": 57,
          "velocity": 48,
          "start": 0.1015625,
          "end": 0.2109375,
          "duration": 0.109375
        },
        {
          "pitch": 62,
          "velocity": 62,
          "start": 0.34375,
          "end": 0.59375,
          "duration": 0.25
        },
        {
          "pitch": 38,
          "velocity": 49,
          "start": 0.5520833333333286,
          "end": 0.96875,
          "duration": 0.4166666666666714
        },
        {
          "pitch": 50,
          "velocity": 51,
          "start": 0.5755208333333286,
          "end": 0.9375,
          "duration": 0.3619791666666714
        },
        {
          "pitch": 57,
          "velocity": 56,
          "start": 0.7942708333333286,
          "end": 0.9322916666666572,
          "duration": 0.1380208333333286
        },
        {
          "pitch": 69,
          "velocity": 50,
          "start": 0.875,
          "end": 1.015625,
          "duration": 0.140625
        },
        {
          "pitch": 50,
          "velocity": 55,
          "start": 1.2630208333333286,
          "end": 1.3255208333333286,
          "duration": 0.0625
        },
        {
          "pitch": 38,
          "velocity": 58,
          "start": 1.265625,
          "end": 1.359375,
          "duration": 0.09375
        },
        {
          "pitch": 69,
          "velocity": 78,
          "start": 1.2708333333333286,
          "end": 1.375,
          "duration": 0.1041666666666714
        },
        {
          "pitch": 57,
          "velocity": 42,
          "start": 1.5364583333333286,
          "end": 1.6432291666666572,
          "duration": 0.1067708333333286
        },
        {
          "pitch": 31,
          "velocity": 57,
          "start": 1.7057291666666572,
          "end": 2.1328125,
          "duration": 0.4270833333333428
        },
        {
          "pitch": 69,
          "velocity": 76,
          "start": 1.7135416666666572,
          "end": 1.875,
          "duration": 0.1614583333333428
        },
        {
          "pitch": 43,
          "velocity": 48,
          "start": 1.734375,
          "end": 2.127604166666657,
          "duration": 0.3932291666666572
        },
        {
          "pitch": 57,
          "velocity": 52,
          "start": 1.96875,
          "end": 2.065104166666657,
          "duration": 0.09635416666665719
        }
      ],
      "metadata": {
        "note_count": 14,
        "pitch_range": 38,
        "avg_velocity": 55,
        "note_density": 7.0,
        "duration": 2.0,
        "lowest_pitch": 31,
        "highest_pitch": 69
      },
      "label": "UNLABELED",
      "label_description": "",
      "is_labeled": false
    },
    {
      "id": "2025-08-03T174139Z_0_38_962ba474",
      "source_file": "2025-08-03T174139Z",
      "instrument_idx": 0,
      "bar_idx": 38,
      "pitch_hash": "962ba474",
      "notes": [
        {
          "pitch": 31,
          "velocity": 55,
          "start": 0.4427083333333286,
          "end": 1.140625,
          "duration": 0.6979166666666714
        },
        {
          "pitch": 64,
          "velocity": 70,
          "start": 0.4453125,
          "end": 0.7890625,
          "duration": 0.34375
        },
        {
          "pitch": 43,
          "velocity": 51,
          "start": 0.4505208333333286,
          "end": 0.9296875,
          "duration": 0.4791666666666714
        },
        {
          "pitch": 57,
          "velocity": 63,
          "start": 0.453125,
          "end": 0.6015625,
          "duration": 0.1484375
        },
        {
          "pitch": 57,
          "velocity": 63,
          "start": 0.8671875,
          "end": 1.0755208333333286,
          "duration": 0.2083333333333286
        },
        {
          "pitch": 43,
          "velocity": 47,
          "start": 1.109375,
          "end": 1.1848958333333286,
          "duration": 0.0755208333333286
        },
        {
          "pitch": 57,
          "velocity": 55,
          "start": 1.328125,
          "end": 1.5963541666666572,
          "duration": 0.2682291666666572
        },
        {
          "pitch": 50,
          "velocity": 50,
          "start": 1.5572916666666572,
          "end": 2.072916666666657,
          "duration": 0.515625
        },
        {
          "pitch": 38,
          "velocity": 47,
          "start": 1.5598958333333286,
          "end": 2.0625,
          "duration": 0.5026041666666714
        },
        {
          "pitch": 66,
          "velocity": 43,
          "start": 1.5963541666666572,
          "end": 1.6666666666666572,
          "duration": 0.0703125
        },
        {
          "pitch": 69,
          "velocity": 71,
          "start": 1.7760416666666572,
          "end": 1.90625,
          "duration": 0.1302083333333428
        }
      ],
      "metadata": {
        "note_count": 11,
        "pitch_range": 38,
        "avg_velocity": 55,
        "note_density": 5.5,
        "duration": 2.0,
        "lowest_pitch": 31,
        "highest_pitch": 69
      },
      "label": "UNLABELED",
      "label_description": "",
      "is_labeled": false
    },
    {
      "id": "2025-08-03T174139Z_0_39_aab0f12f",
      "source_file": "2025-08-03T174139Z",
      "instrument_idx": 0,
      "bar_idx": 39,
      "pitch_hash": "aab0f12f",
      "notes": [
        {
          "pitch": 57,
          "velocity": 69,
          "start": 0.0078125,
          "end": 0.11979166666665719,
          "duration": 0.11197916666665719
        },
        {
          "pitch": 38,
          "velocity": 62,
          "start": 0.2109375,
          "end": 0.6927083333333286,
          "duration": 0.4817708333333286
        },
        {
          "pitch": 57,
          "velocity": 61,
          "start": 0.2161458333333286,
          "end": 0.3385416666666572,
          "duration": 0.1223958333333286
        },
        {
          "pitch": 50,
          "velocity": 55,
          "start": 0.21875,
          "end": 0.6692708333333286,
          "duration": 0.4505208333333286
        },
        {
          "pitch": 69,
          "velocity": 74,
          "start": 0.2421875,
          "end": 0.34375,
          "duration": 0.1015625
        },
        {
          "pitch": 66,
          "velocity": 44,
          "start": 0.2604166666666572,
          "end": 0.3177083333333286,
          "duration": 0.057291666666671404
        },
        {
          "pitch": 62,
          "velocity": 30,
          "start": 0.2708333333333286,
          "end": 0.4192708333333286,
          "duration": 0.1484375
        },
        {
          "pitch": 71,
          "velocity": 75,
          "start": 0.609375,
          "end": 0.7864583333333286,
          "duration": 0.1770833333333286
        },
        {
          "pitch": 38,
          "velocity": 53,
          "start": 0.828125,
          "end": 0.9166666666666572,
          "duration": 0.08854166666665719
        },
        {
          "pitch": 66,
          "velocity": 64,
          "start": 1.2864583333333286,
          "end": 1.7864583333333286,
          "duration": 0.5
        },
        {
          "pitch": 45,
          "velocity": 57,
          "start": 1.2994791666666572,
          "end": 1.7864583333333286,
          "duration": 0.4869791666666714
        },
        {
          "pitch": 33,
          "velocity": 56,
          "start": 1.2994791666666572,
          "end": 1.8046875,
          "duration": 0.5052083333333428
        },
        {
          "pitch": 57,
          "velocity": 58,
          "start": 1.3177083333333286,
          "end": 1.5130208333333286,
          "duration": 0.1953125
        },
        {
          "pitch": 57,
          "velocity": 42,
          "start": 1.7630208333333286,
          "end": 1.84375,
          "duration": 0.0807291666666714
        },
        {
          "pitch": 62,
          "velocity": 79,
          "start": 1.9661458333333286,
          "end": 2.268229166666657,
          "duration": 0.3020833333333286
        },
        {
          "pitch": 57,
          "velocity": 65,
          "start": 1.9791666666666572,
          "end": 2.072916666666657,
          "duration": 0.09375
        },
        {
          "pitch": 33,
          "velocity": 58,
          "start": 1.9817708333333286,
          "end": 2.760416666666657,
          "duration": 0.7786458333333286
        },
        {
          "pitch": 45,
          "velocity": 54,
          "start": 1.9895833333333286,
          "end": 2.526041666666657,
          "duration": 0.5364583333333286
        }
      ],
      "metadata": {
        "note_count": 18,
        "pitch_range": 38,
        "avg_velocity": 58,
        "note_density": 9.0,
        "duration": 2.0,
        "lowest_pitch": 33,
        "highest_pitch": 71
      },
      "label": "UNLABELED",
      "label_description": "",
      "is_labeled": false
    },
    {
      "id": "2025-08-03T174139Z_0_40_bc5dd3ac",
      "source_file": "2025-08-03T174139Z",
      "instrument_idx": 0,
      "bar_idx": 40,
      "pitch_hash": "bc5dd3ac",
      "notes": [
        {
          "pitch": 64,
          "velocity": 76,
          "start": 0.3307291666666572,
          "end": 0.8020833333333286,
          "duration": 0.4713541666666714
        },
        {
          "pitch": 57,
          "velocity": 76,
          "start": 0.3359375,
          "end": 0.5963541666666572,
          "duration": 0.2604166666666572
        },
        {
          "pitch": 45,
          "velocity": 49,
          "start": 0.7239583333333286,
          "end": 0.8098958333333286,
          "duration": 0.0859375
        },
        {
          "pitch": 57,
          "velocity": 67,
          "start": 0.8359375,
          "end": 0.90625,
          "duration": 0.0703125
        },
        {
          "pitch": 57,
          "velocity": 50,
          "start": 1.0520833333333286,
          "end": 1.1588541666666572,
          "duration": 0.1067708333333286
        },
        {
          "pitch": 66,
          "velocity": 62,
          "start": 1.0651041666666572,
          "end": 1.1822916666666572,
          "duration": 0.1171875
        },
        {
          "pitch": 50,
          "velocity": 53,
          "start": 1.2291666666666572,
          "end": 1.6848958333333286,
          "duration": 0.4557291666666714
        },
        {
          "pitch": 38,
          "velocity": 63,
          "start": 1.2317708333333286,
          "end": 1.6848958333333286,
          "duration": 0.453125
        },
        {
          "pitch": 69,
          "velocity": 80,
          "start": 1.2786458333333286,
          "end": 1.421875,
          "duration": 0.1432291666666714
        },
        {
          "pitch": 57,
          "velocity": 67,
          "start": 1.4635416666666572,
          "end": 1.5989583333333286,
          "duration": 0.1354166666666714
        },
        {
          "pitch": 69,
          "velocity": 73,
          "start": 1.6901041666666572,
          "end": 1.84375,
          "duration": 0.1536458333333428
        },
        {
          "pitch": 38,
          "velocity": 58,
          "start": 1.9088541666666572,
          "end": 2.3489583333333286,
          "duration": 0.4401041666666714
        },
        {
          "pitch": 50,
          "velocity": 49,
          "start": 1.9427083333333286,
          "end": 2.3125,
          "duration": 0.3697916666666714
        }
      ],
      "metadata": {
        "note_count": 13,
        "pitch_range": 31,
        "avg_velocity": 63,
        "note_density": 6.5,
        "duration": 2.0,
        "lowest_pitch": 38,
        "highest_pitch": 69
      },
      "label": "UNLABELED",
      "label_description": "",
      "is_labeled": false
    },
    {
      "id": "2025-08-03T174139Z_0_41_439952e1",
      "source_file": "2025-08-03T174139Z",
      "instrument_idx": 0,
      "bar_idx": 41,
      "pitch_hash": "439952e1",
      "notes": [
        {
          "pitch": 66,
          "velocity": 81,
          "start": 0.1354166666666572,
          "end": 0.3333333333333286,
          "duration": 0.1979166666666714
        },
        {
          "pitch": 64,
          "velocity": 67,
          "start": 0.4114583333333286,
          "end": 0.6041666666666572,
          "duration": 0.1927083333333286
        },
        {
          "pitch": 50,
          "velocity": 44,
          "start": 0.5755208333333286,
          "end": 0.6380208333333286,
          "duration": 0.0625
        },
        {
          "pitch": 62,
          "velocity": 60,
          "start": 0.7005208333333286,
          "end": 0.8463541666666572,
          "duration": 0.1458333333333286
        },
        {
          "pitch": 64,
          "velocity": 58,
          "start": 0.9791666666666572,
          "end": 1.2213541666666572,
          "duration": 0.2421875
        },
        {
          "pitch": 43,
          "velocity": 47,
          "start": 0.9895833333333286,
          "end": 1.3489583333333286,
          "duration": 0.359375
        },
        {
          "pitch": 31,
          "velocity": 49,
          "start": 1.0052083333333286,
          "end": 1.4270833333333286,
          "duration": 0.421875
        },
        {
          "pitch": 66,
          "velocity": 78,
          "start": 1.2135416666666572,
          "end": 1.4322916666666572,
          "duration": 0.21875
        },
        {
          "pitch": 57,
          "velocity": 65,
          "start": 1.4296875,
          "end": 1.5598958333333286,
          "duration": 0.1302083333333286
        },
        {
          "pitch": 62,
          "velocity": 64,
          "start": 1.6432291666666572,
          "end": 1.9661458333333286,
          "duration": 0.3229166666666714
        },
        {
          "pitch": 57,
          "velocity": 44,
          "start": 1.65625,
          "end": 1.7552083333333286,
          "duration": 0.0989583333333286
        },
        {
          "pitch": 31,
          "velocity": 52,
          "start": 1.65625,
          "end": 2.1458333333333286,
          "duration": 0.4895833333333286
        },
        {
          "pitch": 43,
          "velocity": 47,
          "start": 1.6614583333333286,
          "end": 2.1223958333333286,
          "duration": 0.4609375
        }
      ],
      "metadata": {
        "note_count": 13,
        "pitch_range": 35,
        "avg_velocity": 58,
        "note_density": 6.5,
        "duration": 2.0,
        "lowest_pitch": 31,
        "highest_pitch": 66
      },
      "label": "UNLABELED",
      "label_description": "",
      "is_labeled": false
    },
    {
      "id": "2025-08-03T174139Z_0_42_40dfe487",
      "source_file": "2025-08-03T174139Z",
      "instrument_idx": 0,
      "bar_idx": 42,
      "pitch_hash": "40dfe487",
      "notes": [
        {
          "pitch": 57,
          "velocity": 72,
          "start": 0.0703125,
          "end": 0.234375,
          "duration": 0.1640625
        },
        {
          "pitch": 31,
          "velocity": 56,
          "start": 0.2578125,
          "end": 0.4192708333333286,
          "duration": 0.1614583333333286
        },
        {
          "pitch": 43,
          "velocity": 57,
          "start": 0.2994791666666572,
          "end": 0.421875,
          "duration": 0.12239583333334281
        },
        {
          "pitch": 62,
          "velocity": 57,
          "start": 0.46875,
          "end": 0.5963541666666572,
          "duration": 0.1276041666666572
        },
        {
          "pitch": 57,
          "velocity": 47,
          "start": 0.4869791666666572,
          "end": 0.5598958333333286,
          "duration": 0.0729166666666714
        },
        {
          "pitch": 45,
          "velocity": 60,
          "start": 0.6692708333333286,
          "end": 1.1848958333333286,
          "duration": 0.515625
        },
        {
          "pitch": 33,
          "velocity": 60,
          "start": 0.6744791666666572,
          "end": 1.2057291666666572,
          "duration": 0.53125
        },
        {
          "pitch": 62,
          "velocity": 66,
          "start": 0.6822916666666572,
          "end": 0.8671875,
          "duration": 0.1848958333333428
        },
        {
          "pitch": 57,
          "velocity": 32,
          "start": 0.921875,
          "end": 0.9869791666666572,
          "duration": 0.06510416666665719
        },
        {
          "pitch": 57,
          "velocity": 52,
          "start": 1.1223958333333286,
          "end": 1.2682291666666572,
          "duration": 0.1458333333333286
        },
        {
          "pitch": 62,
          "velocity": 63,
          "start": 1.125,
          "end": 1.296875,
          "duration": 0.171875
        },
        {
          "pitch": 33,
          "velocity": 55,
          "start": 1.3359375,
          "end": 1.7682291666666572,
          "duration": 0.4322916666666572
        },
        {
          "pitch": 45,
          "velocity": 50,
          "start": 1.3463541666666572,
          "end": 1.7265625,
          "duration": 0.3802083333333428
        },
        {
          "pitch": 62,
          "velocity": 54,
          "start": 1.546875,
          "end": 1.703125,
          "duration": 0.15625
        },
        {
          "pitch": 57,
          "velocity": 51,
          "start": 1.59375,
          "end": 1.6770833333333286,
          "duration": 0.0833333333333286
        },
        {
          "pitch": 57,
          "velocity": 58,
          "start": 1.8098958333333286,
          "end": 1.9192708333333286,
          "duration": 0.109375
        }
      ],
      "metadata": {
        "note_count": 16,
        "pitch_range": 31,
        "avg_velocity": 55,
        "note_density": 8.0,
        "duration": 2.0,
        "lowest_pitch": 31,
        "highest_pitch": 62
      },
      "label": "UNLABELED",
      "label_description": "",
      "is_labeled": false
    },
    {
      "id": "2025-08-03T174139Z_0_43_9fe72f3d",
      "source_file": "2025-08-03T174139Z",
      "instrument_idx": 0,
      "bar_idx": 43,
      "pitch_hash": "9fe72f3d",
      "notes": [
        {
          "pitch": 33,
          "velocity": 59,
          "start": 0.015625,
          "end": 0.1875,
          "duration": 0.171875
        },
        {
          "pitch": 45,
          "velocity": 56,
          "start": 0.018229166666657193,
          "end": 0.1614583333333286,
          "duration": 0.1432291666666714
        },
        {
          "pitch": 62,
          "velocity": 73,
          "start": 0.020833333333328596,
          "end": 0.1640625,
          "duration": 0.1432291666666714
        },
        {
          "pitch": 57,
          "velocity": 55,
          "start": 0.203125,
          "end": 0.3307291666666572,
          "duration": 0.1276041666666572
        },
        {
          "pitch": 62,
          "velocity": 64,
          "start": 0.421875,
          "end": 0.5989583333333286,
          "duration": 0.1770833333333286
        },
        {
          "pitch": 43,
          "velocity": 56,
          "start": 0.4375,
          "end": 0.9114583333333286,
          "duration": 0.4739583333333286
        },
        {
          "pitch": 31,
          "velocity": 57,
          "start": 0.4427083333333286,
          "end": 0.9114583333333286,
          "duration": 0.46875
        },
        {
          "pitch": 57,
          "velocity": 52,
          "start": 0.65625,
          "end": 0.7578125,
          "duration": 0.1015625
        },
        {
          "pitch": 62,
          "velocity": 66,
          "start": 0.8776041666666572,
          "end": 1.0234375,
          "duration": 0.1458333333333428
        },
        {
          "pitch": 57,
          "velocity": 74,
          "start": 0.8984375,
          "end": 1.0130208333333286,
          "duration": 0.1145833333333286
        },
        {
          "pitch": 31,
          "velocity": 55,
          "start": 1.0807291666666572,
          "end": 1.5963541666666572,
          "duration": 0.515625
        },
        {
          "pitch": 43,
          "velocity": 46,
          "start": 1.0989583333333286,
          "end": 1.5989583333333286,
          "duration": 0.5
        },
        {
          "pitch": 62,
          "velocity": 69,
          "start": 1.1041666666666572,
          "end": 1.203125,
          "duration": 0.09895833333334281
        },
        {
          "pitch": 57,
          "velocity": 63,
          "start": 1.109375,
          "end": 1.1953125,
          "duration": 0.0859375
        },
        {
          "pitch": 57,
          "velocity": 66,
          "start": 1.3125,
          "end": 1.3984375,
          "duration": 0.0859375
        },
        {
          "pitch": 62,
          "velocity": 65,
          "start": 1.3151041666666572,
          "end": 1.3880208333333286,
          "duration": 0.0729166666666714
        },
        {
          "pitch": 62,
          "velocity": 77,
          "start": 1.5442708333333286,
          "end": 1.5911458333333286,
          "duration": 0.046875
        },
        {
          "pitch": 57,
          "velocity": 57,
          "start": 1.5494791666666572,
          "end": 1.5989583333333286,
          "duration": 0.049479166666671404
        },
        {
          "pitch": 31,
          "velocity": 58,
          "start": 1.7317708333333286,
          "end": 1.7838541666666572,
          "duration": 0.052083333333328596
        },
        {
          "pitch": 57,
          "velocity": 75,
          "start": 1.7473958333333286,
          "end": 1.8046875,
          "duration": 0.057291666666671404
        },
        {
          "pitch": 62,
          "velocity": 83,
          "start": 1.7473958333333286,
          "end": 1.8046875,
          "duration": 0.057291666666671404
        },
        {
          "pitch": 62,
          "velocity": 76,
          "start": 1.9557291666666572,
          "end": 2.0390625,
          "duration": 0.08333333333334281
        },
        {
          "pitch": 57,
          "velocity": 71,
          "start": 1.9557291666666572,
          "end": 2.0390625,
          "duration": 0.08333333333334281
        }
      ],
      "metadata": {
        "note_count": 23,
        "pitch_range": 31,
        "avg_velocity": 64,
        "note_density": 11.5,
        "duration": 2.0,
        "lowest_pitch": 31,
        "highest_pitch": 62
      },
      "label": "UNLABELED",
      "label_description": "",
      "is_labeled": false
    },
    {
      "id": "2025-08-03T174139Z_0_44_fa309bc2",
      "source_file": "2025-08-03T174139Z",
      "instrument_idx": 0,
      "bar_idx": 44,
      "pitch_hash": "fa309bc2",
      "notes": [
        {
          "pitch": 64,
          "velocity": 82,
          "start": 0.1458333333333286,
          "end": 0.2578125,
          "duration": 0.1119791666666714
        },
        {
          "pitch": 38,
          "velocity": 57,
          "start": 0.1458333333333286,
          "end": 0.6328125,
          "duration": 0.4869791666666714
        },
        {
          "pitch": 50,
          "velocity": 55,
          "start": 0.1510416666666572,
          "end": 0.6536458333333286,
          "duration": 0.5026041666666714
        },
        {
          "pitch": 57,
          "velocity": 63,
          "start": 0.1640625,
          "end": 0.2578125,
          "duration": 0.09375
        },
        {
          "pitch": 66,
          "velocity": 82,
          "start": 0.3619791666666572,
          "end": 0.5052083333333286,
          "duration": 0.1432291666666714
        },
        {
          "pitch": 57,
          "velocity": 72,
          "start": 0.5703125,
          "end": 0.671875,
          "duration": 0.1015625
        },
        {
          "pitch": 62,
          "velocity": 74,
          "start": 0.7838541666666572,
          "end": 0.9140625,
          "duration": 0.1302083333333428
        },
        {
          "pitch": 38,
          "velocity": 54,
          "start": 0.7838541666666572,
          "end": 1.2630208333333286,
          "duration": 0.4791666666666714
        },
        {
          "pitch": 57,
          "velocity": 62,
          "start": 0.7916666666666572,
          "end": 0.8671875,
          "duration": 0.07552083333334281
        },
        {
          "pitch": 50,
          "velocity": 56,
          "start": 0.7994791666666572,
          "end": 1.2473958333333286,
          "duration": 0.4479166666666714
        },
        {
          "pitch": 57,
          "velocity": 58,
          "start": 0.9921875,
          "end": 1.0911458333333286,
          "duration": 0.0989583333333286
        },
        {
          "pitch": 62,
          "velocity": 57,
          "start": 0.9973958333333286,
          "end": 1.1432291666666572,
          "duration": 0.1458333333333286
        },
        {
          "pitch": 69,
          "velocity": 81,
          "start": 1.2057291666666572,
          "end": 1.3828125,
          "duration": 0.1770833333333428
        },
        {
          "pitch": 38,
          "velocity": 57,
          "start": 1.3802083333333286,
          "end": 1.5234375,
          "duration": 0.1432291666666714
        },
        {
          "pitch": 50,
          "velocity": 57,
          "start": 1.3854166666666572,
          "end": 1.4427083333333286,
          "duration": 0.057291666666671404
        },
        {
          "pitch": 66,
          "velocity": 76,
          "start": 1.53125,
          "end": 1.7447916666666572,
          "duration": 0.2135416666666572
        },
        {
          "pitch": 31,
          "velocity": 65,
          "start": 1.78125,
          "end": 2.1953125,
          "duration": 0.4140625
        },
        {
          "pitch": 64,
          "velocity": 65,
          "start": 1.7838541666666572,
          "end": 2.127604166666657,
          "duration": 0.34375
        },
        {
          "pitch": 43,
          "velocity": 50,
          "start": 1.796875,
          "end": 2.2473958333333286,
          "duration": 0.4505208333333286
        }
      ],
      "metadata": {
        "note_count": 19,
        "pitch_range": 38,
        "avg_velocity": 64,
        "note_density": 9.5,
        "duration": 2.0,
        "lowest_pitch": 31,
        "highest_pitch": 69
      },
      "label": "UNLABELED",
      "label_description": "",
      "is_labeled": false
    },
    {
      "id": "2025-08-03T174139Z_0_45_fee47ff6",
      "source_file": "2025-08-03T174139Z",
      "instrument_idx": 0,
      "bar_idx": 45,
      "pitch_hash": "fee47ff6",
      "notes": [
        {
          "pitch": 62,
          "velocity": 63,
          "start": 0.005208333333328596,
          "end": 0.2265625,
          "duration": 0.2213541666666714
        },
        {
          "pitch": 57,
          "velocity": 58,
          "start": 0.2057291666666572,
          "end": 0.3203125,
          "duration": 0.11458333333334281
        },
        {
          "pitch": 64,
          "velocity": 74,
          "start": 0.4296875,
          "end": 0.6354166666666572,
          "duration": 0.2057291666666572
        },
        {
          "pitch": 45,
          "velocity": 60,
          "start": 0.4427083333333286,
          "end": 0.9895833333333286,
          "duration": 0.546875
        },
        {
          "pitch": 57,
          "velocity": 63,
          "start": 0.4453125,
          "end": 0.5729166666666572,
          "duration": 0.1276041666666572
        },
        {
          "pitch": 33,
          "velocity": 60,
          "start": 0.4453125,
          "end": 1.21875,
          "duration": 0.7734375
        },
        {
          "pitch": 57,
          "velocity": 62,
          "start": 0.6770833333333286,
          "end": 0.8489583333333286,
          "duration": 0.171875
        },
        {
          "pitch": 69,
          "velocity": 89,
          "start": 0.8854166666666572,
          "end": 1.0625,
          "duration": 0.1770833333333428
        },
        {
          "pitch": 45,
          "velocity": 63,
          "start": 1.1015625,
          "end": 1.2473958333333286,
          "duration": 0.1458333333333286
        },
        {
          "pitch": 57,
          "velocity": 74,
          "start": 1.2916666666666572,
          "end": 1.3880208333333286,
          "duration": 0.0963541666666714
        },
        {
          "pitch": 69,
          "velocity": 78,
          "start": 1.2942708333333286,
          "end": 1.3984375,
          "duration": 0.1041666666666714
        },
        {
          "pitch": 69,
          "velocity": 72,
          "start": 1.5078125,
          "end": 1.6119791666666572,
          "duration": 0.10416666666665719
        },
        {
          "pitch": 50,
          "velocity": 72,
          "start": 1.5078125,
          "end": 2.002604166666657,
          "duration": 0.4947916666666572
        },
        {
          "pitch": 38,
          "velocity": 66,
          "start": 1.5078125,
          "end": 2.486979166666657,
          "duration": 0.9791666666666572
        },
        {
          "pitch": 57,
          "velocity": 65,
          "start": 1.5130208333333286,
          "end": 1.5911458333333286,
          "duration": 0.078125
        },
        {
          "pitch": 57,
          "velocity": 66,
          "start": 1.7265625,
          "end": 1.8359375,
          "duration": 0.109375
        },
        {
          "pitch": 69,
          "velocity": 84,
          "start": 1.9401041666666572,
          "end": 2.0755208333333286,
          "duration": 0.1354166666666714
        }
      ],
      "metadata": {
        "note_count": 17,
        "pitch_range": 36,
        "avg_velocity": 68,
        "note_density": 8.5,
        "duration": 2.0,
        "lowest_pitch": 33,
        "highest_pitch": 69
      },
      "label": "UNLABELED",
      "label_description": "",
      "is_labeled": false
    },
    {
      "id": "2025-08-03T174139Z_0_46_6bde78c0",
      "source_file": "2025-08-03T174139Z",
      "instrument_idx": 0,
      "bar_idx": 46,
      "pitch_hash": "6bde78c0",
      "notes": [
        {
          "pitch": 50,
          "velocity": 58,
          "start": 0.1822916666666572,
          "end": 0.4375,
          "duration": 0.2552083333333428
        },
        {
          "pitch": 57,
          "velocity": 57,
          "start": 0.1875,
          "end": 0.2552083333333286,
          "duration": 0.0677083333333286
        },
        {
          "pitch": 69,
          "velocity": 77,
          "start": 0.3723958333333286,
          "end": 0.5364583333333286,
          "duration": 0.1640625
        },
        {
          "pitch": 38,
          "velocity": 64,
          "start": 0.6223958333333286,
          "end": 0.7734375,
          "duration": 0.1510416666666714
        },
        {
          "pitch": 50,
          "velocity": 57,
          "start": 0.6302083333333286,
          "end": 0.7239583333333286,
          "duration": 0.09375
        },
        {
          "pitch": 66,
          "velocity": 81,
          "start": 0.6380208333333286,
          "end": 0.8098958333333286,
          "duration": 0.171875
        },
        {
          "pitch": 64,
          "velocity": 73,
          "start": 0.8697916666666572,
          "end": 1.109375,
          "duration": 0.2395833333333428
        },
        {
          "pitch": 66,
          "velocity": 82,
          "start": 1.1302083333333286,
          "end": 1.4322916666666572,
          "duration": 0.3020833333333286
        },
        {
          "pitch": 33,
          "velocity": 57,
          "start": 1.1380208333333286,
          "end": 1.546875,
          "duration": 0.4088541666666714
        },
        {
          "pitch": 45,
          "velocity": 57,
          "start": 1.1458333333333286,
          "end": 1.5026041666666572,
          "duration": 0.3567708333333286
        },
        {
          "pitch": 64,
          "velocity": 66,
          "start": 1.3463541666666572,
          "end": 1.5208333333333286,
          "duration": 0.1744791666666714
        },
        {
          "pitch": 62,
          "velocity": 66,
          "start": 1.5677083333333286,
          "end": 1.6927083333333286,
          "duration": 0.125
        },
        {
          "pitch": 31,
          "velocity": 61,
          "start": 1.78125,
          "end": 2.252604166666657,
          "duration": 0.4713541666666572
        },
        {
          "pitch": 62,
          "velocity": 72,
          "start": 1.7838541666666572,
          "end": 2.1302083333333286,
          "duration": 0.3463541666666714
        },
        {
          "pitch": 43,
          "velocity": 48,
          "start": 1.7838541666666572,
          "end": 2.2421875,
          "duration": 0.4583333333333428
        },
        {
          "pitch": 57,
          "velocity": 57,
          "start": 1.7864583333333286,
          "end": 1.9739583333333286,
          "duration": 0.1875
        }
      ],
      "metadata": {
        "note_count": 16,
        "pitch_range": 38,
        "avg_velocity": 64,
        "note_density": 8.0,
        "duration": 2.0,
        "lowest_pitch": 31,
        "highest_pitch": 69
      },
      "label": "UNLABELED",
      "label_description": "",
      "is_labeled": false
    },
    {
      "id": "2025-08-03T174139Z_0_47_8a360a84",
      "source_file": "2025-08-03T174139Z",
      "instrument_idx": 0,
      "bar_idx": 47,
      "pitch_hash": "8a360a84",
      "notes": [
        {
          "pitch": 57,
          "velocity": 69,
          "start": 0.171875,
          "end": 0.3333333333333286,
          "duration": 0.1614583333333286
        },
        {
          "pitch": 31,
          "velocity": 57,
          "start": 0.34375,
          "end": 0.4921875,
          "duration": 0.1484375
        },
        {
          "pitch": 43,
          "velocity": 51,
          "start": 0.3880208333333286,
          "end": 0.5364583333333286,
          "duration": 0.1484375
        },
        {
          "pitch": 62,
          "velocity": 59,
          "start": 0.5911458333333286,
          "end": 0.75,
          "duration": 0.1588541666666714
        },
        {
          "pitch": 57,
          "velocity": 59,
          "start": 0.5963541666666572,
          "end": 0.84375,
          "duration": 0.2473958333333428
        },
        {
          "pitch": 64,
          "velocity": 67,
          "start": 0.7916666666666572,
          "end": 0.9869791666666572,
          "duration": 0.1953125
        },
        {
          "pitch": 50,
          "velocity": 67,
          "start": 0.796875,
          "end": 1.2552083333333286,
          "duration": 0.4583333333333286
        },
        {
          "pitch": 38,
          "velocity": 62,
          "start": 0.8020833333333286,
          "end": 1.3020833333333286,
          "duration": 0.5
        },
        {
          "pitch": 66,
          "velocity": 75,
          "start": 1.0,
          "end": 1.2734375,
          "duration": 0.2734375
        },
        {
          "pitch": 57,
          "velocity": 66,
          "start": 1.2109375,
          "end": 1.3541666666666572,
          "duration": 0.1432291666666572
        },
        {
          "pitch": 38,
          "velocity": 65,
          "start": 1.3932291666666572,
          "end": 1.890625,
          "duration": 0.4973958333333428
        },
        {
          "pitch": 62,
          "velocity": 66,
          "start": 1.4088541666666572,
          "end": 1.7864583333333286,
          "duration": 0.3776041666666714
        },
        {
          "pitch": 50,
          "velocity": 50,
          "start": 1.4401041666666572,
          "end": 1.8411458333333286,
          "duration": 0.4010416666666714
        },
        {
          "pitch": 57,
          "velocity": 57,
          "start": 1.5911458333333286,
          "end": 1.75,
          "duration": 0.1588541666666714
        },
        {
          "pitch": 69,
          "velocity": 77,
          "start": 1.7864583333333286,
          "end": 2.0078125,
          "duration": 0.2213541666666714
        }
      ],
      "metadata": {
        "note_count": 15,
        "pitch_range": 38,
        "avg_velocity": 63,
        "note_density": 7.5,
        "duration": 2.0,
        "lowest_pitch": 31,
        "highest_pitch": 69
      },
      "label": "UNLABELED",
      "label_description": "",
      "is_labeled": false
    },
    {
      "id": "2025-08-03T174139Z_0_48_f22b5ed4",
      "source_file": "2025-08-03T174139Z",
      "instrument_idx": 0,
      "bar_idx": 48,
      "pitch_hash": "f22b5ed4",
      "notes": [
        {
          "pitch": 38,
          "velocity": 58,
          "start": 0.0,
          "end": 0.1458333333333286,
          "duration": 0.1458333333333286
        },
        {
          "pitch": 50,
          "velocity": 58,
          "start": 0.010416666666657193,
          "end": 0.07291666666665719,
          "duration": 0.0625
        },
        {
          "pitch": 66,
          "velocity": 73,
          "start": 0.3854166666666572,
          "end": 0.8151041666666572,
          "duration": 0.4296875
        },
        {
          "pitch": 31,
          "velocity": 62,
          "start": 0.4140625,
          "end": 0.8802083333333286,
          "duration": 0.4661458333333286
        },
        {
          "pitch": 43,
          "velocity": 54,
          "start": 0.4166666666666572,
          "end": 0.90625,
          "duration": 0.4895833333333428
        },
        {
          "pitch": 57,
          "velocity": 60,
          "start": 0.7786458333333286,
          "end": 0.9583333333333286,
          "duration": 0.1796875
        },
        {
          "pitch": 64,
          "velocity": 63,
          "start": 1.0234375,
          "end": 1.3854166666666572,
          "duration": 0.3619791666666572
        },
        {
          "pitch": 31,
          "velocity": 55,
          "start": 1.0390625,
          "end": 1.4973958333333286,
          "duration": 0.4583333333333286
        },
        {
          "pitch": 43,
          "velocity": 50,
          "start": 1.0442708333333286,
          "end": 1.5182291666666572,
          "duration": 0.4739583333333286
        },
        {
          "pitch": 62,
          "velocity": 63,
          "start": 1.4739583333333286,
          "end": 1.7213541666666572,
          "duration": 0.2473958333333286
        },
        {
          "pitch": 57,
          "velocity": 63,
          "start": 1.4791666666666572,
          "end": 1.6432291666666572,
          "duration": 0.1640625
        },
        {
          "pitch": 31,
          "velocity": 59,
          "start": 1.7109375,
          "end": 1.7838541666666572,
          "duration": 0.07291666666665719
        },
        {
          "pitch": 43,
          "velocity": 52,
          "start": 1.7213541666666572,
          "end": 1.8411458333333286,
          "duration": 0.1197916666666714
        }
      ],
      "metadata": {
        "note_count": 13,
        "pitch_range": 35,
        "avg_velocity": 59,
        "note_density": 6.5,
        "duration": 2.0,
        "lowest_pitch": 31,
        "highest_pitch": 66
      },
      "label": "UNLABELED",
      "label_description": "",
      "is_labeled": false
    },
    {
      "id": "2025-08-03T174139Z_0_49_c7b00e10",
      "source_file": "2025-08-03T174139Z",
      "instrument_idx": 0,
      "bar_idx": 49,
      "pitch_hash": "c7b00e10",
      "notes": [
        {
          "pitch": 57,
          "velocity": 46,
          "start": 0.06510416666665719,
          "end": 0.2057291666666572,
          "duration": 0.140625
        },
        {
          "pitch": 64,
          "velocity": 71,
          "start": 0.0703125,
          "end": 0.2395833333333286,
          "duration": 0.1692708333333286
        },
        {
          "pitch": 45,
          "velocity": 53,
          "start": 0.0989583333333286,
          "end": 0.5729166666666572,
          "duration": 0.4739583333333286
        },
        {
          "pitch": 33,
          "velocity": 55,
          "start": 0.0989583333333286,
          "end": 0.6354166666666572,
          "duration": 0.5364583333333286
        },
        {
          "pitch": 66,
          "velocity": 72,
          "start": 0.3229166666666572,
          "end": 0.5234375,
          "duration": 0.2005208333333428
        },
        {
          "pitch": 57,
          "velocity": 60,
          "start": 0.546875,
          "end": 0.75,
          "duration": 0.203125
        },
        {
          "pitch": 33,
          "velocity": 44,
          "start": 0.7838541666666572,
          "end": 1.2239583333333286,
          "duration": 0.4401041666666714
        },
        {
          "pitch": 64,
          "velocity": 69,
          "start": 0.7864583333333286,
          "end": 1.0078125,
          "duration": 0.2213541666666714
        },
        {
          "pitch": 45,
          "velocity": 47,
          "start": 0.828125,
          "end": 1.1796875,
          "duration": 0.3515625
        },
        {
          "pitch": 57,
          "velocity": 48,
          "start": 1.1119791666666572,
          "end": 1.3932291666666572,
          "duration": 0.28125
        },
        {
          "pitch": 62,
          "velocity": 64,
          "start": 1.4583333333333286,
          "end": 1.703125,
          "duration": 0.2447916666666714
        },
        {
          "pitch": 33,
          "velocity": 65,
          "start": 1.4739583333333286,
          "end": 1.5729166666666572,
          "duration": 0.0989583333333286
        },
        {
          "pitch": 45,
          "velocity": 50,
          "start": 1.4973958333333286,
          "end": 1.6328125,
          "duration": 0.1354166666666714
        },
        {
          "pitch": 57,
          "velocity": 61,
          "start": 1.7291666666666572,
          "end": 1.9505208333333286,
          "duration": 0.2213541666666714
        }
      ],
      "metadata": {
        "note_count": 14,
        "pitch_range": 33,
        "avg_velocity": 57,
        "note_density": 7.0,
        "duration": 2.0,
        "lowest_pitch": 33,
        "highest_pitch": 66
      },
      "label": "UNLABELED",
      "label_description": "",
      "is_labeled": false
    },
    {
      "id": "2025-08-03T174139Z_0_50_ad9ebb98",
      "source_file": "2025-08-03T174139Z",
      "instrument_idx": 0,
      "bar_idx": 50,
      "pitch_hash": "ad9ebb98",
      "notes": [
        {
          "pitch": 62,
          "velocity": 66,
          "start": 0.0078125,
          "end": 0.2265625,
          "duration": 0.21875
        },
        {
          "pitch": 50,
          "velocity": 47,
          "start": 0.0078125,
          "end": 0.5546875,
          "duration": 0.546875
        },
        {
          "pitch": 38,
          "velocity": 55,
          "start": 0.0234375,
          "end": 0.5572916666666572,
          "duration": 0.5338541666666572
        },
        {
          "pitch": 57,
          "velocity": 50,
          "start": 0.2682291666666572,
          "end": 0.3697916666666572,
          "duration": 0.1015625
        },
        {
          "pitch": 62,
          "velocity": 60,
          "start": 0.5338541666666572,
          "end": 0.7890625,
          "duration": 0.2552083333333428
        },
        {
          "pitch": 57,
          "velocity": 48,
          "start": 0.5572916666666572,
          "end": 0.7213541666666572,
          "duration": 0.1640625
        },
        {
          "pitch": 38,
          "velocity": 52,
          "start": 0.7890625,
          "end": 1.4166666666666572,
          "duration": 0.6276041666666572
        },
        {
          "pitch": 50,
          "velocity": 51,
          "start": 0.796875,
          "end": 1.40625,
          "duration": 0.609375
        },
        {
          "pitch": 62,
          "velocity": 59,
          "start": 1.0520833333333286,
          "end": 1.2760416666666572,
          "duration": 0.2239583333333286
        },
        {
          "pitch": 57,
          "velocity": 54,
          "start": 1.3072916666666572,
          "end": 1.4375,
          "duration": 0.1302083333333428
        },
        {
          "pitch": 62,
          "velocity": 64,
          "start": 1.546875,
          "end": 1.7395833333333286,
          "duration": 0.1927083333333286
        },
        {
          "pitch": 38,
          "velocity": 46,
          "start": 1.5703125,
          "end": 1.8046875,
          "duration": 0.234375
        },
        {
          "pitch": 50,
          "velocity": 55,
          "start": 1.5911458333333286,
          "end": 1.7994791666666572,
          "duration": 0.2083333333333286
        },
        {
          "pitch": 57,
          "velocity": 47,
          "start": 1.8046875,
          "end": 1.9661458333333286,
          "duration": 0.1614583333333286
        }
      ],
      "metadata": {
        "note_count": 14,
        "pitch_range": 24,
        "avg_velocity": 53,
        "note_density": 7.0,
        "duration": 2.0,
        "lowest_pitch": 38,
        "highest_pitch": 62
      },
      "label": "UNLABELED",
      "label_description": "",
      "is_labeled": false
    },
    {
      "id": "2025-08-03T174139Z_0_51_c4249b12",
      "source_file": "2025-08-03T174139Z",
      "instrument_idx": 0,
      "bar_idx": 51,
      "pitch_hash": "c4249b12",
      "notes": [
        {
          "pitch": 62,
          "velocity": 64,
          "start": 0.03385416666665719,
          "end": 0.2447916666666572,
          "duration": 0.2109375
        },
        {
          "pitch": 38,
          "velocity": 48,
          "start": 0.03385416666665719,
          "end": 0.5755208333333286,
          "duration": 0.5416666666666714
        },
        {
          "pitch": 50,
          "velocity": 51,
          "start": 0.0677083333333286,
          "end": 0.5729166666666572,
          "duration": 0.5052083333333286
        },
        {
          "pitch": 57,
          "velocity": 46,
          "start": 0.2942708333333286,
          "end": 0.4479166666666572,
          "duration": 0.1536458333333286
        },
        {
          "pitch": 62,
          "velocity": 66,
          "start": 0.5494791666666572,
          "end": 0.7473958333333286,
          "duration": 0.1979166666666714
        },
        {
          "pitch": 38,
          "velocity": 50,
          "start": 0.8020833333333286,
          "end": 1.2526041666666572,
          "duration": 0.4505208333333286
        },
        {
          "pitch": 50,
          "velocity": 47,
          "start": 0.8229166666666572,
          "end": 1.2473958333333286,
          "duration": 0.4244791666666714
        },
        {
          "pitch": 57,
          "velocity": 59,
          "start": 0.8255208333333286,
          "end": 0.9479166666666572,
          "duration": 0.1223958333333286
        },
        {
          "pitch": 62,
          "velocity": 66,
          "start": 1.0651041666666572,
          "end": 1.21875,
          "duration": 0.1536458333333428
        },
        {
          "pitch": 57,
          "velocity": 52,
          "start": 1.3046875,
          "end": 1.4791666666666572,
          "duration": 0.1744791666666572
        },
        {
          "pitch": 62,
          "velocity": 63,
          "start": 1.53125,
          "end": 1.7239583333333286,
          "duration": 0.1927083333333286
        },
        {
          "pitch": 50,
          "velocity": 48,
          "start": 1.5677083333333286,
          "end": 1.6744791666666572,
          "duration": 0.1067708333333286
        },
        {
          "pitch": 38,
          "velocity": 45,
          "start": 1.5677083333333286,
          "end": 1.7005208333333286,
          "duration": 0.1328125
        },
        {
          "pitch": 57,
          "velocity": 51,
          "start": 1.7838541666666572,
          "end": 2.03125,
          "duration": 0.2473958333333428
        }
      ],
      "metadata": {
        "note_count": 14,
        "pitch_range": 24,
        "avg_velocity": 54,
        "note_density": 7.0,
        "duration": 2.0,
        "lowest_pitch": 38,
        "highest_pitch": 62
      },
      "label": "UNLABELED",
      "label_description": "",
      "is_labeled": false
    },
    {
      "id": "2025-08-03T174139Z_0_52_e542698a",
      "source_file": "2025-08-03T174139Z",
      "instrument_idx": 0,
      "bar_idx": 52,
      "pitch_hash": "e542698a",
      "notes": [
        {
          "pitch": 62,
          "velocity": 57,
          "start": 0.0078125,
          "end": 0.2057291666666572,
          "duration": 0.1979166666666572
        },
        {
          "pitch": 31,
          "velocity": 56,
          "start": 0.046875,
          "end": 0.5755208333333286,
          "duration": 0.5286458333333286
        },
        {
          "pitch": 43,
          "velocity": 42,
          "start": 0.059895833333328596,
          "end": 0.578125,
          "duration": 0.5182291666666714
        },
        {
          "pitch": 57,
          "velocity": 46,
          "start": 0.2838541666666572,
          "end": 0.4244791666666572,
          "duration": 0.140625
        },
        {
          "pitch": 62,
          "velocity": 59,
          "start": 0.5182291666666572,
          "end": 0.7057291666666572,
          "duration": 0.1875
        },
        {
          "pitch": 57,
          "velocity": 52,
          "start": 0.7526041666666572,
          "end": 0.9036458333333286,
          "duration": 0.1510416666666714
        },
        {
          "pitch": 31,
          "velocity": 44,
          "start": 0.8177083333333286,
          "end": 1.3151041666666572,
          "duration": 0.4973958333333286
        },
        {
          "pitch": 43,
          "velocity": 38,
          "start": 0.8385416666666572,
          "end": 1.2916666666666572,
          "duration": 0.453125
        },
        {
          "pitch": 62,
          "velocity": 57,
          "start": 1.0026041666666572,
          "end": 1.2369791666666572,
          "duration": 0.234375
        },
        {
          "pitch": 57,
          "velocity": 51,
          "start": 1.2395833333333286,
          "end": 1.4166666666666572,
          "duration": 0.1770833333333286
        },
        {
          "pitch": 62,
          "velocity": 60,
          "start": 1.4583333333333286,
          "end": 1.6640625,
          "duration": 0.2057291666666714
        },
        {
          "pitch": 31,
          "velocity": 42,
          "start": 1.5104166666666572,
          "end": 1.5755208333333286,
          "duration": 0.0651041666666714
        },
        {
          "pitch": 43,
          "velocity": 41,
          "start": 1.5338541666666572,
          "end": 1.6875,
          "duration": 0.1536458333333428
        },
        {
          "pitch": 57,
          "velocity": 50,
          "start": 1.7265625,
          "end": 1.8932291666666572,
          "duration": 0.1666666666666572
        },
        {
          "pitch": 62,
          "velocity": 60,
          "start": 1.9479166666666572,
          "end": 2.125,
          "duration": 0.1770833333333428
        },
        {
          "pitch": 31,
          "velocity": 44,
          "start": 1.9583333333333286,
          "end": 2.3984375,
          "duration": 0.4401041666666714
        },
        {
          "pitch": 43,
          "velocity": 35,
          "start": 1.984375,
          "end": 2.4270833333333286,
          "duration": 0.4427083333333286
        }
      ],
      "metadata": {
        "note_count": 17,
        "pitch_range": 31,
        "avg_velocity": 49,
        "note_density": 8.5,
        "duration": 2.0,
        "lowest_pitch": 31,
        "highest_pitch": 62
      },
      "label": "UNLABELED",
      "label_description": "",
      "is_labeled": false
    },
    {
      "id": "2025-08-03T174139Z_0_53_46a8dd04",
      "source_file": "2025-08-03T174139Z",
      "instrument_idx": 0,
      "bar_idx": 53,
      "pitch_hash": "46a8dd04",
      "notes": [
        {
          "pitch": 57,
          "velocity": 48,
          "start": 0.1979166666666572,
          "end": 0.34375,
          "duration": 0.1458333333333428
        },
        {
          "pitch": 62,
          "velocity": 54,
          "start": 0.4557291666666572,
          "end": 0.6458333333333286,
          "duration": 0.1901041666666714
        },
        {
          "pitch": 57,
          "velocity": 53,
          "start": 0.7213541666666572,
          "end": 0.8203125,
          "duration": 0.09895833333334281
        },
        {
          "pitch": 31,
          "velocity": 45,
          "start": 0.7265625,
          "end": 1.2291666666666572,
          "duration": 0.5026041666666572
        },
        {
          "pitch": 43,
          "velocity": 42,
          "start": 0.7421875,
          "end": 1.2213541666666572,
          "duration": 0.4791666666666572
        },
        {
          "pitch": 62,
          "velocity": 60,
          "start": 0.9609375,
          "end": 1.1119791666666572,
          "duration": 0.1510416666666572
        },
        {
          "pitch": 57,
          "velocity": 55,
          "start": 1.2161458333333286,
          "end": 1.3359375,
          "duration": 0.1197916666666714
        },
        {
          "pitch": 31,
          "velocity": 60,
          "start": 1.4348958333333286,
          "end": 1.5026041666666572,
          "duration": 0.0677083333333286
        },
        {
          "pitch": 62,
          "velocity": 57,
          "start": 1.4453125,
          "end": 1.6145833333333286,
          "duration": 0.1692708333333286
        },
        {
          "pitch": 57,
          "velocity": 62,
          "start": 1.6744791666666572,
          "end": 2.104166666666657,
          "duration": 0.4296875
        },
        {
          "pitch": 64,
          "velocity": 60,
          "start": 1.9140625,
          "end": 2.0677083333333286,
          "duration": 0.1536458333333286
        },
        {
          "pitch": 50,
          "velocity": 52,
          "start": 1.9140625,
          "end": 2.440104166666657,
          "duration": 0.5260416666666572
        },
        {
          "pitch": 38,
          "velocity": 47,
          "start": 1.921875,
          "end": 2.40625,
          "duration": 0.484375
        }
      ],
      "metadata": {
        "note_count": 13,
        "pitch_range": 33,
        "avg_velocity": 53,
        "note_density": 6.5,
        "duration": 2.0,
        "lowest_pitch": 31,
        "highest_pitch": 64
      },
      "label": "UNLABELED",
      "label_description": "",
      "is_labeled": false
    },
    {
      "id": "2025-08-03T174139Z_0_54_992b9c0a",
      "source_file": "2025-08-03T174139Z",
      "instrument_idx": 0,
      "bar_idx": 54,
      "pitch_hash": "992b9c0a",
      "notes": [
        {
          "pitch": 66,
          "velocity": 60,
          "start": 0.1484375,
          "end": 0.2682291666666572,
          "duration": 0.11979166666665719
        },
        {
          "pitch": 57,
          "velocity": 56,
          "start": 0.359375,
          "end": 0.5598958333333286,
          "duration": 0.2005208333333286
        },
        {
          "pitch": 66,
          "velocity": 67,
          "start": 0.5963541666666572,
          "end": 0.8098958333333286,
          "duration": 0.2135416666666714
        },
        {
          "pitch": 38,
          "velocity": 54,
          "start": 0.6041666666666572,
          "end": 1.1302083333333286,
          "duration": 0.5260416666666714
        },
        {
          "pitch": 50,
          "velocity": 50,
          "start": 0.6302083333333286,
          "end": 1.1588541666666572,
          "duration": 0.5286458333333286
        },
        {
          "pitch": 57,
          "velocity": 60,
          "start": 0.8177083333333286,
          "end": 0.96875,
          "duration": 0.1510416666666714
        },
        {
          "pitch": 62,
          "velocity": 63,
          "start": 1.0729166666666572,
          "end": 1.3151041666666572,
          "duration": 0.2421875
        },
        {
          "pitch": 38,
          "velocity": 40,
          "start": 1.2916666666666572,
          "end": 1.5625,
          "duration": 0.2708333333333428
        },
        {
          "pitch": 50,
          "velocity": 51,
          "start": 1.3046875,
          "end": 1.5546875,
          "duration": 0.25
        },
        {
          "pitch": 57,
          "velocity": 53,
          "start": 1.5208333333333286,
          "end": 1.671875,
          "duration": 0.1510416666666714
        },
        {
          "pitch": 62,
          "velocity": 68,
          "start": 1.5364583333333286,
          "end": 1.7786458333333286,
          "duration": 0.2421875
        },
        {
          "pitch": 50,
          "velocity": 53,
          "start": 1.7760416666666572,
          "end": 2.1328125,
          "duration": 0.3567708333333428
        },
        {
          "pitch": 38,
          "velocity": 48,
          "start": 1.7786458333333286,
          "end": 2.484375,
          "duration": 0.7057291666666714
        },
        {
          "pitch": 64,
          "velocity": 69,
          "start": 1.9765625,
          "end": 2.171875,
          "duration": 0.1953125
        }
      ],
      "metadata": {
        "note_count": 14,
        "pitch_range": 28,
        "avg_velocity": 56,
        "note_density": 7.0,
        "duration": 2.0,
        "lowest_pitch": 38,
        "highest_pitch": 66
      },
      "label": "UNLABELED",
      "label_description": "",
      "is_labeled": false
    },
    {
      "id": "2025-08-03T174139Z_0_55_aa913f51",
      "source_file": "2025-08-03T174139Z",
      "instrument_idx": 0,
      "bar_idx": 55,
      "pitch_hash": "aa913f51",
      "notes": [
        {
          "pitch": 57,
          "velocity": 45,
          "start": 0.0,
          "end": 0.1171875,
          "duration": 0.1171875
        },
        {
          "pitch": 50,
          "velocity": 53,
          "start": 0.2447916666666572,
          "end": 0.4166666666666572,
          "duration": 0.171875
        },
        {
          "pitch": 62,
          "velocity": 72,
          "start": 0.4713541666666572,
          "end": 0.75,
          "duration": 0.2786458333333428
        },
        {
          "pitch": 57,
          "velocity": 53,
          "start": 0.5104166666666572,
          "end": 0.6901041666666572,
          "duration": 0.1796875
        },
        {
          "pitch": 38,
          "velocity": 45,
          "start": 0.703125,
          "end": 1.0286458333333286,
          "duration": 0.3255208333333286
        },
        {
          "pitch": 50,
          "velocity": 50,
          "start": 0.7109375,
          "end": 1.0052083333333286,
          "duration": 0.2942708333333286
        },
        {
          "pitch": 69,
          "velocity": 80,
          "start": 0.9401041666666572,
          "end": 1.1640625,
          "duration": 0.2239583333333428
        },
        {
          "pitch": 50,
          "velocity": 62,
          "start": 1.1744791666666572,
          "end": 1.2421875,
          "duration": 0.06770833333334281
        },
        {
          "pitch": 38,
          "velocity": 45,
          "start": 1.1796875,
          "end": 1.3177083333333286,
          "duration": 0.1380208333333286
        },
        {
          "pitch": 57,
          "velocity": 51,
          "start": 1.3958333333333286,
          "end": 1.5598958333333286,
          "duration": 0.1640625
        },
        {
          "pitch": 66,
          "velocity": 52,
          "start": 1.4114583333333286,
          "end": 1.4947916666666572,
          "duration": 0.0833333333333286
        },
        {
          "pitch": 45,
          "velocity": 47,
          "start": 1.6223958333333286,
          "end": 2.1145833333333286,
          "duration": 0.4921875
        },
        {
          "pitch": 33,
          "velocity": 45,
          "start": 1.6223958333333286,
          "end": 2.1328125,
          "duration": 0.5104166666666714
        },
        {
          "pitch": 66,
          "velocity": 65,
          "start": 1.6510416666666572,
          "end": 1.8333333333333286,
          "duration": 0.1822916666666714
        },
        {
          "pitch": 57,
          "velocity": 54,
          "start": 1.8333333333333286,
          "end": 2.0208333333333286,
          "duration": 0.1875
        }
      ],
      "metadata": {
        "note_count": 15,
        "pitch_range": 36,
        "avg_velocity": 54,
        "note_density": 7.5,
        "duration": 2.0,
        "lowest_pitch": 33,
        "highest_pitch": 69
      },
      "label": "UNLABELED",
      "label_description": "",
      "is_labeled": false
    },
    {
      "id": "2025-08-03T174139Z_0_56_fab34121",
      "source_file": "2025-08-03T174139Z",
      "instrument_idx": 0,
      "bar_idx": 56,
      "pitch_hash": "fab34121",
      "notes": [
        {
          "pitch": 64,
          "velocity": 56,
          "start": 0.10416666666665719,
          "end": 0.2734375,
          "duration": 0.1692708333333428
        },
        {
          "pitch": 45,
          "velocity": 44,
          "start": 0.3385416666666572,
          "end": 0.7942708333333286,
          "duration": 0.4557291666666714
        },
        {
          "pitch": 33,
          "velocity": 45,
          "start": 0.3385416666666572,
          "end": 0.8411458333333286,
          "duration": 0.5026041666666714
        },
        {
          "pitch": 64,
          "velocity": 54,
          "start": 0.5494791666666572,
          "end": 0.7838541666666572,
          "duration": 0.234375
        },
        {
          "pitch": 57,
          "velocity": 50,
          "start": 0.5520833333333286,
          "end": 0.6588541666666572,
          "duration": 0.1067708333333286
        },
        {
          "pitch": 57,
          "velocity": 52,
          "start": 0.7994791666666572,
          "end": 0.9270833333333286,
          "duration": 0.1276041666666714
        },
        {
          "pitch": 64,
          "velocity": 71,
          "start": 1.0234375,
          "end": 1.1588541666666572,
          "duration": 0.1354166666666572
        },
        {
          "pitch": 33,
          "velocity": 49,
          "start": 1.0442708333333286,
          "end": 1.2760416666666572,
          "duration": 0.2317708333333286
        },
        {
          "pitch": 45,
          "velocity": 45,
          "start": 1.0833333333333286,
          "end": 1.2760416666666572,
          "duration": 0.1927083333333286
        },
        {
          "pitch": 57,
          "velocity": 51,
          "start": 1.234375,
          "end": 1.4010416666666572,
          "duration": 0.1666666666666572
        },
        {
          "pitch": 64,
          "velocity": 65,
          "start": 1.4791666666666572,
          "end": 1.6302083333333286,
          "duration": 0.1510416666666714
        },
        {
          "pitch": 33,
          "velocity": 39,
          "start": 1.5052083333333286,
          "end": 1.8020833333333286,
          "duration": 0.296875
        },
        {
          "pitch": 45,
          "velocity": 48,
          "start": 1.515625,
          "end": 1.8177083333333286,
          "duration": 0.3020833333333286
        },
        {
          "pitch": 57,
          "velocity": 41,
          "start": 1.7083333333333286,
          "end": 1.8203125,
          "duration": 0.1119791666666714
        },
        {
          "pitch": 62,
          "velocity": 61,
          "start": 1.9270833333333286,
          "end": 2.088541666666657,
          "duration": 0.1614583333333286
        }
      ],
      "metadata": {
        "note_count": 15,
        "pitch_range": 31,
        "avg_velocity": 51,
        "note_density": 7.5,
        "duration": 2.0,
        "lowest_pitch": 33,
        "highest_pitch": 64
      },
      "label": "UNLABELED",
      "label_description": "",
      "is_labeled": false
    },
    {
      "id": "2025-08-03T174139Z_0_57_8108cf68",
      "source_file": "2025-08-03T174139Z",
      "instrument_idx": 0,
      "bar_idx": 57,
      "pitch_hash": "8108cf68",
      "notes": [
        {
          "pitch": 33,
          "velocity": 45,
          "start": 0.1328125,
          "end": 0.4114583333333286,
          "duration": 0.2786458333333286
        },
        {
          "pitch": 45,
          "velocity": 45,
          "start": 0.1432291666666572,
          "end": 0.453125,
          "duration": 0.3098958333333428
        },
        {
          "pitch": 62,
          "velocity": 65,
          "start": 0.3802083333333286,
          "end": 0.5651041666666572,
          "duration": 0.1848958333333286
        },
        {
          "pitch": 57,
          "velocity": 58,
          "start": 0.3880208333333286,
          "end": 0.4739583333333286,
          "duration": 0.0859375
        },
        {
          "pitch": 57,
          "velocity": 63,
          "start": 0.6223958333333286,
          "end": 0.7317708333333286,
          "duration": 0.109375
        },
        {
          "pitch": 62,
          "velocity": 75,
          "start": 0.828125,
          "end": 0.9609375,
          "duration": 0.1328125
        },
        {
          "pitch": 33,
          "velocity": 52,
          "start": 0.8541666666666572,
          "end": 0.9114583333333286,
          "duration": 0.057291666666671404
        },
        {
          "pitch": 45,
          "velocity": 49,
          "start": 0.8619791666666572,
          "end": 0.9401041666666572,
          "duration": 0.078125
        },
        {
          "pitch": 57,
          "velocity": 57,
          "start": 1.046875,
          "end": 1.1510416666666572,
          "duration": 0.10416666666665719
        },
        {
          "pitch": 64,
          "velocity": 60,
          "start": 1.0651041666666572,
          "end": 1.1432291666666572,
          "duration": 0.078125
        },
        {
          "pitch": 50,
          "velocity": 50,
          "start": 1.2630208333333286,
          "end": 1.7552083333333286,
          "duration": 0.4921875
        },
        {
          "pitch": 66,
          "velocity": 87,
          "start": 1.2786458333333286,
          "end": 1.3828125,
          "duration": 0.1041666666666714
        },
        {
          "pitch": 38,
          "velocity": 26,
          "start": 1.3307291666666572,
          "end": 1.7786458333333286,
          "duration": 0.4479166666666714
        },
        {
          "pitch": 69,
          "velocity": 74,
          "start": 1.4947916666666572,
          "end": 1.5885416666666572,
          "duration": 0.09375
        },
        {
          "pitch": 57,
          "velocity": 57,
          "start": 1.7291666666666572,
          "end": 1.7864583333333286,
          "duration": 0.057291666666671404
        },
        {
          "pitch": 69,
          "velocity": 52,
          "start": 1.7369791666666572,
          "end": 1.7916666666666572,
          "duration": 0.0546875
        },
        {
          "pitch": 69,
          "velocity": 78,
          "start": 1.9322916666666572,
          "end": 2.057291666666657,
          "duration": 0.125
        },
        {
          "pitch": 38,
          "velocity": 50,
          "start": 1.9427083333333286,
          "end": 2.4921875,
          "duration": 0.5494791666666714
        },
        {
          "pitch": 50,
          "velocity": 52,
          "start": 1.9713541666666572,
          "end": 2.5,
          "duration": 0.5286458333333428
        }
      ],
      "metadata": {
        "note_count": 19,
        "pitch_range": 36,
        "avg_velocity": 57,
        "note_density": 9.5,
        "duration": 2.0,
        "lowest_pitch": 33,
        "highest_pitch": 69
      },
      "label": "UNLABELED",
      "label_description": "",
      "is_labeled": false
    },
    {
      "id": "2025-08-03T174139Z_0_58_b8273a9a",
      "source_file": "2025-08-03T174139Z",
      "instrument_idx": 0,
      "bar_idx": 58,
      "pitch_hash": "b8273a9a",
      "notes": [
        {
          "pitch": 69,
          "velocity": 57,
          "start": 0.1692708333333286,
          "end": 0.25,
          "duration": 0.0807291666666714
        },
        {
          "pitch": 57,
          "velocity": 65,
          "start": 0.1796875,
          "end": 0.234375,
          "duration": 0.0546875
        },
        {
          "pitch": 57,
          "velocity": 74,
          "start": 0.4036458333333286,
          "end": 0.5208333333333286,
          "duration": 0.1171875
        },
        {
          "pitch": 62,
          "velocity": 57,
          "start": 0.6354166666666572,
          "end": 0.75,
          "duration": 0.11458333333334281
        },
        {
          "pitch": 38,
          "velocity": 47,
          "start": 0.7135416666666572,
          "end": 0.9140625,
          "duration": 0.2005208333333428
        },
        {
          "pitch": 50,
          "velocity": 47,
          "start": 0.7421875,
          "end": 0.9166666666666572,
          "duration": 0.1744791666666572
        },
        {
          "pitch": 57,
          "velocity": 56,
          "start": 0.9140625,
          "end": 0.9713541666666572,
          "duration": 0.05729166666665719
        },
        {
          "pitch": 69,
          "velocity": 83,
          "start": 1.1119791666666572,
          "end": 1.2317708333333286,
          "duration": 0.1197916666666714
        },
        {
          "pitch": 38,
          "velocity": 54,
          "start": 1.125,
          "end": 1.5494791666666572,
          "duration": 0.4244791666666572
        },
        {
          "pitch": 50,
          "velocity": 51,
          "start": 1.140625,
          "end": 1.5677083333333286,
          "duration": 0.4270833333333286
        },
        {
          "pitch": 57,
          "velocity": 44,
          "start": 1.359375,
          "end": 1.4375,
          "duration": 0.078125
        },
        {
          "pitch": 69,
          "velocity": 80,
          "start": 1.5598958333333286,
          "end": 1.671875,
          "duration": 0.1119791666666714
        },
        {
          "pitch": 57,
          "velocity": 59,
          "start": 1.5885416666666572,
          "end": 1.6692708333333286,
          "duration": 0.0807291666666714
        },
        {
          "pitch": 38,
          "velocity": 52,
          "start": 1.78125,
          "end": 2.046875,
          "duration": 0.265625
        },
        {
          "pitch": 50,
          "velocity": 52,
          "start": 1.7864583333333286,
          "end": 2.0625,
          "duration": 0.2760416666666714
        }
      ],
      "metadata": {
        "note_count": 15,
        "pitch_range": 31,
        "avg_velocity": 58,
        "note_density": 7.5,
        "duration": 2.0,
        "lowest_pitch": 38,
        "highest_pitch": 69
      },
      "label": "UNLABELED",
      "label_description": "",
      "is_labeled": false
    },
    {
      "id": "2025-08-03T174139Z_0_59_206ea915",
      "source_file": "2025-08-03T174139Z",
      "instrument_idx": 0,
      "bar_idx": 59,
      "pitch_hash": "206ea915",
      "notes": [
        {
          "pitch": 69,
          "velocity": 78,
          "start": 0.005208333333328596,
          "end": 0.109375,
          "duration": 0.1041666666666714
        },
        {
          "pitch": 57,
          "velocity": 63,
          "start": 0.010416666666657193,
          "end": 0.0859375,
          "duration": 0.07552083333334281
        },
        {
          "pitch": 66,
          "velocity": 80,
          "start": 0.4401041666666572,
          "end": 0.5494791666666572,
          "duration": 0.109375
        },
        {
          "pitch": 38,
          "velocity": 58,
          "start": 0.4505208333333286,
          "end": 0.5703125,
          "duration": 0.1197916666666714
        },
        {
          "pitch": 50,
          "velocity": 57,
          "start": 0.4557291666666572,
          "end": 0.5234375,
          "duration": 0.06770833333334281
        },
        {
          "pitch": 64,
          "velocity": 62,
          "start": 0.671875,
          "end": 0.7604166666666572,
          "duration": 0.08854166666665719
        },
        {
          "pitch": 43,
          "velocity": 50,
          "start": 0.8828125,
          "end": 1.3489583333333286,
          "duration": 0.4661458333333286
        },
        {
          "pitch": 64,
          "velocity": 72,
          "start": 0.8854166666666572,
          "end": 1.03125,
          "duration": 0.1458333333333428
        },
        {
          "pitch": 31,
          "velocity": 41,
          "start": 0.9010416666666572,
          "end": 1.3307291666666572,
          "duration": 0.4296875
        },
        {
          "pitch": 66,
          "velocity": 62,
          "start": 1.09375,
          "end": 1.21875,
          "duration": 0.125
        },
        {
          "pitch": 57,
          "velocity": 50,
          "start": 1.3203125,
          "end": 1.3984375,
          "duration": 0.078125
        },
        {
          "pitch": 62,
          "velocity": 73,
          "start": 1.5286458333333286,
          "end": 1.65625,
          "duration": 0.1276041666666714
        },
        {
          "pitch": 57,
          "velocity": 66,
          "start": 1.5390625,
          "end": 1.625,
          "duration": 0.0859375
        },
        {
          "pitch": 31,
          "velocity": 54,
          "start": 1.5390625,
          "end": 2.0078125,
          "duration": 0.46875
        },
        {
          "pitch": 43,
          "velocity": 48,
          "start": 1.5416666666666572,
          "end": 1.9661458333333286,
          "duration": 0.4244791666666714
        },
        {
          "pitch": 57,
          "velocity": 52,
          "start": 1.9817708333333286,
          "end": 2.09375,
          "duration": 0.1119791666666714
        }
      ],
      "metadata": {
        "note_count": 16,
        "pitch_range": 38,
        "avg_velocity": 60,
        "note_density": 8.0,
        "duration": 2.0,
        "lowest_pitch": 31,
        "highest_pitch": 69
      },
      "label": "UNLABELED",
      "label_description": "",
      "is_labeled": false
    },
    {
      "id": "2025-08-03T174139Z_0_60_996e6caf",
      "source_file": "2025-08-03T174139Z",
      "instrument_idx": 0,
      "bar_idx": 60,
      "pitch_hash": "996e6caf",
      "notes": [
        {
          "pitch": 62,
          "velocity": 31,
          "start": 0.015625,
          "end": 0.1015625,
          "duration": 0.0859375
        },
        {
          "pitch": 31,
          "velocity": 34,
          "start": 0.1640625,
          "end": 0.4635416666666572,
          "duration": 0.2994791666666572
        },
        {
          "pitch": 43,
          "velocity": 48,
          "start": 0.2161458333333286,
          "end": 0.4270833333333286,
          "duration": 0.2109375
        },
        {
          "pitch": 62,
          "velocity": 60,
          "start": 0.4296875,
          "end": 0.5963541666666572,
          "duration": 0.1666666666666572
        },
        {
          "pitch": 57,
          "velocity": 47,
          "start": 0.4609375,
          "end": 0.5520833333333286,
          "duration": 0.0911458333333286
        },
        {
          "pitch": 31,
          "velocity": 42,
          "start": 0.625,
          "end": 1.1953125,
          "duration": 0.5703125
        },
        {
          "pitch": 43,
          "velocity": 48,
          "start": 0.6666666666666572,
          "end": 1.1588541666666572,
          "duration": 0.4921875
        },
        {
          "pitch": 57,
          "velocity": 57,
          "start": 0.9192708333333286,
          "end": 0.9947916666666572,
          "duration": 0.0755208333333286
        },
        {
          "pitch": 62,
          "velocity": 64,
          "start": 1.1328125,
          "end": 1.2526041666666572,
          "duration": 0.11979166666665719
        },
        {
          "pitch": 31,
          "velocity": 46,
          "start": 1.3411458333333286,
          "end": 1.6979166666666572,
          "duration": 0.3567708333333286
        },
        {
          "pitch": 43,
          "velocity": 50,
          "start": 1.3697916666666572,
          "end": 1.6666666666666572,
          "duration": 0.296875
        },
        {
          "pitch": 62,
          "velocity": 70,
          "start": 1.5833333333333286,
          "end": 1.671875,
          "duration": 0.0885416666666714
        },
        {
          "pitch": 57,
          "velocity": 64,
          "start": 1.7890625,
          "end": 1.8984375,
          "duration": 0.109375
        }
      ],
      "metadata": {
        "note_count": 13,
        "pitch_range": 31,
        "avg_velocity": 50,
        "note_density": 6.5,
        "duration": 2.0,
        "lowest_pitch": 31,
        "highest_pitch": 62
      },
      "label": "UNLABELED",
      "label_description": "",
      "is_labeled": false
    },
    {
      "id": "2025-08-03T174139Z_0_61_3bd1ced1",
      "source_file": "2025-08-03T174139Z",
      "instrument_idx": 0,
      "bar_idx": 61,
      "pitch_hash": "3bd1ced1",
      "notes": [
        {
          "pitch": 43,
          "velocity": 46,
          "start": 0.0078125,
          "end": 0.0833333333333286,
          "duration": 0.0755208333333286
        },
        {
          "pitch": 62,
          "velocity": 69,
          "start": 0.0078125,
          "end": 0.1171875,
          "duration": 0.109375
        },
        {
          "pitch": 57,
          "velocity": 53,
          "start": 0.2265625,
          "end": 0.3046875,
          "duration": 0.078125
        },
        {
          "pitch": 64,
          "velocity": 69,
          "start": 0.2265625,
          "end": 0.3072916666666572,
          "duration": 0.08072916666665719
        },
        {
          "pitch": 50,
          "velocity": 57,
          "start": 0.421875,
          "end": 0.9427083333333286,
          "duration": 0.5208333333333286
        },
        {
          "pitch": 38,
          "velocity": 61,
          "start": 0.4244791666666572,
          "end": 0.9166666666666572,
          "duration": 0.4921875
        },
        {
          "pitch": 66,
          "velocity": 83,
          "start": 0.453125,
          "end": 0.6302083333333286,
          "duration": 0.1770833333333286
        },
        {
          "pitch": 57,
          "velocity": 59,
          "start": 0.6796875,
          "end": 0.8255208333333286,
          "duration": 0.1458333333333286
        },
        {
          "pitch": 66,
          "velocity": 77,
          "start": 0.8854166666666572,
          "end": 1.0442708333333286,
          "duration": 0.1588541666666714
        },
        {
          "pitch": 57,
          "velocity": 60,
          "start": 1.1223958333333286,
          "end": 1.2005208333333286,
          "duration": 0.078125
        },
        {
          "pitch": 38,
          "velocity": 50,
          "start": 1.1354166666666572,
          "end": 1.578125,
          "duration": 0.4427083333333428
        },
        {
          "pitch": 50,
          "velocity": 51,
          "start": 1.1484375,
          "end": 1.5442708333333286,
          "duration": 0.3958333333333286
        },
        {
          "pitch": 64,
          "velocity": 75,
          "start": 1.3411458333333286,
          "end": 1.4635416666666572,
          "duration": 0.1223958333333286
        },
        {
          "pitch": 62,
          "velocity": 73,
          "start": 1.5651041666666572,
          "end": 1.7109375,
          "duration": 0.1458333333333428
        },
        {
          "pitch": 38,
          "velocity": 63,
          "start": 1.7838541666666572,
          "end": 1.921875,
          "duration": 0.1380208333333428
        },
        {
          "pitch": 50,
          "velocity": 59,
          "start": 1.7916666666666572,
          "end": 1.8515625,
          "duration": 0.05989583333334281
        },
        {
          "pitch": 64,
          "velocity": 69,
          "start": 1.9739583333333286,
          "end": 2.3802083333333286,
          "duration": 0.40625
        }
      ],
      "metadata": {
        "note_count": 17,
        "pitch_range": 28,
        "avg_velocity": 63,
        "note_density": 8.5,
        "duration": 2.0,
        "lowest_pitch": 38,
        "highest_pitch": 66
      },
      "label": "UNLABELED",
      "label_description": "",
      "is_labeled": false
    },
    {
      "id": "2025-08-03T174139Z_0_62_5cba2b7f",
      "source_file": "2025-08-03T174139Z",
      "instrument_idx": 0,
      "bar_idx": 62,
      "pitch_hash": "5cba2b7f",
      "notes": [
        {
          "pitch": 45,
          "velocity": 60,
          "start": 0.1822916666666572,
          "end": 0.7005208333333286,
          "duration": 0.5182291666666714
        },
        {
          "pitch": 33,
          "velocity": 58,
          "start": 0.1848958333333286,
          "end": 0.71875,
          "duration": 0.5338541666666714
        },
        {
          "pitch": 57,
          "velocity": 66,
          "start": 0.3932291666666572,
          "end": 0.5208333333333286,
          "duration": 0.1276041666666714
        },
        {
          "pitch": 64,
          "velocity": 50,
          "start": 0.6510416666666572,
          "end": 0.7838541666666572,
          "duration": 0.1328125
        },
        {
          "pitch": 57,
          "velocity": 36,
          "start": 0.6770833333333286,
          "end": 0.7447916666666572,
          "duration": 0.0677083333333286
        },
        {
          "pitch": 33,
          "velocity": 57,
          "start": 0.8177083333333286,
          "end": 1.4140625,
          "duration": 0.5963541666666714
        },
        {
          "pitch": 45,
          "velocity": 51,
          "start": 0.828125,
          "end": 1.203125,
          "duration": 0.375
        },
        {
          "pitch": 67,
          "velocity": 76,
          "start": 1.0677083333333286,
          "end": 1.2135416666666572,
          "duration": 0.1458333333333286
        },
        {
          "pitch": 57,
          "velocity": 55,
          "start": 1.28125,
          "end": 1.3984375,
          "duration": 0.1171875
        },
        {
          "pitch": 45,
          "velocity": 55,
          "start": 1.3020833333333286,
          "end": 1.3671875,
          "duration": 0.0651041666666714
        },
        {
          "pitch": 66,
          "velocity": 80,
          "start": 1.4765625,
          "end": 1.625,
          "duration": 0.1484375
        },
        {
          "pitch": 33,
          "velocity": 47,
          "start": 1.5,
          "end": 1.5651041666666572,
          "duration": 0.06510416666665719
        },
        {
          "pitch": 45,
          "velocity": 44,
          "start": 1.5104166666666572,
          "end": 1.5729166666666572,
          "duration": 0.0625
        },
        {
          "pitch": 57,
          "velocity": 56,
          "start": 1.6901041666666572,
          "end": 1.7994791666666572,
          "duration": 0.109375
        },
        {
          "pitch": 64,
          "velocity": 65,
          "start": 1.9088541666666572,
          "end": 2.1770833333333286,
          "duration": 0.2682291666666714
        },
        {
          "pitch": 43,
          "velocity": 51,
          "start": 1.9088541666666572,
          "end": 2.3567708333333286,
          "duration": 0.4479166666666714
        },
        {
          "pitch": 31,
          "velocity": 54,
          "start": 1.9088541666666572,
          "end": 2.359375,
          "duration": 0.4505208333333428
        }
      ],
      "metadata": {
        "note_count": 17,
        "pitch_range": 36,
        "avg_velocity": 56,
        "note_density": 8.5,
        "duration": 2.0,
        "lowest_pitch": 31,
        "highest_pitch": 67
      },
      "label": "UNLABELED",
      "label_description": "",
      "is_labeled": false
    },
    {
      "id": "2025-08-03T174139Z_0_63_eaab4d21",
      "source_file": "2025-08-03T174139Z",
      "instrument_idx": 0,
      "bar_idx": 63,
      "pitch_hash": "eaab4d21",
      "notes": [
        {
          "pitch": 62,
          "velocity": 66,
          "start": 0.3385416666666572,
          "end": 0.5026041666666572,
          "duration": 0.1640625
        },
        {
          "pitch": 57,
          "velocity": 57,
          "start": 0.359375,
          "end": 0.4348958333333286,
          "duration": 0.0755208333333286
        },
        {
          "pitch": 43,
          "velocity": 51,
          "start": 0.5625,
          "end": 0.953125,
          "duration": 0.390625
        },
        {
          "pitch": 31,
          "velocity": 50,
          "start": 0.5729166666666572,
          "end": 1.0416666666666572,
          "duration": 0.46875
        },
        {
          "pitch": 62,
          "velocity": 69,
          "start": 0.7916666666666572,
          "end": 1.0130208333333286,
          "duration": 0.2213541666666714
        },
        {
          "pitch": 57,
          "velocity": 60,
          "start": 0.7942708333333286,
          "end": 0.8541666666666572,
          "duration": 0.059895833333328596
        },
        {
          "pitch": 57,
          "velocity": 53,
          "start": 1.03125,
          "end": 1.0963541666666572,
          "duration": 0.06510416666665719
        },
        {
          "pitch": 31,
          "velocity": 47,
          "start": 1.2005208333333286,
          "end": 1.2604166666666572,
          "duration": 0.059895833333328596
        },
        {
          "pitch": 62,
          "velocity": 69,
          "start": 1.2421875,
          "end": 1.3645833333333286,
          "duration": 0.1223958333333286
        },
        {
          "pitch": 43,
          "velocity": 37,
          "start": 1.2604166666666572,
          "end": 1.3307291666666572,
          "duration": 0.0703125
        },
        {
          "pitch": 57,
          "velocity": 75,
          "start": 1.4427083333333286,
          "end": 1.6510416666666572,
          "duration": 0.2083333333333286
        },
        {
          "pitch": 64,
          "velocity": 83,
          "start": 1.4453125,
          "end": 1.7161458333333286,
          "duration": 0.2708333333333286
        },
        {
          "pitch": 45,
          "velocity": 72,
          "start": 1.4557291666666572,
          "end": 1.8958333333333286,
          "duration": 0.4401041666666714
        },
        {
          "pitch": 33,
          "velocity": 48,
          "start": 1.4739583333333286,
          "end": 1.5755208333333286,
          "duration": 0.1015625
        },
        {
          "pitch": 57,
          "velocity": 80,
          "start": 1.8541666666666572,
          "end": 1.9453125,
          "duration": 0.09114583333334281
        },
        {
          "pitch": 64,
          "velocity": 60,
          "start": 1.8880208333333286,
          "end": 1.9427083333333286,
          "duration": 0.0546875
        }
      ],
      "metadata": {
        "note_count": 16,
        "pitch_range": 33,
        "avg_velocity": 61,
        "note_density": 8.0,
        "duration": 2.0,
        "lowest_pitch": 31,
        "highest_pitch": 64
      },
      "label": "UNLABELED",
      "label_description": "",
      "is_labeled": false
    },
    {
      "id": "2025-08-03T174139Z_0_64_5dfc5158",
      "source_file": "2025-08-03T174139Z",
      "instrument_idx": 0,
      "bar_idx": 64,
      "pitch_hash": "5dfc5158",
      "notes": [
        {
          "pitch": 33,
          "velocity": 61,
          "start": 0.0625,
          "end": 0.6041666666666572,
          "duration": 0.5416666666666572
        },
        {
          "pitch": 64,
          "velocity": 71,
          "start": 0.06770833333331439,
          "end": 0.1666666666666572,
          "duration": 0.09895833333334281
        },
        {
          "pitch": 45,
          "velocity": 54,
          "start": 0.06770833333331439,
          "end": 0.5807291666666572,
          "duration": 0.5130208333333428
        },
        {
          "pitch": 57,
          "velocity": 73,
          "start": 0.0703125,
          "end": 0.1510416666666572,
          "duration": 0.08072916666665719
        },
        {
          "pitch": 64,
          "velocity": 77,
          "start": 0.25,
          "end": 0.34375,
          "duration": 0.09375
        },
        {
          "pitch": 57,
          "velocity": 73,
          "start": 0.2578125,
          "end": 0.3333333333333144,
          "duration": 0.07552083333331439
        },
        {
          "pitch": 64,
          "velocity": 81,
          "start": 0.4635416666666572,
          "end": 0.5807291666666572,
          "duration": 0.1171875
        },
        {
          "pitch": 57,
          "velocity": 92,
          "start": 0.46875,
          "end": 0.5572916666666572,
          "duration": 0.08854166666665719
        },
        {
          "pitch": 62,
          "velocity": 86,
          "start": 0.6744791666666572,
          "end": 0.7994791666666572,
          "duration": 0.125
        },
        {
          "pitch": 64,
          "velocity": 37,
          "start": 0.7161458333333144,
          "end": 0.765625,
          "duration": 0.049479166666685614
        },
        {
          "pitch": 57,
          "velocity": 52,
          "start": 0.7161458333333144,
          "end": 0.7734375,
          "duration": 0.057291666666685614
        },
        {
          "pitch": 33,
          "velocity": 66,
          "start": 0.8541666666666572,
          "end": 0.8984375,
          "duration": 0.04427083333334281
        },
        {
          "pitch": 45,
          "velocity": 59,
          "start": 0.8671875,
          "end": 0.9427083333333144,
          "duration": 0.07552083333331439
        },
        {
          "pitch": 62,
          "velocity": 73,
          "start": 1.0572916666666572,
          "end": 1.1640625,
          "duration": 0.10677083333334281
        },
        {
          "pitch": 57,
          "velocity": 58,
          "start": 1.078125,
          "end": 1.1354166666666572,
          "duration": 0.05729166666665719
        },
        {
          "pitch": 38,
          "velocity": 61,
          "start": 1.265625,
          "end": 1.7473958333333144,
          "duration": 0.4817708333333144
        },
        {
          "pitch": 50,
          "velocity": 57,
          "start": 1.2708333333333144,
          "end": 1.7369791666666572,
          "duration": 0.4661458333333428
        },
        {
          "pitch": 66,
          "velocity": 83,
          "start": 1.2734375,
          "end": 1.4010416666666572,
          "duration": 0.1276041666666572
        },
        {
          "pitch": 57,
          "velocity": 65,
          "start": 1.28125,
          "end": 1.3541666666666572,
          "duration": 0.07291666666665719
        },
        {
          "pitch": 62,
          "velocity": 44,
          "start": 1.3046875,
          "end": 1.3854166666666572,
          "duration": 0.08072916666665719
        },
        {
          "pitch": 69,
          "velocity": 75,
          "start": 1.4609375,
          "end": 1.578125,
          "duration": 0.1171875
        },
        {
          "pitch": 66,
          "velocity": 53,
          "start": 1.4921875,
          "end": 1.5546875,
          "duration": 0.0625
        },
        {
          "pitch": 57,
          "velocity": 56,
          "start": 1.6640625,
          "end": 1.7578125,
          "duration": 0.09375
        },
        {
          "pitch": 59,
          "velocity": 50,
          "start": 1.6901041666666572,
          "end": 1.7526041666666572,
          "duration": 0.0625
        },
        {
          "pitch": 69,
          "velocity": 89,
          "start": 1.8619791666666572,
          "end": 1.9947916666666572,
          "duration": 0.1328125
        },
        {
          "pitch": 38,
          "velocity": 54,
          "start": 1.8697916666666572,
          "end": 2.330729166666657,
          "duration": 0.4609375
        },
        {
          "pitch": 66,
          "velocity": 63,
          "start": 1.8854166666666572,
          "end": 1.9348958333333144,
          "duration": 0.04947916666665719
        },
        {
          "pitch": 50,
          "velocity": 55,
          "start": 1.90625,
          "end": 2.330729166666657,
          "duration": 0.4244791666666572
        }
      ],
      "metadata": {
        "note_count": 28,
        "pitch_range": 36,
        "avg_velocity": 64,
        "note_density": 14.0,
        "duration": 2.0,
        "lowest_pitch": 33,
        "highest_pitch": 69
      },
      "label": "UNLABELED",
      "label_description": "",
      "is_labeled": false
    },
    {
      "id": "2025-08-03T174139Z_0_65_f239249a",
      "source_file": "2025-08-03T174139Z",
      "instrument_idx": 0,
      "bar_idx": 65,
      "pitch_hash": "f239249a",
      "notes": [
        {
          "pitch": 57,
          "velocity": 44,
          "start": 0.1015625,
          "end": 0.16145833333331439,
          "duration": 0.059895833333314386
        },
        {
          "pitch": 62,
          "velocity": 78,
          "start": 0.296875,
          "end": 0.4609375,
          "duration": 0.1640625
        },
        {
          "pitch": 57,
          "velocity": 72,
          "start": 0.3046875,
          "end": 0.4166666666666572,
          "duration": 0.11197916666665719
        },
        {
          "pitch": 38,
          "velocity": 57,
          "start": 0.5026041666666572,
          "end": 0.7213541666666572,
          "duration": 0.21875
        },
        {
          "pitch": 50,
          "velocity": 56,
          "start": 0.5130208333333144,
          "end": 0.7291666666666572,
          "duration": 0.2161458333333428
        },
        {
          "pitch": 66,
          "velocity": 82,
          "start": 0.6666666666666572,
          "end": 0.8229166666666572,
          "duration": 0.15625
        },
        {
          "pitch": 57,
          "velocity": 79,
          "start": 0.671875,
          "end": 0.7916666666666572,
          "duration": 0.11979166666665719
        },
        {
          "pitch": 38,
          "velocity": 56,
          "start": 0.8854166666666572,
          "end": 1.5052083333333144,
          "duration": 0.6197916666666572
        },
        {
          "pitch": 50,
          "velocity": 54,
          "start": 0.9166666666666572,
          "end": 1.3984375,
          "duration": 0.4817708333333428
        },
        {
          "pitch": 57,
          "velocity": 50,
          "start": 1.0598958333333144,
          "end": 1.1145833333333144,
          "duration": 0.0546875
        },
        {
          "pitch": 69,
          "velocity": 83,
          "start": 1.2473958333333144,
          "end": 1.3567708333333144,
          "duration": 0.109375
        },
        {
          "pitch": 57,
          "velocity": 80,
          "start": 1.6067708333333144,
          "end": 1.7864583333333144,
          "duration": 0.1796875
        },
        {
          "pitch": 66,
          "velocity": 77,
          "start": 1.6197916666666572,
          "end": 1.7473958333333144,
          "duration": 0.1276041666666572
        },
        {
          "pitch": 62,
          "velocity": 41,
          "start": 1.671875,
          "end": 1.75,
          "duration": 0.078125
        },
        {
          "pitch": 66,
          "velocity": 69,
          "start": 1.8177083333333144,
          "end": 1.9192708333333144,
          "duration": 0.1015625
        },
        {
          "pitch": 69,
          "velocity": 92,
          "start": 1.8255208333333144,
          "end": 1.9635416666666572,
          "duration": 0.1380208333333428
        },
        {
          "pitch": 38,
          "velocity": 61,
          "start": 1.8255208333333144,
          "end": 2.109375,
          "duration": 0.2838541666666856
        },
        {
          "pitch": 50,
          "velocity": 56,
          "start": 1.8411458333333144,
          "end": 2.111979166666657,
          "duration": 0.2708333333333428
        }
      ],
      "metadata": {
        "note_count": 18,
        "pitch_range": 31,
        "avg_velocity": 65,
        "note_density": 9.0,
        "duration": 2.0,
        "lowest_pitch": 38,
        "highest_pitch": 69
      },
      "label": "UNLABELED",
      "label_description": "",
      "is_labeled": false
    },
    {
      "id": "2025-08-03T174139Z_0_66_a348e6fc",
      "source_file": "2025-08-03T174139Z",
      "instrument_idx": 0,
      "bar_idx": 66,
      "pitch_hash": "a348e6fc",
      "notes": [
        {
          "pitch": 57,
          "velocity": 72,
          "start": 0.028645833333314386,
          "end": 0.18489583333331439,
          "duration": 0.15625
        },
        {
          "pitch": 69,
          "velocity": 82,
          "start": 0.2369791666666572,
          "end": 0.3958333333333144,
          "duration": 0.1588541666666572
        },
        {
          "pitch": 38,
          "velocity": 60,
          "start": 0.2708333333333144,
          "end": 0.4114583333333144,
          "duration": 0.140625
        },
        {
          "pitch": 50,
          "velocity": 63,
          "start": 0.2760416666666572,
          "end": 0.3463541666666572,
          "duration": 0.0703125
        },
        {
          "pitch": 71,
          "velocity": 77,
          "start": 0.6875,
          "end": 1.0598958333333144,
          "duration": 0.3723958333333144
        },
        {
          "pitch": 35,
          "velocity": 68,
          "start": 0.7005208333333144,
          "end": 1.1692708333333144,
          "duration": 0.46875
        },
        {
          "pitch": 47,
          "velocity": 65,
          "start": 0.703125,
          "end": 1.2005208333333144,
          "duration": 0.4973958333333144
        },
        {
          "pitch": 59,
          "velocity": 64,
          "start": 1.0989583333333144,
          "end": 1.2578125,
          "duration": 0.15885416666668561
        },
        {
          "pitch": 68,
          "velocity": 80,
          "start": 1.3125,
          "end": 1.4713541666666572,
          "duration": 0.1588541666666572
        },
        {
          "pitch": 35,
          "velocity": 58,
          "start": 1.3385416666666572,
          "end": 1.7578125,
          "duration": 0.4192708333333428
        },
        {
          "pitch": 47,
          "velocity": 55,
          "start": 1.359375,
          "end": 1.7682291666666572,
          "duration": 0.4088541666666572
        }
      ],
      "metadata": {
        "note_count": 11,
        "pitch_range": 36,
        "avg_velocity": 67,
        "note_density": 5.5,
        "duration": 2.0,
        "lowest_pitch": 35,
        "highest_pitch": 71
      },
      "label": "UNLABELED",
      "label_description": "",
      "is_labeled": false
    },
    {
      "id": "2025-08-03T174139Z_0_67_bd525a3b",
      "source_file": "2025-08-03T174139Z",
      "instrument_idx": 0,
      "bar_idx": 67,
      "pitch_hash": "bd525a3b",
      "notes": [
        {
          "pitch": 71,
          "velocity": 61,
          "start": 0.015625,
          "end": 0.1015625,
          "duration": 0.0859375
        },
        {
          "pitch": 35,
          "velocity": 62,
          "start": 0.015625,
          "end": 0.3203125,
          "duration": 0.3046875
        },
        {
          "pitch": 69,
          "velocity": 66,
          "start": 0.0234375,
          "end": 0.07552083333331439,
          "duration": 0.052083333333314386
        },
        {
          "pitch": 47,
          "velocity": 47,
          "start": 0.0234375,
          "end": 0.3098958333333144,
          "duration": 0.2864583333333144
        },
        {
          "pitch": 69,
          "velocity": 80,
          "start": 0.2291666666666572,
          "end": 0.3489583333333144,
          "duration": 0.11979166666665719
        },
        {
          "pitch": 35,
          "velocity": 38,
          "start": 0.3854166666666572,
          "end": 0.59375,
          "duration": 0.2083333333333428
        },
        {
          "pitch": 47,
          "velocity": 63,
          "start": 0.4166666666666572,
          "end": 0.5859375,
          "duration": 0.1692708333333428
        },
        {
          "pitch": 67,
          "velocity": 36,
          "start": 0.4765625,
          "end": 0.5260416666666572,
          "duration": 0.04947916666665719
        },
        {
          "pitch": 57,
          "velocity": 56,
          "start": 0.6354166666666572,
          "end": 0.84375,
          "duration": 0.2083333333333428
        },
        {
          "pitch": 35,
          "velocity": 44,
          "start": 0.8411458333333144,
          "end": 1.0546875,
          "duration": 0.21354166666668561
        },
        {
          "pitch": 47,
          "velocity": 53,
          "start": 0.8619791666666572,
          "end": 1.0260416666666572,
          "duration": 0.1640625
        },
        {
          "pitch": 57,
          "velocity": 53,
          "start": 1.0572916666666572,
          "end": 1.2265625,
          "duration": 0.1692708333333428
        },
        {
          "pitch": 64,
          "velocity": 60,
          "start": 1.0911458333333144,
          "end": 1.3619791666666572,
          "duration": 0.2708333333333428
        },
        {
          "pitch": 35,
          "velocity": 39,
          "start": 1.2838541666666572,
          "end": 1.5833333333333144,
          "duration": 0.2994791666666572
        },
        {
          "pitch": 47,
          "velocity": 52,
          "start": 1.3098958333333144,
          "end": 1.5104166666666572,
          "duration": 0.2005208333333428
        },
        {
          "pitch": 62,
          "velocity": 56,
          "start": 1.4791666666666572,
          "end": 1.640625,
          "duration": 0.1614583333333428
        },
        {
          "pitch": 57,
          "velocity": 50,
          "start": 1.703125,
          "end": 1.828125,
          "duration": 0.125
        },
        {
          "pitch": 35,
          "velocity": 47,
          "start": 1.7213541666666572,
          "end": 1.8567708333333144,
          "duration": 0.1354166666666572
        },
        {
          "pitch": 47,
          "velocity": 50,
          "start": 1.7447916666666572,
          "end": 1.828125,
          "duration": 0.08333333333334281
        },
        {
          "pitch": 62,
          "velocity": 54,
          "start": 1.8854166666666572,
          "end": 2.002604166666657,
          "duration": 0.1171875
        }
      ],
      "metadata": {
        "note_count": 20,
        "pitch_range": 36,
        "avg_velocity": 53,
        "note_density": 10.0,
        "duration": 2.0,
        "lowest_pitch": 35,
        "highest_pitch": 71
      },
      "label": "UNLABELED",
      "label_description": "",
      "is_labeled": false
    },
    {
      "id": "2025-08-03T174139Z_0_68_704cf03a",
      "source_file": "2025-08-03T174139Z",
      "instrument_idx": 0,
      "bar_idx": 68,
      "pitch_hash": "704cf03a",
      "notes": [
        {
          "pitch": 33,
          "velocity": 58,
          "start": 0.09635416666665719,
          "end": 1.4505208333333144,
          "duration": 1.3541666666666572
        },
        {
          "pitch": 62,
          "velocity": 66,
          "start": 0.10416666666665719,
          "end": 0.4609375,
          "duration": 0.3567708333333428
        },
        {
          "pitch": 45,
          "velocity": 56,
          "start": 0.10416666666665719,
          "end": 0.5625,
          "duration": 0.4583333333333428
        },
        {
          "pitch": 57,
          "velocity": 42,
          "start": 0.1171875,
          "end": 0.2109375,
          "duration": 0.09375
        },
        {
          "pitch": 57,
          "velocity": 57,
          "start": 0.5286458333333144,
          "end": 0.7421875,
          "duration": 0.21354166666668561
        },
        {
          "pitch": 45,
          "velocity": 57,
          "start": 0.7447916666666572,
          "end": 1.0260416666666572,
          "duration": 0.28125
        },
        {
          "pitch": 57,
          "velocity": 69,
          "start": 0.9791666666666572,
          "end": 1.2552083333333144,
          "duration": 0.2760416666666572
        },
        {
          "pitch": 62,
          "velocity": 66,
          "start": 1.2109375,
          "end": 1.4583333333333144,
          "duration": 0.24739583333331439
        },
        {
          "pitch": 45,
          "velocity": 50,
          "start": 1.4453125,
          "end": 1.5130208333333144,
          "duration": 0.06770833333331439
        },
        {
          "pitch": 57,
          "velocity": 60,
          "start": 1.65625,
          "end": 1.8072916666666572,
          "duration": 0.1510416666666572
        },
        {
          "pitch": 50,
          "velocity": 55,
          "start": 1.9114583333333144,
          "end": 2.486979166666657,
          "duration": 0.5755208333333428
        },
        {
          "pitch": 62,
          "velocity": 63,
          "start": 1.921875,
          "end": 2.143229166666657,
          "duration": 0.2213541666666572
        },
        {
          "pitch": 38,
          "velocity": 42,
          "start": 1.9557291666666572,
          "end": 2.515625,
          "duration": 0.5598958333333428
        }
      ],
      "metadata": {
        "note_count": 13,
        "pitch_range": 29,
        "avg_velocity": 57,
        "note_density": 6.5,
        "duration": 2.0,
        "lowest_pitch": 33,
        "highest_pitch": 62
      },
      "label": "UNLABELED",
      "label_description": "",
      "is_labeled": false
    },
    {
      "id": "2025-08-03T174139Z_0_69_3479cd8c",
      "source_file": "2025-08-03T174139Z",
      "instrument_idx": 0,
      "bar_idx": 69,
      "pitch_hash": "3479cd8c",
      "notes": [
        {
          "pitch": 57,
          "velocity": 58,
          "start": 0.4401041666666572,
          "end": 0.59375,
          "duration": 0.1536458333333428
        },
        {
          "pitch": 62,
          "velocity": 50,
          "start": 0.4765625,
          "end": 0.5703125,
          "duration": 0.09375
        },
        {
          "pitch": 38,
          "velocity": 48,
          "start": 0.7161458333333144,
          "end": 1.1536458333333144,
          "duration": 0.4375
        },
        {
          "pitch": 50,
          "velocity": 45,
          "start": 0.7395833333333144,
          "end": 1.1197916666666572,
          "duration": 0.3802083333333428
        },
        {
          "pitch": 62,
          "velocity": 77,
          "start": 1.0598958333333144,
          "end": 1.2526041666666572,
          "duration": 0.1927083333333428
        },
        {
          "pitch": 57,
          "velocity": 61,
          "start": 1.0625,
          "end": 1.140625,
          "duration": 0.078125
        },
        {
          "pitch": 38,
          "velocity": 45,
          "start": 1.3541666666666572,
          "end": 1.5572916666666572,
          "duration": 0.203125
        },
        {
          "pitch": 50,
          "velocity": 47,
          "start": 1.3723958333333144,
          "end": 1.4817708333333144,
          "duration": 0.109375
        },
        {
          "pitch": 38,
          "velocity": 20,
          "start": 1.6770833333333144,
          "end": 1.890625,
          "duration": 0.21354166666668561
        },
        {
          "pitch": 50,
          "velocity": 43,
          "start": 1.6901041666666572,
          "end": 1.8229166666666572,
          "duration": 0.1328125
        },
        {
          "pitch": 62,
          "velocity": 74,
          "start": 1.7005208333333144,
          "end": 1.8098958333333144,
          "duration": 0.109375
        },
        {
          "pitch": 57,
          "velocity": 46,
          "start": 1.734375,
          "end": 1.796875,
          "duration": 0.0625
        },
        {
          "pitch": 38,
          "velocity": 14,
          "start": 1.984375,
          "end": 2.4895833333333144,
          "duration": 0.5052083333333144
        }
      ],
      "metadata": {
        "note_count": 13,
        "pitch_range": 24,
        "avg_velocity": 48,
        "note_density": 6.5,
        "duration": 2.0,
        "lowest_pitch": 38,
        "highest_pitch": 62
      },
      "label": "UNLABELED",
      "label_description": "",
      "is_labeled": false
    },
    {
      "id": "2025-08-03T174139Z_0_70_860e0a22",
      "source_file": "2025-08-03T174139Z",
      "instrument_idx": 0,
      "bar_idx": 70,
      "pitch_hash": "860e0a22",
      "notes": [
        {
          "pitch": 50,
          "velocity": 49,
          "start": 0.018229166666657193,
          "end": 0.20833333333331439,
          "duration": 0.1901041666666572
        },
        {
          "pitch": 62,
          "velocity": 68,
          "start": 0.3697916666666572,
          "end": 0.734375,
          "duration": 0.3645833333333428
        },
        {
          "pitch": 57,
          "velocity": 63,
          "start": 0.3723958333333144,
          "end": 0.5911458333333144,
          "duration": 0.21875
        },
        {
          "pitch": 38,
          "velocity": 44,
          "start": 1.0364583333333144,
          "end": 2.6770833333333144,
          "duration": 1.640625
        },
        {
          "pitch": 62,
          "velocity": 58,
          "start": 1.0520833333333144,
          "end": 1.6588541666666572,
          "duration": 0.6067708333333428
        },
        {
          "pitch": 50,
          "velocity": 49,
          "start": 1.0703125,
          "end": 1.9088541666666572,
          "duration": 0.8385416666666572
        },
        {
          "pitch": 57,
          "velocity": 50,
          "start": 1.0833333333333144,
          "end": 1.3802083333333144,
          "duration": 0.296875
        }
      ],
      "metadata": {
        "note_count": 7,
        "pitch_range": 24,
        "avg_velocity": 54,
        "note_density": 3.5,
        "duration": 2.0,
        "lowest_pitch": 38,
        "highest_pitch": 62
      },
      "label": "UNLABELED",
      "label_description": "",
      "is_labeled": false
    },
    {
      "id": "2025-08-03T174139Z_0_71_5bce982b",
      "source_file": "2025-08-03T174139Z",
      "instrument_idx": 0,
      "bar_idx": 71,
      "pitch_hash": "5bce982b",
      "notes": [
        {
          "pitch": 50,
          "velocity": 58,
          "start": 0.03125,
          "end": 0.6041666666666572,
          "duration": 0.5729166666666572
        },
        {
          "pitch": 59,
          "velocity": 44,
          "start": 0.609375,
          "end": 0.84375,
          "duration": 0.234375
        },
        {
          "pitch": 50,
          "velocity": 45,
          "start": 0.8697916666666572,
          "end": 0.9453125,
          "duration": 0.07552083333334281
        },
        {
          "pitch": 48,
          "velocity": 44,
          "start": 1.4817708333333144,
          "end": 1.9244791666666572,
          "duration": 0.4427083333333428
        },
        {
          "pitch": 36,
          "velocity": 48,
          "start": 1.4817708333333144,
          "end": 1.96875,
          "duration": 0.4869791666666856
        }
      ],
      "metadata": {
        "note_count": 5,
        "pitch_range": 23,
        "avg_velocity": 47,
        "note_density": 2.5,
        "duration": 2.0,
        "lowest_pitch": 36,
        "highest_pitch": 59
      },
      "label": "UNLABELED",
      "label_description": "",
      "is_labeled": false
    },
    {
      "id": "2025-08-03T174139Z_0_72_4e067ac1",
      "source_file": "2025-08-03T174139Z",
      "instrument_idx": 0,
      "bar_idx": 72,
      "pitch_hash": "4e067ac1",
      "notes": [
        {
          "pitch": 48,
          "velocity": 48,
          "start": 0.3463541666666572,
          "end": 0.4401041666666572,
          "duration": 0.09375
        },
        {
          "pitch": 36,
          "velocity": 44,
          "start": 0.3463541666666572,
          "end": 0.4739583333333144,
          "duration": 0.1276041666666572
        },
        {
          "pitch": 36,
          "velocity": 39,
          "start": 0.9557291666666572,
          "end": 1.1536458333333144,
          "duration": 0.1979166666666572
        },
        {
          "pitch": 48,
          "velocity": 50,
          "start": 0.9583333333333144,
          "end": 1.0911458333333144,
          "duration": 0.1328125
        },
        {
          "pitch": 36,
          "velocity": 48,
          "start": 1.5052083333333144,
          "end": 1.5989583333333144,
          "duration": 0.09375
        },
        {
          "pitch": 48,
          "velocity": 42,
          "start": 1.5078125,
          "end": 1.5963541666666572,
          "duration": 0.08854166666665719
        },
        {
          "pitch": 36,
          "velocity": 71,
          "start": 1.7786458333333144,
          "end": 2.484375,
          "duration": 0.7057291666666856
        },
        {
          "pitch": 48,
          "velocity": 69,
          "start": 1.7864583333333144,
          "end": 2.4583333333333144,
          "duration": 0.671875
        }
      ],
      "metadata": {
        "note_count": 8,
        "pitch_range": 12,
        "avg_velocity": 51,
        "note_density": 4.0,
        "duration": 2.0,
        "lowest_pitch": 36,
        "highest_pitch": 48
      },
      "label": "UNLABELED",
      "label_description": "",
      "is_labeled": false
    },
    {
      "id": "2025-08-03T174139Z_0_73_70801ad7",
      "source_file": "2025-08-03T174139Z",
      "instrument_idx": 0,
      "bar_idx": 73,
      "pitch_hash": "70801ad7",
      "notes": [
        {
          "pitch": 36,
          "velocity": 53,
          "start": 0.6067708333333144,
          "end": 1.0338541666666572,
          "duration": 0.4270833333333428
        },
        {
          "pitch": 48,
          "velocity": 60,
          "start": 0.6276041666666572,
          "end": 1.0234375,
          "duration": 0.3958333333333428
        },
        {
          "pitch": 48,
          "velocity": 50,
          "start": 1.2057291666666572,
          "end": 1.3098958333333144,
          "duration": 0.10416666666665719
        },
        {
          "pitch": 36,
          "velocity": 48,
          "start": 1.2057291666666572,
          "end": 1.3619791666666572,
          "duration": 0.15625
        },
        {
          "pitch": 36,
          "velocity": 59,
          "start": 1.6927083333333144,
          "end": 1.8541666666666572,
          "duration": 0.1614583333333428
        },
        {
          "pitch": 48,
          "velocity": 48,
          "start": 1.7135416666666572,
          "end": 1.8463541666666572,
          "duration": 0.1328125
        },
        {
          "pitch": 36,
          "velocity": 65,
          "start": 1.9895833333333144,
          "end": 2.471354166666657,
          "duration": 0.4817708333333428
        }
      ],
      "metadata": {
        "note_count": 7,
        "pitch_range": 12,
        "avg_velocity": 54,
        "note_density": 3.5,
        "duration": 2.0,
        "lowest_pitch": 36,
        "highest_pitch": 48
      },
      "label": "UNLABELED",
      "label_description": "",
      "is_labeled": false
    },
    {
      "id": "2025-08-03T174139Z_0_74_7c0f93c0",
      "source_file": "2025-08-03T174139Z",
      "instrument_idx": 0,
      "bar_idx": 74,
      "pitch_hash": "7c0f93c0",
      "notes": [
        {
          "pitch": 48,
          "velocity": 66,
          "start": 0.0026041666666571928,
          "end": 0.453125,
          "duration": 0.4505208333333428
        },
        {
          "pitch": 36,
          "velocity": 32,
          "start": 0.5598958333333144,
          "end": 0.640625,
          "duration": 0.08072916666668561
        },
        {
          "pitch": 36,
          "velocity": 56,
          "start": 0.828125,
          "end": 1.2447916666666572,
          "duration": 0.4166666666666572
        },
        {
          "pitch": 48,
          "velocity": 54,
          "start": 0.84375,
          "end": 1.2239583333333144,
          "duration": 0.3802083333333144
        },
        {
          "pitch": 36,
          "velocity": 62,
          "start": 1.3567708333333144,
          "end": 1.6119791666666572,
          "duration": 0.2552083333333428
        },
        {
          "pitch": 48,
          "velocity": 60,
          "start": 1.3828125,
          "end": 1.5,
          "duration": 0.1171875
        },
        {
          "pitch": 48,
          "velocity": 61,
          "start": 1.8489583333333144,
          "end": 1.90625,
          "duration": 0.057291666666685614
        }
      ],
      "metadata": {
        "note_count": 7,
        "pitch_range": 12,
        "avg_velocity": 55,
        "note_density": 3.5,
        "duration": 2.0,
        "lowest_pitch": 36,
        "highest_pitch": 48
      },
      "label": "UNLABELED",
      "label_description": "",
      "is_labeled": false
    },
    {
      "id": "2025-08-03T174139Z_0_75_d98ddb15",
      "source_file": "2025-08-03T174139Z",
      "instrument_idx": 0,
      "bar_idx": 75,
      "pitch_hash": "d98ddb15",
      "notes": [
        {
          "pitch": 53,
          "velocity": 79,
          "start": 0.15364583333331439,
          "end": 0.7864583333333144,
          "duration": 0.6328125
        },
        {
          "pitch": 41,
          "velocity": 77,
          "start": 0.15364583333331439,
          "end": 0.7942708333333144,
          "duration": 0.640625
        },
        {
          "pitch": 43,
          "velocity": 86,
          "start": 0.9635416666666572,
          "end": 1.3958333333333144,
          "duration": 0.4322916666666572
        },
        {
          "pitch": 55,
          "velocity": 85,
          "start": 0.9739583333333144,
          "end": 1.3958333333333144,
          "duration": 0.421875
        },
        {
          "pitch": 43,
          "velocity": 58,
          "start": 1.5,
          "end": 1.6770833333333144,
          "duration": 0.17708333333331439
        },
        {
          "pitch": 55,
          "velocity": 56,
          "start": 1.5130208333333144,
          "end": 1.6484375,
          "duration": 0.13541666666668561
        },
        {
          "pitch": 43,
          "velocity": 61,
          "start": 1.953125,
          "end": 2.002604166666657,
          "duration": 0.04947916666665719
        },
        {
          "pitch": 55,
          "velocity": 59,
          "start": 1.9661458333333144,
          "end": 2.015625,
          "duration": 0.049479166666685614
        }
      ],
      "metadata": {
        "note_count": 8,
        "pitch_range": 14,
        "avg_velocity": 70,
        "note_density": 4.0,
        "duration": 2.0,
        "lowest_pitch": 41,
        "highest_pitch": 55
      },
      "label": "UNLABELED",
      "label_description": "",
      "is_labeled": false
    },
    {
      "id": "2025-08-03T174139Z_0_76_6d620b0d",
      "source_file": "2025-08-03T174139Z",
      "instrument_idx": 0,
      "bar_idx": 76,
      "pitch_hash": "6d620b0d",
      "notes": [
        {
          "pitch": 48,
          "velocity": 85,
          "start": 0.2552083333333144,
          "end": 0.7916666666666572,
          "duration": 0.5364583333333428
        },
        {
          "pitch": 36,
          "velocity": 80,
          "start": 0.2604166666666572,
          "end": 0.8151041666666572,
          "duration": 0.5546875
        },
        {
          "pitch": 36,
          "velocity": 69,
          "start": 1.0260416666666572,
          "end": 1.2395833333333144,
          "duration": 0.2135416666666572
        },
        {
          "pitch": 48,
          "velocity": 66,
          "start": 1.0390625,
          "end": 1.1927083333333144,
          "duration": 0.15364583333331439
        },
        {
          "pitch": 36,
          "velocity": 61,
          "start": 1.5390625,
          "end": 1.6770833333333144,
          "duration": 0.13802083333331439
        },
        {
          "pitch": 48,
          "velocity": 59,
          "start": 1.5494791666666572,
          "end": 1.6770833333333144,
          "duration": 0.1276041666666572
        }
      ],
      "metadata": {
        "note_count": 6,
        "pitch_range": 12,
        "avg_velocity": 70,
        "note_density": 3.0,
        "duration": 2.0,
        "lowest_pitch": 36,
        "highest_pitch": 48
      },
      "label": "UNLABELED",
      "label_description": "",
      "is_labeled": false
    },
    {
      "id": "2025-08-03T174139Z_0_77_2ce1a0c8",
      "source_file": "2025-08-03T174139Z",
      "instrument_idx": 0,
      "bar_idx": 77,
      "pitch_hash": "2ce1a0c8",
      "notes": [
        {
          "pitch": 48,
          "velocity": 60,
          "start": 0.06510416666665719,
          "end": 0.140625,
          "duration": 0.07552083333334281
        },
        {
          "pitch": 36,
          "velocity": 57,
          "start": 0.06510416666665719,
          "end": 0.14583333333331439,
          "duration": 0.08072916666665719
        },
        {
          "pitch": 36,
          "velocity": 60,
          "start": 0.3671875,
          "end": 0.8515625,
          "duration": 0.484375
        },
        {
          "pitch": 48,
          "velocity": 60,
          "start": 0.3697916666666572,
          "end": 0.8671875,
          "duration": 0.4973958333333428
        },
        {
          "pitch": 36,
          "velocity": 51,
          "start": 1.125,
          "end": 1.4036458333333144,
          "duration": 0.2786458333333144
        },
        {
          "pitch": 48,
          "velocity": 48,
          "start": 1.140625,
          "end": 1.34375,
          "duration": 0.203125
        },
        {
          "pitch": 48,
          "velocity": 51,
          "start": 1.6536458333333144,
          "end": 1.7604166666666572,
          "duration": 0.10677083333334281
        },
        {
          "pitch": 36,
          "velocity": 42,
          "start": 1.6536458333333144,
          "end": 1.7760416666666572,
          "duration": 0.12239583333334281
        }
      ],
      "metadata": {
        "note_count": 8,
        "pitch_range": 12,
        "avg_velocity": 53,
        "note_density": 4.0,
        "duration": 2.0,
        "lowest_pitch": 36,
        "highest_pitch": 48
      },
      "label": "UNLABELED",
      "label_description": "",
      "is_labeled": false
    },
    {
      "id": "2025-08-03T174139Z_0_78_48fd7140",
      "source_file": "2025-08-03T174139Z",
      "instrument_idx": 0,
      "bar_idx": 78,
      "pitch_hash": "48fd7140",
      "notes": [
        {
          "pitch": 48,
          "velocity": 51,
          "start": 0.1666666666666572,
          "end": 0.2760416666666572,
          "duration": 0.109375
        },
        {
          "pitch": 48,
          "velocity": 49,
          "start": 0.4635416666666572,
          "end": 0.5572916666666572,
          "duration": 0.09375
        },
        {
          "pitch": 36,
          "velocity": 41,
          "start": 0.4661458333333144,
          "end": 0.6145833333333144,
          "duration": 0.1484375
        },
        {
          "pitch": 36,
          "velocity": 27,
          "start": 0.6822916666666572,
          "end": 0.8671875,
          "duration": 0.1848958333333428
        },
        {
          "pitch": 48,
          "velocity": 42,
          "start": 0.7083333333333144,
          "end": 0.8489583333333144,
          "duration": 0.140625
        },
        {
          "pitch": 36,
          "velocity": 47,
          "start": 0.9635416666666572,
          "end": 1.3880208333333144,
          "duration": 0.4244791666666572
        },
        {
          "pitch": 48,
          "velocity": 52,
          "start": 0.9713541666666572,
          "end": 1.0963541666666572,
          "duration": 0.125
        },
        {
          "pitch": 71,
          "velocity": 58,
          "start": 0.9869791666666572,
          "end": 1.6380208333333144,
          "duration": 0.6510416666666572
        },
        {
          "pitch": 67,
          "velocity": 53,
          "start": 0.9921875,
          "end": 1.59375,
          "duration": 0.6015625
        },
        {
          "pitch": 74,
          "velocity": 57,
          "start": 0.9947916666666572,
          "end": 1.5703125,
          "duration": 0.5755208333333428
        },
        {
          "pitch": 48,
          "velocity": 47,
          "start": 1.2421875,
          "end": 1.328125,
          "duration": 0.0859375
        },
        {
          "pitch": 36,
          "velocity": 22,
          "start": 1.46875,
          "end": 1.6067708333333144,
          "duration": 0.13802083333331439
        },
        {
          "pitch": 48,
          "velocity": 55,
          "start": 1.4973958333333144,
          "end": 1.59375,
          "duration": 0.09635416666668561
        },
        {
          "pitch": 36,
          "velocity": 55,
          "start": 1.7369791666666572,
          "end": 1.9088541666666572,
          "duration": 0.171875
        },
        {
          "pitch": 76,
          "velocity": 73,
          "start": 1.7473958333333144,
          "end": 1.9348958333333144,
          "duration": 0.1875
        },
        {
          "pitch": 48,
          "velocity": 57,
          "start": 1.7526041666666572,
          "end": 1.8697916666666572,
          "duration": 0.1171875
        },
        {
          "pitch": 67,
          "velocity": 69,
          "start": 1.7526041666666572,
          "end": 1.953125,
          "duration": 0.2005208333333428
        },
        {
          "pitch": 72,
          "velocity": 72,
          "start": 1.7604166666666572,
          "end": 1.9270833333333144,
          "duration": 0.1666666666666572
        },
        {
          "pitch": 36,
          "velocity": 28,
          "start": 1.9817708333333144,
          "end": 2.109375,
          "duration": 0.12760416666668561
        },
        {
          "pitch": 48,
          "velocity": 54,
          "start": 1.9921875,
          "end": 2.104166666666657,
          "duration": 0.11197916666665719
        }
      ],
      "metadata": {
        "note_count": 20,
        "pitch_range": 40,
        "avg_velocity": 50,
        "note_density": 10.0,
        "duration": 2.0,
        "lowest_pitch": 36,
        "highest_pitch": 76
      },
      "label": "UNLABELED",
      "label_description": "",
      "is_labeled": false
    },
    {
      "id": "2025-08-03T174139Z_0_79_c00aa7af",
      "source_file": "2025-08-03T174139Z",
      "instrument_idx": 0,
      "bar_idx": 79,
      "pitch_hash": "c00aa7af",
      "notes": [
        {
          "pitch": 48,
          "velocity": 54,
          "start": 0.2421875,
          "end": 0.3463541666666572,
          "duration": 0.10416666666665719
        },
        {
          "pitch": 36,
          "velocity": 38,
          "start": 0.2604166666666572,
          "end": 0.3515625,
          "duration": 0.09114583333334281
        },
        {
          "pitch": 48,
          "velocity": 57,
          "start": 0.4973958333333144,
          "end": 0.625,
          "duration": 0.12760416666668561
        },
        {
          "pitch": 36,
          "velocity": 47,
          "start": 0.4973958333333144,
          "end": 0.6276041666666572,
          "duration": 0.1302083333333428
        },
        {
          "pitch": 65,
          "velocity": 75,
          "start": 0.5052083333333144,
          "end": 1.0885416666666572,
          "duration": 0.5833333333333428
        },
        {
          "pitch": 72,
          "velocity": 71,
          "start": 0.5052083333333144,
          "end": 1.0885416666666572,
          "duration": 0.5833333333333428
        },
        {
          "pitch": 69,
          "velocity": 65,
          "start": 0.5208333333333144,
          "end": 1.0755208333333144,
          "duration": 0.5546875
        },
        {
          "pitch": 48,
          "velocity": 54,
          "start": 0.75,
          "end": 0.84375,
          "duration": 0.09375
        },
        {
          "pitch": 36,
          "velocity": 39,
          "start": 0.7604166666666572,
          "end": 0.8489583333333144,
          "duration": 0.08854166666665719
        },
        {
          "pitch": 48,
          "velocity": 58,
          "start": 1.0078125,
          "end": 1.1015625,
          "duration": 0.09375
        },
        {
          "pitch": 36,
          "velocity": 34,
          "start": 1.0234375,
          "end": 1.078125,
          "duration": 0.0546875
        },
        {
          "pitch": 48,
          "velocity": 56,
          "start": 1.2473958333333144,
          "end": 1.3776041666666572,
          "duration": 0.1302083333333428
        },
        {
          "pitch": 65,
          "velocity": 75,
          "start": 1.2473958333333144,
          "end": 1.3854166666666572,
          "duration": 0.1380208333333428
        },
        {
          "pitch": 69,
          "velocity": 68,
          "start": 1.2526041666666572,
          "end": 1.3984375,
          "duration": 0.1458333333333428
        },
        {
          "pitch": 36,
          "velocity": 54,
          "start": 1.2526041666666572,
          "end": 1.4036458333333144,
          "duration": 0.1510416666666572
        },
        {
          "pitch": 72,
          "velocity": 73,
          "start": 1.2526041666666572,
          "end": 1.4088541666666572,
          "duration": 0.15625
        },
        {
          "pitch": 36,
          "velocity": 42,
          "start": 1.4947916666666572,
          "end": 1.5963541666666572,
          "duration": 0.1015625
        },
        {
          "pitch": 48,
          "velocity": 53,
          "start": 1.5052083333333144,
          "end": 1.6067708333333144,
          "duration": 0.1015625
        },
        {
          "pitch": 48,
          "velocity": 58,
          "start": 1.7552083333333144,
          "end": 1.8880208333333144,
          "duration": 0.1328125
        },
        {
          "pitch": 36,
          "velocity": 48,
          "start": 1.765625,
          "end": 1.8880208333333144,
          "duration": 0.12239583333331439
        },
        {
          "pitch": 67,
          "velocity": 72,
          "start": 1.7838541666666572,
          "end": 2.34375,
          "duration": 0.5598958333333428
        },
        {
          "pitch": 71,
          "velocity": 76,
          "start": 1.7864583333333144,
          "end": 2.354166666666657,
          "duration": 0.5677083333333428
        },
        {
          "pitch": 74,
          "velocity": 73,
          "start": 1.7916666666666572,
          "end": 2.361979166666657,
          "duration": 0.5703125
        }
      ],
      "metadata": {
        "note_count": 23,
        "pitch_range": 38,
        "avg_velocity": 58,
        "note_density": 11.5,
        "duration": 2.0,
        "lowest_pitch": 36,
        "highest_pitch": 74
      },
      "label": "UNLABELED",
      "label_description": "",
      "is_labeled": false
    },
    {
      "id": "2025-08-03T174139Z_0_80_b8356758",
      "source_file": "2025-08-03T174139Z",
      "instrument_idx": 0,
      "bar_idx": 80,
      "pitch_hash": "b8356758",
      "notes": [
        {
          "pitch": 36,
          "velocity": 42,
          "start": 0.026041666666657193,
          "end": 0.1276041666666572,
          "duration": 0.1015625
        },
        {
          "pitch": 48,
          "velocity": 55,
          "start": 0.028645833333314386,
          "end": 0.13020833333331439,
          "duration": 0.1015625
        },
        {
          "pitch": 36,
          "velocity": 42,
          "start": 0.2916666666666572,
          "end": 0.3697916666666572,
          "duration": 0.078125
        },
        {
          "pitch": 48,
          "velocity": 56,
          "start": 0.2916666666666572,
          "end": 0.3828125,
          "duration": 0.09114583333334281
        },
        {
          "pitch": 36,
          "velocity": 38,
          "start": 0.5494791666666572,
          "end": 0.6770833333333144,
          "duration": 0.1276041666666572
        },
        {
          "pitch": 48,
          "velocity": 51,
          "start": 0.5494791666666572,
          "end": 0.6848958333333144,
          "duration": 0.1354166666666572
        },
        {
          "pitch": 36,
          "velocity": 35,
          "start": 0.8046875,
          "end": 0.9010416666666572,
          "duration": 0.09635416666665719
        },
        {
          "pitch": 48,
          "velocity": 53,
          "start": 0.8125,
          "end": 0.90625,
          "duration": 0.09375
        },
        {
          "pitch": 36,
          "velocity": 44,
          "start": 1.0572916666666572,
          "end": 1.1848958333333144,
          "duration": 0.1276041666666572
        },
        {
          "pitch": 48,
          "velocity": 57,
          "start": 1.0677083333333144,
          "end": 1.1927083333333144,
          "duration": 0.125
        },
        {
          "pitch": 67,
          "velocity": 69,
          "start": 1.0755208333333144,
          "end": 1.2083333333333144,
          "duration": 0.1328125
        },
        {
          "pitch": 74,
          "velocity": 69,
          "start": 1.0807291666666572,
          "end": 1.2265625,
          "duration": 0.1458333333333428
        },
        {
          "pitch": 71,
          "velocity": 69,
          "start": 1.0859375,
          "end": 1.21875,
          "duration": 0.1328125
        },
        {
          "pitch": 36,
          "velocity": 41,
          "start": 1.3359375,
          "end": 1.4375,
          "duration": 0.1015625
        },
        {
          "pitch": 48,
          "velocity": 57,
          "start": 1.3489583333333144,
          "end": 1.4401041666666572,
          "duration": 0.09114583333334281
        },
        {
          "pitch": 36,
          "velocity": 39,
          "start": 1.5755208333333144,
          "end": 1.734375,
          "duration": 0.15885416666668561
        },
        {
          "pitch": 48,
          "velocity": 53,
          "start": 1.5963541666666572,
          "end": 1.7291666666666572,
          "duration": 0.1328125
        },
        {
          "pitch": 76,
          "velocity": 82,
          "start": 1.796875,
          "end": 1.8984375,
          "duration": 0.1015625
        },
        {
          "pitch": 67,
          "velocity": 77,
          "start": 1.8020833333333144,
          "end": 1.9166666666666572,
          "duration": 0.11458333333334281
        },
        {
          "pitch": 72,
          "velocity": 81,
          "start": 1.8098958333333144,
          "end": 1.9088541666666572,
          "duration": 0.09895833333334281
        }
      ],
      "metadata": {
        "note_count": 20,
        "pitch_range": 40,
        "avg_velocity": 55,
        "note_density": 10.0,
        "duration": 2.0,
        "lowest_pitch": 36,
        "highest_pitch": 76
      },
      "label": "UNLABELED",
      "label_description": "",
      "is_labeled": false
    },
    {
      "id": "2025-08-03T174139Z_0_81_dc9c8f81",
      "source_file": "2025-08-03T174139Z",
      "instrument_idx": 0,
      "bar_idx": 81,
      "pitch_hash": "dc9c8f81",
      "notes": [
        {
          "pitch": 36,
          "velocity": 60,
          "start": 0.0390625,
          "end": 0.11458333333331439,
          "duration": 0.07552083333331439
        },
        {
          "pitch": 48,
          "velocity": 54,
          "start": 0.059895833333314386,
          "end": 0.1354166666666572,
          "duration": 0.07552083333334281
        },
        {
          "pitch": 60,
          "velocity": 53,
          "start": 0.2916666666666572,
          "end": 0.3932291666666572,
          "duration": 0.1015625
        },
        {
          "pitch": 41,
          "velocity": 64,
          "start": 0.5182291666666572,
          "end": 1.203125,
          "duration": 0.6848958333333428
        },
        {
          "pitch": 53,
          "velocity": 64,
          "start": 0.5182291666666572,
          "end": 1.2369791666666572,
          "duration": 0.71875
        },
        {
          "pitch": 60,
          "velocity": 61,
          "start": 0.53125,
          "end": 0.7760416666666572,
          "duration": 0.2447916666666572
        },
        {
          "pitch": 69,
          "velocity": 76,
          "start": 0.5364583333333144,
          "end": 0.9583333333333144,
          "duration": 0.421875
        },
        {
          "pitch": 67,
          "velocity": 81,
          "start": 0.8645833333333144,
          "end": 1.25,
          "duration": 0.3854166666666856
        },
        {
          "pitch": 60,
          "velocity": 42,
          "start": 0.8828125,
          "end": 0.9583333333333144,
          "duration": 0.07552083333331439
        },
        {
          "pitch": 65,
          "velocity": 80,
          "start": 1.1614583333333144,
          "end": 1.3567708333333144,
          "duration": 0.1953125
        },
        {
          "pitch": 67,
          "velocity": 87,
          "start": 1.4270833333333144,
          "end": 1.8229166666666572,
          "duration": 0.3958333333333428
        },
        {
          "pitch": 55,
          "velocity": 77,
          "start": 1.4270833333333144,
          "end": 1.9088541666666572,
          "duration": 0.4817708333333428
        },
        {
          "pitch": 43,
          "velocity": 73,
          "start": 1.4270833333333144,
          "end": 1.9713541666666572,
          "duration": 0.5442708333333428
        },
        {
          "pitch": 60,
          "velocity": 68,
          "start": 1.4401041666666572,
          "end": 1.7083333333333144,
          "duration": 0.2682291666666572
        },
        {
          "pitch": 62,
          "velocity": 67,
          "start": 1.4401041666666572,
          "end": 1.7083333333333144,
          "duration": 0.2682291666666572
        },
        {
          "pitch": 67,
          "velocity": 77,
          "start": 1.9036458333333144,
          "end": 2.260416666666657,
          "duration": 0.3567708333333428
        },
        {
          "pitch": 60,
          "velocity": 73,
          "start": 1.9166666666666572,
          "end": 2.1614583333333144,
          "duration": 0.2447916666666572
        },
        {
          "pitch": 62,
          "velocity": 61,
          "start": 1.9453125,
          "end": 2.0,
          "duration": 0.0546875
        }
      ],
      "metadata": {
        "note_count": 18,
        "pitch_range": 33,
        "avg_velocity": 67,
        "note_density": 9.0,
        "duration": 2.0,
        "lowest_pitch": 36,
        "highest_pitch": 69
      },
      "label": "UNLABELED",
      "label_description": "",
      "is_labeled": false
    },
    {
      "id": "2025-08-03T174139Z_0_82_341a1b0f",
      "source_file": "2025-08-03T174139Z",
      "instrument_idx": 0,
      "bar_idx": 82,
      "pitch_hash": "341a1b0f",
      "notes": [
        {
          "pitch": 48,
          "velocity": 51,
          "start": 0.40625,
          "end": 0.5104166666666572,
          "duration": 0.10416666666665719
        },
        {
          "pitch": 36,
          "velocity": 48,
          "start": 0.40625,
          "end": 0.8020833333333144,
          "duration": 0.3958333333333144
        },
        {
          "pitch": 48,
          "velocity": 45,
          "start": 0.65625,
          "end": 0.7786458333333144,
          "duration": 0.12239583333331439
        },
        {
          "pitch": 67,
          "velocity": 62,
          "start": 0.9010416666666572,
          "end": 1.0807291666666572,
          "duration": 0.1796875
        },
        {
          "pitch": 71,
          "velocity": 62,
          "start": 0.9036458333333144,
          "end": 1.0729166666666572,
          "duration": 0.1692708333333428
        },
        {
          "pitch": 74,
          "velocity": 63,
          "start": 0.90625,
          "end": 1.1640625,
          "duration": 0.2578125
        },
        {
          "pitch": 36,
          "velocity": 50,
          "start": 0.9088541666666572,
          "end": 1.0182291666666572,
          "duration": 0.109375
        },
        {
          "pitch": 48,
          "velocity": 55,
          "start": 0.9166666666666572,
          "end": 1.0,
          "duration": 0.08333333333334281
        },
        {
          "pitch": 36,
          "velocity": 49,
          "start": 1.1380208333333144,
          "end": 1.234375,
          "duration": 0.09635416666668561
        },
        {
          "pitch": 48,
          "velocity": 53,
          "start": 1.1484375,
          "end": 1.2213541666666572,
          "duration": 0.07291666666665719
        },
        {
          "pitch": 48,
          "velocity": 49,
          "start": 1.3880208333333144,
          "end": 1.4973958333333144,
          "duration": 0.109375
        },
        {
          "pitch": 36,
          "velocity": 41,
          "start": 1.4036458333333144,
          "end": 1.5026041666666572,
          "duration": 0.09895833333334281
        },
        {
          "pitch": 36,
          "velocity": 60,
          "start": 1.6276041666666572,
          "end": 1.75,
          "duration": 0.12239583333334281
        },
        {
          "pitch": 76,
          "velocity": 78,
          "start": 1.6328125,
          "end": 1.7395833333333144,
          "duration": 0.10677083333331439
        },
        {
          "pitch": 67,
          "velocity": 80,
          "start": 1.6354166666666572,
          "end": 1.7447916666666572,
          "duration": 0.109375
        },
        {
          "pitch": 72,
          "velocity": 83,
          "start": 1.6354166666666572,
          "end": 1.7734375,
          "duration": 0.1380208333333428
        },
        {
          "pitch": 48,
          "velocity": 72,
          "start": 1.6432291666666572,
          "end": 1.734375,
          "duration": 0.09114583333334281
        },
        {
          "pitch": 36,
          "velocity": 54,
          "start": 1.8723958333333144,
          "end": 1.9505208333333144,
          "duration": 0.078125
        },
        {
          "pitch": 48,
          "velocity": 51,
          "start": 1.9010416666666572,
          "end": 1.9635416666666572,
          "duration": 0.0625
        }
      ],
      "metadata": {
        "note_count": 19,
        "pitch_range": 40,
        "avg_velocity": 58,
        "note_density": 9.5,
        "duration": 2.0,
        "lowest_pitch": 36,
        "highest_pitch": 76
      },
      "label": "UNLABELED",
      "label_description": "",
      "is_labeled": false
    },
    {
      "id": "2025-08-03T174139Z_0_83_c6f79970",
      "source_file": "2025-08-03T174139Z",
      "instrument_idx": 0,
      "bar_idx": 83,
      "pitch_hash": "c6f79970",
      "notes": [
        {
          "pitch": 36,
          "velocity": 54,
          "start": 0.11197916666665719,
          "end": 0.1901041666666572,
          "duration": 0.078125
        },
        {
          "pitch": 48,
          "velocity": 46,
          "start": 0.13802083333331439,
          "end": 0.2057291666666572,
          "duration": 0.06770833333334281
        },
        {
          "pitch": 36,
          "velocity": 60,
          "start": 0.3463541666666572,
          "end": 0.4739583333333144,
          "duration": 0.1276041666666572
        },
        {
          "pitch": 48,
          "velocity": 61,
          "start": 0.359375,
          "end": 0.4505208333333144,
          "duration": 0.09114583333331439
        },
        {
          "pitch": 65,
          "velocity": 73,
          "start": 0.359375,
          "end": 0.4713541666666572,
          "duration": 0.11197916666665719
        },
        {
          "pitch": 72,
          "velocity": 73,
          "start": 0.359375,
          "end": 0.515625,
          "duration": 0.15625
        },
        {
          "pitch": 69,
          "velocity": 73,
          "start": 0.3619791666666572,
          "end": 0.484375,
          "duration": 0.12239583333334281
        },
        {
          "pitch": 36,
          "velocity": 43,
          "start": 0.6223958333333144,
          "end": 0.7161458333333144,
          "duration": 0.09375
        },
        {
          "pitch": 48,
          "velocity": 49,
          "start": 0.625,
          "end": 0.7135416666666572,
          "duration": 0.08854166666665719
        },
        {
          "pitch": 36,
          "velocity": 55,
          "start": 0.8359375,
          "end": 0.90625,
          "duration": 0.0703125
        },
        {
          "pitch": 48,
          "velocity": 57,
          "start": 0.8515625,
          "end": 0.90625,
          "duration": 0.0546875
        },
        {
          "pitch": 65,
          "velocity": 73,
          "start": 1.0520833333333144,
          "end": 1.1484375,
          "duration": 0.09635416666668561
        },
        {
          "pitch": 36,
          "velocity": 62,
          "start": 1.0520833333333144,
          "end": 1.1510416666666572,
          "duration": 0.09895833333334281
        },
        {
          "pitch": 69,
          "velocity": 73,
          "start": 1.0520833333333144,
          "end": 1.1744791666666572,
          "duration": 0.12239583333334281
        },
        {
          "pitch": 72,
          "velocity": 72,
          "start": 1.0520833333333144,
          "end": 1.1796875,
          "duration": 0.12760416666668561
        },
        {
          "pitch": 48,
          "velocity": 66,
          "start": 1.0598958333333144,
          "end": 1.1328125,
          "duration": 0.07291666666668561
        },
        {
          "pitch": 36,
          "velocity": 49,
          "start": 1.3020833333333144,
          "end": 1.3828125,
          "duration": 0.08072916666668561
        },
        {
          "pitch": 48,
          "velocity": 58,
          "start": 1.3098958333333144,
          "end": 1.3854166666666572,
          "duration": 0.07552083333334281
        },
        {
          "pitch": 36,
          "velocity": 59,
          "start": 1.515625,
          "end": 1.6432291666666572,
          "duration": 0.1276041666666572
        },
        {
          "pitch": 48,
          "velocity": 64,
          "start": 1.53125,
          "end": 1.6432291666666572,
          "duration": 0.11197916666665719
        },
        {
          "pitch": 67,
          "velocity": 80,
          "start": 1.53125,
          "end": 1.7135416666666572,
          "duration": 0.1822916666666572
        },
        {
          "pitch": 74,
          "velocity": 78,
          "start": 1.53125,
          "end": 1.7239583333333144,
          "duration": 0.19270833333331439
        },
        {
          "pitch": 71,
          "velocity": 81,
          "start": 1.53125,
          "end": 1.8151041666666572,
          "duration": 0.2838541666666572
        },
        {
          "pitch": 36,
          "velocity": 55,
          "start": 1.765625,
          "end": 1.890625,
          "duration": 0.125
        },
        {
          "pitch": 48,
          "velocity": 57,
          "start": 1.78125,
          "end": 1.875,
          "duration": 0.09375
        },
        {
          "pitch": 67,
          "velocity": 64,
          "start": 1.9713541666666572,
          "end": 2.1770833333333144,
          "duration": 0.2057291666666572
        }
      ],
      "metadata": {
        "note_count": 26,
        "pitch_range": 38,
        "avg_velocity": 62,
        "note_density": 13.0,
        "duration": 2.0,
        "lowest_pitch": 36,
        "highest_pitch": 74
      },
      "label": "UNLABELED",
      "label_description": "",
      "is_labeled": false
    },
    {
      "id": "2025-08-03T174139Z_0_84_400ae1e9",
      "source_file": "2025-08-03T174139Z",
      "instrument_idx": 0,
      "bar_idx": 84,
      "pitch_hash": "400ae1e9",
      "notes": [
        {
          "pitch": 36,
          "velocity": 53,
          "start": 0.15364583333331439,
          "end": 0.2890625,
          "duration": 0.13541666666668561
        },
        {
          "pitch": 48,
          "velocity": 60,
          "start": 0.1666666666666572,
          "end": 0.2890625,
          "duration": 0.12239583333334281
        },
        {
          "pitch": 67,
          "velocity": 42,
          "start": 0.4166666666666572,
          "end": 0.4765625,
          "duration": 0.05989583333334281
        },
        {
          "pitch": 48,
          "velocity": 54,
          "start": 0.4479166666666572,
          "end": 0.515625,
          "duration": 0.06770833333334281
        },
        {
          "pitch": 67,
          "velocity": 73,
          "start": 0.6432291666666572,
          "end": 0.828125,
          "duration": 0.1848958333333428
        },
        {
          "pitch": 74,
          "velocity": 75,
          "start": 0.6432291666666572,
          "end": 0.8671875,
          "duration": 0.2239583333333428
        },
        {
          "pitch": 71,
          "velocity": 73,
          "start": 0.6484375,
          "end": 0.796875,
          "duration": 0.1484375
        },
        {
          "pitch": 48,
          "velocity": 61,
          "start": 0.6822916666666572,
          "end": 0.7682291666666572,
          "duration": 0.0859375
        },
        {
          "pitch": 48,
          "velocity": 48,
          "start": 0.921875,
          "end": 0.9895833333333144,
          "duration": 0.06770833333331439
        },
        {
          "pitch": 36,
          "velocity": 50,
          "start": 1.1145833333333144,
          "end": 1.2447916666666572,
          "duration": 0.1302083333333428
        },
        {
          "pitch": 48,
          "velocity": 49,
          "start": 1.1223958333333144,
          "end": 1.2239583333333144,
          "duration": 0.1015625
        },
        {
          "pitch": 76,
          "velocity": 76,
          "start": 1.3151041666666572,
          "end": 1.4322916666666572,
          "duration": 0.1171875
        },
        {
          "pitch": 67,
          "velocity": 69,
          "start": 1.3255208333333144,
          "end": 1.4427083333333144,
          "duration": 0.1171875
        },
        {
          "pitch": 72,
          "velocity": 73,
          "start": 1.3385416666666572,
          "end": 1.4192708333333144,
          "duration": 0.08072916666665719
        },
        {
          "pitch": 36,
          "velocity": 71,
          "start": 1.5338541666666572,
          "end": 1.640625,
          "duration": 0.10677083333334281
        },
        {
          "pitch": 48,
          "velocity": 63,
          "start": 1.5494791666666572,
          "end": 1.6380208333333144,
          "duration": 0.08854166666665719
        },
        {
          "pitch": 60,
          "velocity": 69,
          "start": 1.7369791666666572,
          "end": 1.8854166666666572,
          "duration": 0.1484375
        },
        {
          "pitch": 53,
          "velocity": 77,
          "start": 1.9713541666666572,
          "end": 2.486979166666657,
          "duration": 0.515625
        },
        {
          "pitch": 69,
          "velocity": 82,
          "start": 1.9739583333333144,
          "end": 2.1067708333333144,
          "duration": 0.1328125
        },
        {
          "pitch": 41,
          "velocity": 73,
          "start": 1.9739583333333144,
          "end": 2.4453125,
          "duration": 0.4713541666666856
        },
        {
          "pitch": 60,
          "velocity": 67,
          "start": 1.9817708333333144,
          "end": 2.057291666666657,
          "duration": 0.07552083333334281
        }
      ],
      "metadata": {
        "note_count": 21,
        "pitch_range": 40,
        "avg_velocity": 64,
        "note_density": 10.5,
        "duration": 2.0,
        "lowest_pitch": 36,
        "highest_pitch": 76
      },
      "label": "UNLABELED",
      "label_description": "",
      "is_labeled": false
    },
    {
      "id": "2025-08-03T174139Z_0_85_c6bee299",
      "source_file": "2025-08-03T174139Z",
      "instrument_idx": 0,
      "bar_idx": 85,
      "pitch_hash": "c6bee299",
      "notes": [
        {
          "pitch": 67,
          "velocity": 71,
          "start": 0.16145833333331439,
          "end": 0.2942708333333144,
          "duration": 0.1328125
        },
        {
          "pitch": 65,
          "velocity": 80,
          "start": 0.4114583333333144,
          "end": 0.5286458333333144,
          "duration": 0.1171875
        },
        {
          "pitch": 67,
          "velocity": 90,
          "start": 0.6302083333333144,
          "end": 0.75,
          "duration": 0.11979166666668561
        },
        {
          "pitch": 60,
          "velocity": 75,
          "start": 0.6380208333333144,
          "end": 0.734375,
          "duration": 0.09635416666668561
        },
        {
          "pitch": 62,
          "velocity": 81,
          "start": 0.640625,
          "end": 0.7395833333333144,
          "duration": 0.09895833333331439
        },
        {
          "pitch": 55,
          "velocity": 82,
          "start": 0.6458333333333144,
          "end": 1.1171875,
          "duration": 0.4713541666666856
        },
        {
          "pitch": 43,
          "velocity": 77,
          "start": 0.6458333333333144,
          "end": 1.1328125,
          "duration": 0.4869791666666856
        },
        {
          "pitch": 60,
          "velocity": 32,
          "start": 0.890625,
          "end": 0.953125,
          "duration": 0.0625
        },
        {
          "pitch": 62,
          "velocity": 31,
          "start": 0.9010416666666572,
          "end": 0.953125,
          "duration": 0.05208333333334281
        },
        {
          "pitch": 60,
          "velocity": 79,
          "start": 1.078125,
          "end": 1.296875,
          "duration": 0.21875
        },
        {
          "pitch": 43,
          "velocity": 66,
          "start": 1.296875,
          "end": 1.3776041666666572,
          "duration": 0.08072916666665719
        },
        {
          "pitch": 55,
          "velocity": 56,
          "start": 1.3072916666666572,
          "end": 1.359375,
          "duration": 0.05208333333334281
        },
        {
          "pitch": 60,
          "velocity": 51,
          "start": 1.5130208333333144,
          "end": 1.5729166666666572,
          "duration": 0.05989583333334281
        },
        {
          "pitch": 36,
          "velocity": 55,
          "start": 1.7369791666666572,
          "end": 2.25,
          "duration": 0.5130208333333428
        },
        {
          "pitch": 48,
          "velocity": 60,
          "start": 1.7473958333333144,
          "end": 2.283854166666657,
          "duration": 0.5364583333333428
        },
        {
          "pitch": 67,
          "velocity": 69,
          "start": 1.9739583333333144,
          "end": 2.0911458333333144,
          "duration": 0.1171875
        }
      ],
      "metadata": {
        "note_count": 16,
        "pitch_range": 31,
        "avg_velocity": 65,
        "note_density": 8.0,
        "duration": 2.0,
        "lowest_pitch": 36,
        "highest_pitch": 67
      },
      "label": "UNLABELED",
      "label_description": "",
      "is_labeled": false
    },
    {
      "id": "2025-08-03T174139Z_0_86_beaf7f52",
      "source_file": "2025-08-03T174139Z",
      "instrument_idx": 0,
      "bar_idx": 86,
      "pitch_hash": "beaf7f52",
      "notes": [
        {
          "pitch": 74,
          "velocity": 82,
          "start": 0.203125,
          "end": 0.7239583333333144,
          "duration": 0.5208333333333144
        },
        {
          "pitch": 67,
          "velocity": 68,
          "start": 0.203125,
          "end": 0.7395833333333144,
          "duration": 0.5364583333333144
        },
        {
          "pitch": 71,
          "velocity": 76,
          "start": 0.203125,
          "end": 0.7395833333333144,
          "duration": 0.5364583333333144
        },
        {
          "pitch": 48,
          "velocity": 57,
          "start": 0.4192708333333144,
          "end": 0.5130208333333144,
          "duration": 0.09375
        },
        {
          "pitch": 36,
          "velocity": 56,
          "start": 0.4192708333333144,
          "end": 0.5208333333333144,
          "duration": 0.1015625
        },
        {
          "pitch": 36,
          "velocity": 55,
          "start": 0.640625,
          "end": 0.9505208333333144,
          "duration": 0.3098958333333144
        },
        {
          "pitch": 48,
          "velocity": 54,
          "start": 0.6510416666666572,
          "end": 0.9583333333333144,
          "duration": 0.3072916666666572
        },
        {
          "pitch": 67,
          "velocity": 59,
          "start": 0.8541666666666572,
          "end": 0.9947916666666572,
          "duration": 0.140625
        },
        {
          "pitch": 76,
          "velocity": 87,
          "start": 0.859375,
          "end": 1.0286458333333144,
          "duration": 0.16927083333331439
        },
        {
          "pitch": 72,
          "velocity": 76,
          "start": 0.8776041666666572,
          "end": 1.0520833333333144,
          "duration": 0.1744791666666572
        },
        {
          "pitch": 36,
          "velocity": 56,
          "start": 1.0494791666666572,
          "end": 1.3333333333333144,
          "duration": 0.2838541666666572
        },
        {
          "pitch": 48,
          "velocity": 56,
          "start": 1.078125,
          "end": 1.3723958333333144,
          "duration": 0.2942708333333144
        },
        {
          "pitch": 65,
          "velocity": 70,
          "start": 1.296875,
          "end": 1.4322916666666572,
          "duration": 0.1354166666666572
        },
        {
          "pitch": 69,
          "velocity": 80,
          "start": 1.5026041666666572,
          "end": 1.6041666666666572,
          "duration": 0.1015625
        },
        {
          "pitch": 72,
          "velocity": 80,
          "start": 1.5104166666666572,
          "end": 1.7291666666666572,
          "duration": 0.21875
        },
        {
          "pitch": 36,
          "velocity": 59,
          "start": 1.5104166666666572,
          "end": 1.9869791666666572,
          "duration": 0.4765625
        },
        {
          "pitch": 65,
          "velocity": 59,
          "start": 1.5182291666666572,
          "end": 1.5651041666666572,
          "duration": 0.046875
        },
        {
          "pitch": 48,
          "velocity": 60,
          "start": 1.5182291666666572,
          "end": 2.0286458333333144,
          "duration": 0.5104166666666572
        },
        {
          "pitch": 65,
          "velocity": 67,
          "start": 1.703125,
          "end": 1.8203125,
          "duration": 0.1171875
        },
        {
          "pitch": 65,
          "velocity": 65,
          "start": 1.9192708333333144,
          "end": 2.0442708333333144,
          "duration": 0.125
        },
        {
          "pitch": 69,
          "velocity": 63,
          "start": 1.9479166666666572,
          "end": 2.0078125,
          "duration": 0.05989583333334281
        }
      ],
      "metadata": {
        "note_count": 21,
        "pitch_range": 40,
        "avg_velocity": 65,
        "note_density": 10.5,
        "duration": 2.0,
        "lowest_pitch": 36,
        "highest_pitch": 76
      },
      "label": "UNLABELED",
      "label_description": "",
      "is_labeled": false
    },
    {
      "id": "2025-08-03T174139Z_0_87_269d6b01",
      "source_file": "2025-08-03T174139Z",
      "instrument_idx": 0,
      "bar_idx": 87,
      "pitch_hash": "269d6b01",
      "notes": [
        {
          "pitch": 65,
          "velocity": 65,
          "start": 0.13802083333331439,
          "end": 0.21875,
          "duration": 0.08072916666668561
        },
        {
          "pitch": 72,
          "velocity": 87,
          "start": 0.13802083333331439,
          "end": 0.328125,
          "duration": 0.19010416666668561
        },
        {
          "pitch": 36,
          "velocity": 55,
          "start": 0.1588541666666572,
          "end": 0.4401041666666572,
          "duration": 0.28125
        },
        {
          "pitch": 48,
          "velocity": 57,
          "start": 0.1588541666666572,
          "end": 0.546875,
          "duration": 0.3880208333333428
        },
        {
          "pitch": 65,
          "velocity": 62,
          "start": 0.3515625,
          "end": 0.40625,
          "duration": 0.0546875
        },
        {
          "pitch": 67,
          "velocity": 71,
          "start": 0.5598958333333144,
          "end": 0.7526041666666572,
          "duration": 0.1927083333333428
        },
        {
          "pitch": 74,
          "velocity": 77,
          "start": 0.5598958333333144,
          "end": 0.8828125,
          "duration": 0.3229166666666856
        },
        {
          "pitch": 71,
          "velocity": 73,
          "start": 0.5651041666666572,
          "end": 0.8098958333333144,
          "duration": 0.2447916666666572
        },
        {
          "pitch": 36,
          "velocity": 54,
          "start": 0.7734375,
          "end": 0.9791666666666572,
          "duration": 0.2057291666666572
        },
        {
          "pitch": 48,
          "velocity": 63,
          "start": 0.7734375,
          "end": 1.0052083333333144,
          "duration": 0.23177083333331439
        },
        {
          "pitch": 67,
          "velocity": 76,
          "start": 1.0052083333333144,
          "end": 1.2630208333333144,
          "duration": 0.2578125
        },
        {
          "pitch": 36,
          "velocity": 54,
          "start": 1.2239583333333144,
          "end": 1.5911458333333144,
          "duration": 0.3671875
        },
        {
          "pitch": 48,
          "velocity": 55,
          "start": 1.234375,
          "end": 1.6510416666666572,
          "duration": 0.4166666666666572
        },
        {
          "pitch": 67,
          "velocity": 62,
          "start": 1.4453125,
          "end": 1.5755208333333144,
          "duration": 0.13020833333331439
        },
        {
          "pitch": 71,
          "velocity": 70,
          "start": 1.6458333333333144,
          "end": 2.2630208333333144,
          "duration": 0.6171875
        },
        {
          "pitch": 74,
          "velocity": 72,
          "start": 1.6536458333333144,
          "end": 2.2630208333333144,
          "duration": 0.609375
        },
        {
          "pitch": 67,
          "velocity": 73,
          "start": 1.6536458333333144,
          "end": 2.265625,
          "duration": 0.6119791666666856
        },
        {
          "pitch": 36,
          "velocity": 55,
          "start": 1.8697916666666572,
          "end": 2.0052083333333144,
          "duration": 0.1354166666666572
        },
        {
          "pitch": 48,
          "velocity": 57,
          "start": 1.8854166666666572,
          "end": 1.9765625,
          "duration": 0.09114583333334281
        }
      ],
      "metadata": {
        "note_count": 19,
        "pitch_range": 38,
        "avg_velocity": 65,
        "note_density": 9.5,
        "duration": 2.0,
        "lowest_pitch": 36,
        "highest_pitch": 74
      },
      "label": "UNLABELED",
      "label_description": "",
      "is_labeled": false
    },
    {
      "id": "2025-08-03T174139Z_0_88_95fe59ca",
      "source_file": "2025-08-03T174139Z",
      "instrument_idx": 0,
      "bar_idx": 88,
      "pitch_hash": "95fe59ca",
      "notes": [
        {
          "pitch": 36,
          "velocity": 55,
          "start": 0.11197916666665719,
          "end": 0.390625,
          "duration": 0.2786458333333428
        },
        {
          "pitch": 48,
          "velocity": 57,
          "start": 0.125,
          "end": 0.390625,
          "duration": 0.265625
        },
        {
          "pitch": 67,
          "velocity": 46,
          "start": 0.3307291666666572,
          "end": 0.46875,
          "duration": 0.1380208333333428
        },
        {
          "pitch": 76,
          "velocity": 86,
          "start": 0.3359375,
          "end": 0.4661458333333144,
          "duration": 0.13020833333331439
        },
        {
          "pitch": 72,
          "velocity": 80,
          "start": 0.3385416666666572,
          "end": 0.4817708333333144,
          "duration": 0.1432291666666572
        },
        {
          "pitch": 36,
          "velocity": 59,
          "start": 0.5260416666666572,
          "end": 0.6510416666666572,
          "duration": 0.125
        },
        {
          "pitch": 48,
          "velocity": 56,
          "start": 0.5520833333333144,
          "end": 0.6901041666666572,
          "duration": 0.1380208333333428
        },
        {
          "pitch": 60,
          "velocity": 67,
          "start": 0.7369791666666572,
          "end": 1.375,
          "duration": 0.6380208333333428
        },
        {
          "pitch": 69,
          "velocity": 81,
          "start": 0.9713541666666572,
          "end": 1.5052083333333144,
          "duration": 0.5338541666666572
        },
        {
          "pitch": 53,
          "velocity": 75,
          "start": 0.9713541666666572,
          "end": 1.640625,
          "duration": 0.6692708333333428
        },
        {
          "pitch": 41,
          "velocity": 71,
          "start": 0.9765625,
          "end": 1.5729166666666572,
          "duration": 0.5963541666666572
        },
        {
          "pitch": 67,
          "velocity": 77,
          "start": 1.265625,
          "end": 1.6536458333333144,
          "duration": 0.3880208333333144
        },
        {
          "pitch": 65,
          "velocity": 75,
          "start": 1.5546875,
          "end": 1.7369791666666572,
          "duration": 0.1822916666666572
        },
        {
          "pitch": 67,
          "velocity": 85,
          "start": 1.8177083333333144,
          "end": 2.041666666666657,
          "duration": 0.2239583333333428
        },
        {
          "pitch": 43,
          "velocity": 71,
          "start": 1.8177083333333144,
          "end": 2.2734375,
          "duration": 0.4557291666666856
        },
        {
          "pitch": 62,
          "velocity": 72,
          "start": 1.8255208333333144,
          "end": 1.96875,
          "duration": 0.14322916666668561
        },
        {
          "pitch": 55,
          "velocity": 73,
          "start": 1.8255208333333144,
          "end": 2.2317708333333144,
          "duration": 0.40625
        },
        {
          "pitch": 60,
          "velocity": 81,
          "start": 1.828125,
          "end": 1.9583333333333144,
          "duration": 0.13020833333331439
        }
      ],
      "metadata": {
        "note_count": 18,
        "pitch_range": 40,
        "avg_velocity": 70,
        "note_density": 9.0,
        "duration": 2.0,
        "lowest_pitch": 36,
        "highest_pitch": 76
      },
      "label": "UNLABELED",
      "label_description": "",
      "is_labeled": false
    },
    {
      "id": "2025-08-03T174139Z_0_89_019bb7df",
      "source_file": "2025-08-03T174139Z",
      "instrument_idx": 0,
      "bar_idx": 89,
      "pitch_hash": "019bb7df",
      "notes": [
        {
          "pitch": 60,
          "velocity": 81,
          "start": 0.2708333333333144,
          "end": 0.5260416666666572,
          "duration": 0.2552083333333428
        },
        {
          "pitch": 67,
          "velocity": 59,
          "start": 0.2760416666666572,
          "end": 0.3307291666666572,
          "duration": 0.0546875
        },
        {
          "pitch": 48,
          "velocity": 66,
          "start": 0.5182291666666572,
          "end": 0.5677083333333144,
          "duration": 0.04947916666665719
        },
        {
          "pitch": 36,
          "velocity": 68,
          "start": 0.7473958333333144,
          "end": 1.2265625,
          "duration": 0.4791666666666856
        },
        {
          "pitch": 48,
          "velocity": 69,
          "start": 0.7473958333333144,
          "end": 1.234375,
          "duration": 0.4869791666666856
        },
        {
          "pitch": 67,
          "velocity": 50,
          "start": 0.9479166666666572,
          "end": 1.1223958333333144,
          "duration": 0.1744791666666572
        },
        {
          "pitch": 71,
          "velocity": 64,
          "start": 1.1822916666666572,
          "end": 1.328125,
          "duration": 0.1458333333333428
        },
        {
          "pitch": 67,
          "velocity": 46,
          "start": 1.1901041666666572,
          "end": 1.3515625,
          "duration": 0.1614583333333428
        },
        {
          "pitch": 74,
          "velocity": 74,
          "start": 1.1901041666666572,
          "end": 1.3932291666666572,
          "duration": 0.203125
        },
        {
          "pitch": 48,
          "velocity": 50,
          "start": 1.3854166666666572,
          "end": 1.4479166666666572,
          "duration": 0.0625
        },
        {
          "pitch": 36,
          "velocity": 39,
          "start": 1.3880208333333144,
          "end": 1.4609375,
          "duration": 0.07291666666668561
        },
        {
          "pitch": 36,
          "velocity": 48,
          "start": 1.5963541666666572,
          "end": 1.8541666666666572,
          "duration": 0.2578125
        },
        {
          "pitch": 48,
          "velocity": 51,
          "start": 1.6145833333333144,
          "end": 1.859375,
          "duration": 0.24479166666668561
        },
        {
          "pitch": 76,
          "velocity": 78,
          "start": 1.8046875,
          "end": 1.9765625,
          "duration": 0.171875
        },
        {
          "pitch": 67,
          "velocity": 54,
          "start": 1.8307291666666572,
          "end": 1.8984375,
          "duration": 0.06770833333334281
        },
        {
          "pitch": 72,
          "velocity": 62,
          "start": 1.8333333333333144,
          "end": 1.9427083333333144,
          "duration": 0.109375
        }
      ],
      "metadata": {
        "note_count": 16,
        "pitch_range": 40,
        "avg_velocity": 59,
        "note_density": 8.0,
        "duration": 2.0,
        "lowest_pitch": 36,
        "highest_pitch": 76
      },
      "label": "UNLABELED",
      "label_description": "",
      "is_labeled": false
    },
    {
      "id": "2025-08-03T174139Z_0_90_ebcf6b6d",
      "source_file": "2025-08-03T174139Z",
      "instrument_idx": 0,
      "bar_idx": 90,
      "pitch_hash": "ebcf6b6d",
      "notes": [
        {
          "pitch": 36,
          "velocity": 42,
          "start": 0.0026041666666571928,
          "end": 0.20052083333331439,
          "duration": 0.1979166666666572
        },
        {
          "pitch": 48,
          "velocity": 54,
          "start": 0.03385416666665719,
          "end": 0.19270833333331439,
          "duration": 0.1588541666666572
        },
        {
          "pitch": 65,
          "velocity": 67,
          "start": 0.22395833333331439,
          "end": 0.3515625,
          "duration": 0.12760416666668561
        },
        {
          "pitch": 36,
          "velocity": 52,
          "start": 0.4505208333333144,
          "end": 0.8828125,
          "duration": 0.4322916666666856
        },
        {
          "pitch": 48,
          "velocity": 54,
          "start": 0.4505208333333144,
          "end": 0.9322916666666572,
          "duration": 0.4817708333333428
        },
        {
          "pitch": 65,
          "velocity": 58,
          "start": 0.453125,
          "end": 0.5260416666666572,
          "duration": 0.07291666666665719
        },
        {
          "pitch": 69,
          "velocity": 69,
          "start": 0.453125,
          "end": 0.5442708333333144,
          "duration": 0.09114583333331439
        },
        {
          "pitch": 72,
          "velocity": 69,
          "start": 0.453125,
          "end": 0.5494791666666572,
          "duration": 0.09635416666665719
        },
        {
          "pitch": 65,
          "velocity": 61,
          "start": 0.6848958333333144,
          "end": 0.7395833333333144,
          "duration": 0.0546875
        },
        {
          "pitch": 65,
          "velocity": 56,
          "start": 0.8671875,
          "end": 0.9765625,
          "duration": 0.109375
        },
        {
          "pitch": 69,
          "velocity": 75,
          "start": 1.09375,
          "end": 1.1953125,
          "duration": 0.1015625
        },
        {
          "pitch": 72,
          "velocity": 73,
          "start": 1.0963541666666572,
          "end": 1.2291666666666572,
          "duration": 0.1328125
        },
        {
          "pitch": 36,
          "velocity": 51,
          "start": 1.1119791666666572,
          "end": 1.4166666666666572,
          "duration": 0.3046875
        },
        {
          "pitch": 48,
          "velocity": 54,
          "start": 1.1119791666666572,
          "end": 1.5078125,
          "duration": 0.3958333333333428
        },
        {
          "pitch": 65,
          "velocity": 39,
          "start": 1.1223958333333144,
          "end": 1.1770833333333144,
          "duration": 0.0546875
        },
        {
          "pitch": 65,
          "velocity": 58,
          "start": 1.2786458333333144,
          "end": 1.3619791666666572,
          "duration": 0.08333333333334281
        },
        {
          "pitch": 67,
          "velocity": 71,
          "start": 1.5052083333333144,
          "end": 1.6666666666666572,
          "duration": 0.1614583333333428
        },
        {
          "pitch": 74,
          "velocity": 76,
          "start": 1.5052083333333144,
          "end": 1.7369791666666572,
          "duration": 0.2317708333333428
        },
        {
          "pitch": 71,
          "velocity": 56,
          "start": 1.5286458333333144,
          "end": 1.6354166666666572,
          "duration": 0.10677083333334281
        },
        {
          "pitch": 36,
          "velocity": 53,
          "start": 1.7239583333333144,
          "end": 1.9114583333333144,
          "duration": 0.1875
        },
        {
          "pitch": 48,
          "velocity": 57,
          "start": 1.7265625,
          "end": 1.9479166666666572,
          "duration": 0.2213541666666572
        },
        {
          "pitch": 67,
          "velocity": 61,
          "start": 1.9348958333333144,
          "end": 2.1302083333333144,
          "duration": 0.1953125
        }
      ],
      "metadata": {
        "note_count": 22,
        "pitch_range": 38,
        "avg_velocity": 59,
        "note_density": 11.0,
        "duration": 2.0,
        "lowest_pitch": 36,
        "highest_pitch": 74
      },
      "label": "UNLABELED",
      "label_description": "",
      "is_labeled": false
    },
    {
      "id": "2025-08-03T174139Z_0_91_2d34c1ae",
      "source_file": "2025-08-03T174139Z",
      "instrument_idx": 0,
      "bar_idx": 91,
      "pitch_hash": "2d34c1ae",
      "notes": [
        {
          "pitch": 36,
          "velocity": 52,
          "start": 0.15625,
          "end": 0.578125,
          "duration": 0.421875
        },
        {
          "pitch": 48,
          "velocity": 55,
          "start": 0.1588541666666572,
          "end": 0.609375,
          "duration": 0.4505208333333428
        },
        {
          "pitch": 67,
          "velocity": 54,
          "start": 0.3723958333333144,
          "end": 0.90625,
          "duration": 0.5338541666666856
        },
        {
          "pitch": 71,
          "velocity": 72,
          "start": 0.6041666666666572,
          "end": 0.9583333333333144,
          "duration": 0.3541666666666572
        },
        {
          "pitch": 48,
          "velocity": 61,
          "start": 0.8229166666666572,
          "end": 1.28125,
          "duration": 0.4583333333333428
        },
        {
          "pitch": 36,
          "velocity": 50,
          "start": 0.8411458333333144,
          "end": 1.2213541666666572,
          "duration": 0.3802083333333428
        },
        {
          "pitch": 74,
          "velocity": 76,
          "start": 0.8645833333333144,
          "end": 1.0338541666666572,
          "duration": 0.1692708333333428
        },
        {
          "pitch": 74,
          "velocity": 56,
          "start": 1.1640625,
          "end": 1.390625,
          "duration": 0.2265625
        },
        {
          "pitch": 67,
          "velocity": 49,
          "start": 1.2161458333333144,
          "end": 1.2916666666666572,
          "duration": 0.07552083333334281
        },
        {
          "pitch": 76,
          "velocity": 81,
          "start": 1.4401041666666572,
          "end": 1.6328125,
          "duration": 0.1927083333333428
        },
        {
          "pitch": 36,
          "velocity": 46,
          "start": 1.6796875,
          "end": 1.78125,
          "duration": 0.1015625
        },
        {
          "pitch": 48,
          "velocity": 51,
          "start": 1.6796875,
          "end": 1.7942708333333144,
          "duration": 0.11458333333331439
        }
      ],
      "metadata": {
        "note_count": 12,
        "pitch_range": 40,
        "avg_velocity": 58,
        "note_density": 6.0,
        "duration": 2.0,
        "lowest_pitch": 36,
        "highest_pitch": 76
      },
      "label": "UNLABELED",
      "label_description": "",
      "is_labeled": false
    },
    {
      "id": "2025-08-03T174139Z_0_92_6e4ba6dc",
      "source_file": "2025-08-03T174139Z",
      "instrument_idx": 0,
      "bar_idx": 92,
      "pitch_hash": "6e4ba6dc",
      "notes": [
        {
          "pitch": 69,
          "velocity": 69,
          "start": 0.3229166666666572,
          "end": 0.7161458333333144,
          "duration": 0.3932291666666572
        },
        {
          "pitch": 60,
          "velocity": 50,
          "start": 0.328125,
          "end": 0.5052083333333144,
          "duration": 0.17708333333331439
        },
        {
          "pitch": 41,
          "velocity": 43,
          "start": 0.3385416666666572,
          "end": 0.7786458333333144,
          "duration": 0.4401041666666572
        },
        {
          "pitch": 53,
          "velocity": 34,
          "start": 0.3385416666666572,
          "end": 0.8177083333333144,
          "duration": 0.4791666666666572
        },
        {
          "pitch": 67,
          "velocity": 62,
          "start": 0.6171875,
          "end": 0.8385416666666572,
          "duration": 0.2213541666666572
        },
        {
          "pitch": 65,
          "velocity": 50,
          "start": 0.8046875,
          "end": 0.9088541666666572,
          "duration": 0.10416666666665719
        },
        {
          "pitch": 65,
          "velocity": 51,
          "start": 1.0,
          "end": 1.2682291666666572,
          "duration": 0.2682291666666572
        },
        {
          "pitch": 67,
          "velocity": 67,
          "start": 1.0052083333333144,
          "end": 1.0911458333333144,
          "duration": 0.0859375
        },
        {
          "pitch": 43,
          "velocity": 51,
          "start": 1.21875,
          "end": 1.6744791666666572,
          "duration": 0.4557291666666572
        },
        {
          "pitch": 67,
          "velocity": 61,
          "start": 1.2369791666666572,
          "end": 1.5833333333333144,
          "duration": 0.3463541666666572
        },
        {
          "pitch": 55,
          "velocity": 47,
          "start": 1.2421875,
          "end": 1.6588541666666572,
          "duration": 0.4166666666666572
        },
        {
          "pitch": 62,
          "velocity": 46,
          "start": 1.2682291666666572,
          "end": 1.3489583333333144,
          "duration": 0.08072916666665719
        },
        {
          "pitch": 60,
          "velocity": 45,
          "start": 1.2682291666666572,
          "end": 1.3489583333333144,
          "duration": 0.08072916666665719
        },
        {
          "pitch": 60,
          "velocity": 50,
          "start": 1.7005208333333144,
          "end": 1.8255208333333144,
          "duration": 0.125
        },
        {
          "pitch": 62,
          "velocity": 52,
          "start": 1.7005208333333144,
          "end": 1.8307291666666572,
          "duration": 0.1302083333333428
        },
        {
          "pitch": 67,
          "velocity": 55,
          "start": 1.7005208333333144,
          "end": 1.8854166666666572,
          "duration": 0.1848958333333428
        },
        {
          "pitch": 43,
          "velocity": 52,
          "start": 1.9088541666666572,
          "end": 2.5598958333333144,
          "duration": 0.6510416666666572
        },
        {
          "pitch": 55,
          "velocity": 48,
          "start": 1.9166666666666572,
          "end": 2.5755208333333144,
          "duration": 0.6588541666666572
        }
      ],
      "metadata": {
        "note_count": 18,
        "pitch_range": 28,
        "avg_velocity": 51,
        "note_density": 9.0,
        "duration": 2.0,
        "lowest_pitch": 41,
        "highest_pitch": 69
      },
      "label": "UNLABELED",
      "label_description": "",
      "is_labeled": false
    },
    {
      "id": "2025-08-03T174139Z_0_93_dcccf1d7",
      "source_file": "2025-08-03T174139Z",
      "instrument_idx": 0,
      "bar_idx": 93,
      "pitch_hash": "dcccf1d7",
      "notes": [
        {
          "pitch": 62,
          "velocity": 65,
          "start": 0.1484375,
          "end": 0.2630208333333144,
          "duration": 0.11458333333331439
        },
        {
          "pitch": 67,
          "velocity": 71,
          "start": 0.1510416666666572,
          "end": 0.3151041666666572,
          "duration": 0.1640625
        },
        {
          "pitch": 67,
          "velocity": 67,
          "start": 0.59375,
          "end": 0.7890625,
          "duration": 0.1953125
        },
        {
          "pitch": 62,
          "velocity": 51,
          "start": 0.6145833333333144,
          "end": 0.7395833333333144,
          "duration": 0.125
        },
        {
          "pitch": 60,
          "velocity": 48,
          "start": 0.6145833333333144,
          "end": 0.7395833333333144,
          "duration": 0.125
        },
        {
          "pitch": 43,
          "velocity": 48,
          "start": 0.8229166666666572,
          "end": 1.3619791666666572,
          "duration": 0.5390625
        },
        {
          "pitch": 55,
          "velocity": 47,
          "start": 0.8307291666666572,
          "end": 1.3958333333333144,
          "duration": 0.5651041666666572
        },
        {
          "pitch": 67,
          "velocity": 65,
          "start": 1.046875,
          "end": 1.2265625,
          "duration": 0.1796875
        },
        {
          "pitch": 62,
          "velocity": 44,
          "start": 1.0807291666666572,
          "end": 1.1588541666666572,
          "duration": 0.078125
        },
        {
          "pitch": 60,
          "velocity": 47,
          "start": 1.2916666666666572,
          "end": 1.375,
          "duration": 0.08333333333334281
        },
        {
          "pitch": 62,
          "velocity": 42,
          "start": 1.3229166666666572,
          "end": 1.375,
          "duration": 0.05208333333334281
        },
        {
          "pitch": 60,
          "velocity": 49,
          "start": 1.484375,
          "end": 1.6171875,
          "duration": 0.1328125
        },
        {
          "pitch": 67,
          "velocity": 63,
          "start": 1.484375,
          "end": 1.6432291666666572,
          "duration": 0.1588541666666572
        },
        {
          "pitch": 62,
          "velocity": 46,
          "start": 1.5104166666666572,
          "end": 1.6041666666666572,
          "duration": 0.09375
        },
        {
          "pitch": 43,
          "velocity": 47,
          "start": 1.7109375,
          "end": 2.018229166666657,
          "duration": 0.3072916666666572
        },
        {
          "pitch": 55,
          "velocity": 45,
          "start": 1.7161458333333144,
          "end": 2.018229166666657,
          "duration": 0.3020833333333428
        },
        {
          "pitch": 67,
          "velocity": 67,
          "start": 1.9375,
          "end": 2.0833333333333144,
          "duration": 0.14583333333331439
        },
        {
          "pitch": 60,
          "velocity": 50,
          "start": 1.9479166666666572,
          "end": 2.015625,
          "duration": 0.06770833333334281
        },
        {
          "pitch": 62,
          "velocity": 54,
          "start": 1.9505208333333144,
          "end": 2.015625,
          "duration": 0.06510416666668561
        }
      ],
      "metadata": {
        "note_count": 19,
        "pitch_range": 24,
        "avg_velocity": 53,
        "note_density": 9.5,
        "duration": 2.0,
        "lowest_pitch": 43,
        "highest_pitch": 67
      },
      "label": "UNLABELED",
      "label_description": "",
      "is_labeled": false
    },
    {
      "id": "2025-08-03T174139Z_0_94_2de1aa1c",
      "source_file": "2025-08-03T174139Z",
      "instrument_idx": 0,
      "bar_idx": 94,
      "pitch_hash": "2de1aa1c",
      "notes": [
        {
          "pitch": 60,
          "velocity": 33,
          "start": 0.19270833333331439,
          "end": 0.2421875,
          "duration": 0.049479166666685614
        },
        {
          "pitch": 60,
          "velocity": 50,
          "start": 0.3880208333333144,
          "end": 0.4947916666666572,
          "duration": 0.10677083333334281
        },
        {
          "pitch": 60,
          "velocity": 55,
          "start": 0.6145833333333144,
          "end": 0.8489583333333144,
          "duration": 0.234375
        },
        {
          "pitch": 72,
          "velocity": 76,
          "start": 0.8229166666666572,
          "end": 0.984375,
          "duration": 0.1614583333333428
        },
        {
          "pitch": 48,
          "velocity": 55,
          "start": 0.828125,
          "end": 1.3020833333333144,
          "duration": 0.4739583333333144
        },
        {
          "pitch": 36,
          "velocity": 50,
          "start": 0.828125,
          "end": 1.3020833333333144,
          "duration": 0.4739583333333144
        },
        {
          "pitch": 67,
          "velocity": 62,
          "start": 1.0390625,
          "end": 1.2395833333333144,
          "duration": 0.20052083333331439
        },
        {
          "pitch": 60,
          "velocity": 72,
          "start": 1.2604166666666572,
          "end": 1.40625,
          "duration": 0.1458333333333428
        },
        {
          "pitch": 72,
          "velocity": 79,
          "start": 1.4869791666666572,
          "end": 1.7421875,
          "duration": 0.2552083333333428
        },
        {
          "pitch": 36,
          "velocity": 46,
          "start": 1.5078125,
          "end": 1.9791666666666572,
          "duration": 0.4713541666666572
        },
        {
          "pitch": 48,
          "velocity": 54,
          "start": 1.5104166666666572,
          "end": 1.9817708333333144,
          "duration": 0.4713541666666572
        },
        {
          "pitch": 60,
          "velocity": 47,
          "start": 1.5182291666666572,
          "end": 1.5755208333333144,
          "duration": 0.05729166666665719
        },
        {
          "pitch": 60,
          "velocity": 61,
          "start": 1.6901041666666572,
          "end": 1.765625,
          "duration": 0.07552083333334281
        },
        {
          "pitch": 67,
          "velocity": 72,
          "start": 1.921875,
          "end": 2.1380208333333144,
          "duration": 0.21614583333331439
        },
        {
          "pitch": 60,
          "velocity": 44,
          "start": 1.96875,
          "end": 2.0703125,
          "duration": 0.1015625
        }
      ],
      "metadata": {
        "note_count": 15,
        "pitch_range": 36,
        "avg_velocity": 57,
        "note_density": 7.5,
        "duration": 2.0,
        "lowest_pitch": 36,
        "highest_pitch": 72
      },
      "label": "UNLABELED",
      "label_description": "",
      "is_labeled": false
    },
    {
      "id": "2025-08-03T174139Z_0_95_caf08dde",
      "source_file": "2025-08-03T174139Z",
      "instrument_idx": 0,
      "bar_idx": 95,
      "pitch_hash": "caf08dde",
      "notes": [
        {
          "pitch": 36,
          "velocity": 58,
          "start": 0.1432291666666572,
          "end": 0.2265625,
          "duration": 0.08333333333334281
        },
        {
          "pitch": 48,
          "velocity": 53,
          "start": 0.1588541666666572,
          "end": 0.3072916666666572,
          "duration": 0.1484375
        },
        {
          "pitch": 67,
          "velocity": 59,
          "start": 0.359375,
          "end": 0.4505208333333144,
          "duration": 0.09114583333331439
        },
        {
          "pitch": 60,
          "velocity": 42,
          "start": 0.4036458333333144,
          "end": 0.4921875,
          "duration": 0.08854166666668561
        },
        {
          "pitch": 60,
          "velocity": 26,
          "start": 0.5546875,
          "end": 0.6302083333333144,
          "duration": 0.07552083333331439
        },
        {
          "pitch": 41,
          "velocity": 59,
          "start": 0.5677083333333144,
          "end": 0.9869791666666572,
          "duration": 0.4192708333333428
        },
        {
          "pitch": 69,
          "velocity": 70,
          "start": 0.5755208333333144,
          "end": 0.7135416666666572,
          "duration": 0.1380208333333428
        },
        {
          "pitch": 53,
          "velocity": 53,
          "start": 0.5755208333333144,
          "end": 0.9791666666666572,
          "duration": 0.4036458333333428
        },
        {
          "pitch": 67,
          "velocity": 59,
          "start": 0.7916666666666572,
          "end": 0.9192708333333144,
          "duration": 0.1276041666666572
        },
        {
          "pitch": 60,
          "velocity": 46,
          "start": 0.8125,
          "end": 0.890625,
          "duration": 0.078125
        },
        {
          "pitch": 60,
          "velocity": 52,
          "start": 1.0052083333333144,
          "end": 1.0859375,
          "duration": 0.08072916666668561
        },
        {
          "pitch": 67,
          "velocity": 46,
          "start": 1.0286458333333144,
          "end": 1.09375,
          "duration": 0.06510416666668561
        },
        {
          "pitch": 67,
          "velocity": 62,
          "start": 1.1979166666666572,
          "end": 1.3229166666666572,
          "duration": 0.125
        },
        {
          "pitch": 60,
          "velocity": 58,
          "start": 1.203125,
          "end": 1.2942708333333144,
          "duration": 0.09114583333331439
        },
        {
          "pitch": 41,
          "velocity": 54,
          "start": 1.2057291666666572,
          "end": 1.6692708333333144,
          "duration": 0.4635416666666572
        },
        {
          "pitch": 53,
          "velocity": 53,
          "start": 1.2109375,
          "end": 1.6692708333333144,
          "duration": 0.4583333333333144
        },
        {
          "pitch": 60,
          "velocity": 51,
          "start": 1.4114583333333144,
          "end": 1.484375,
          "duration": 0.07291666666668561
        },
        {
          "pitch": 67,
          "velocity": 47,
          "start": 1.4296875,
          "end": 1.5026041666666572,
          "duration": 0.07291666666665719
        },
        {
          "pitch": 67,
          "velocity": 59,
          "start": 1.6354166666666572,
          "end": 1.7864583333333144,
          "duration": 0.1510416666666572
        },
        {
          "pitch": 60,
          "velocity": 51,
          "start": 1.640625,
          "end": 1.7708333333333144,
          "duration": 0.13020833333331439
        },
        {
          "pitch": 53,
          "velocity": 55,
          "start": 1.8515625,
          "end": 1.9375,
          "duration": 0.0859375
        },
        {
          "pitch": 41,
          "velocity": 52,
          "start": 1.8567708333333144,
          "end": 1.9817708333333144,
          "duration": 0.125
        }
      ],
      "metadata": {
        "note_count": 22,
        "pitch_range": 33,
        "avg_velocity": 52,
        "note_density": 11.0,
        "duration": 2.0,
        "lowest_pitch": 36,
        "highest_pitch": 69
      },
      "label": "UNLABELED",
      "label_description": "",
      "is_labeled": false
    },
    {
      "id": "2025-08-03T174139Z_0_96_923179e6",
      "source_file": "2025-08-03T174139Z",
      "instrument_idx": 0,
      "bar_idx": 96,
      "pitch_hash": "923179e6",
      "notes": [
        {
          "pitch": 60,
          "velocity": 60,
          "start": 0.052083333333314386,
          "end": 0.13802083333331439,
          "duration": 0.0859375
        },
        {
          "pitch": 67,
          "velocity": 61,
          "start": 0.059895833333314386,
          "end": 0.1432291666666572,
          "duration": 0.08333333333334281
        },
        {
          "pitch": 67,
          "velocity": 65,
          "start": 0.2786458333333144,
          "end": 0.4479166666666572,
          "duration": 0.1692708333333428
        },
        {
          "pitch": 48,
          "velocity": 51,
          "start": 0.2786458333333144,
          "end": 0.7630208333333144,
          "duration": 0.484375
        },
        {
          "pitch": 60,
          "velocity": 51,
          "start": 0.28125,
          "end": 0.4453125,
          "duration": 0.1640625
        },
        {
          "pitch": 36,
          "velocity": 44,
          "start": 0.2864583333333144,
          "end": 0.7421875,
          "duration": 0.4557291666666856
        },
        {
          "pitch": 72,
          "velocity": 72,
          "start": 0.4817708333333144,
          "end": 0.6692708333333144,
          "duration": 0.1875
        },
        {
          "pitch": 60,
          "velocity": 71,
          "start": 0.7005208333333144,
          "end": 0.78125,
          "duration": 0.08072916666668561
        },
        {
          "pitch": 36,
          "velocity": 52,
          "start": 0.8984375,
          "end": 1.3932291666666572,
          "duration": 0.4947916666666572
        },
        {
          "pitch": 67,
          "velocity": 69,
          "start": 0.9010416666666572,
          "end": 1.0104166666666572,
          "duration": 0.109375
        },
        {
          "pitch": 60,
          "velocity": 62,
          "start": 0.9036458333333144,
          "end": 0.9921875,
          "duration": 0.08854166666668561
        },
        {
          "pitch": 48,
          "velocity": 59,
          "start": 0.9192708333333144,
          "end": 1.359375,
          "duration": 0.4401041666666856
        },
        {
          "pitch": 60,
          "velocity": 56,
          "start": 1.1171875,
          "end": 1.2005208333333144,
          "duration": 0.08333333333331439
        },
        {
          "pitch": 72,
          "velocity": 78,
          "start": 1.2994791666666572,
          "end": 1.5572916666666572,
          "duration": 0.2578125
        },
        {
          "pitch": 36,
          "velocity": 54,
          "start": 1.515625,
          "end": 1.5625,
          "duration": 0.046875
        },
        {
          "pitch": 48,
          "velocity": 51,
          "start": 1.5390625,
          "end": 1.59375,
          "duration": 0.0546875
        },
        {
          "pitch": 69,
          "velocity": 66,
          "start": 1.6927083333333144,
          "end": 1.8151041666666572,
          "duration": 0.12239583333334281
        },
        {
          "pitch": 53,
          "velocity": 57,
          "start": 1.9140625,
          "end": 2.4036458333333144,
          "duration": 0.4895833333333144
        },
        {
          "pitch": 69,
          "velocity": 63,
          "start": 1.921875,
          "end": 2.127604166666657,
          "duration": 0.2057291666666572
        },
        {
          "pitch": 41,
          "velocity": 62,
          "start": 1.9244791666666572,
          "end": 2.390625,
          "duration": 0.4661458333333428
        }
      ],
      "metadata": {
        "note_count": 20,
        "pitch_range": 36,
        "avg_velocity": 60,
        "note_density": 10.0,
        "duration": 2.0,
        "lowest_pitch": 36,
        "highest_pitch": 72
      },
      "label": "UNLABELED",
      "label_description": "",
      "is_labeled": false
    },
    {
      "id": "2025-08-03T174139Z_0_97_9aaebe5f",
      "source_file": "2025-08-03T174139Z",
      "instrument_idx": 0,
      "bar_idx": 97,
      "pitch_hash": "9aaebe5f",
      "notes": [
        {
          "pitch": 60,
          "velocity": 51,
          "start": 0.13020833333331439,
          "end": 0.21614583333331439,
          "duration": 0.0859375
        },
        {
          "pitch": 60,
          "velocity": 50,
          "start": 0.3645833333333144,
          "end": 0.5,
          "duration": 0.13541666666668561
        },
        {
          "pitch": 41,
          "velocity": 50,
          "start": 0.5390625,
          "end": 1.0078125,
          "duration": 0.46875
        },
        {
          "pitch": 53,
          "velocity": 56,
          "start": 0.5598958333333144,
          "end": 1.0234375,
          "duration": 0.4635416666666856
        },
        {
          "pitch": 60,
          "velocity": 56,
          "start": 0.7421875,
          "end": 0.828125,
          "duration": 0.0859375
        },
        {
          "pitch": 67,
          "velocity": 70,
          "start": 0.9713541666666572,
          "end": 1.1614583333333144,
          "duration": 0.1901041666666572
        },
        {
          "pitch": 53,
          "velocity": 59,
          "start": 1.1979166666666572,
          "end": 1.2916666666666572,
          "duration": 0.09375
        },
        {
          "pitch": 41,
          "velocity": 56,
          "start": 1.2161458333333144,
          "end": 1.3333333333333144,
          "duration": 0.1171875
        },
        {
          "pitch": 67,
          "velocity": 57,
          "start": 1.390625,
          "end": 1.453125,
          "duration": 0.0625
        },
        {
          "pitch": 60,
          "velocity": 55,
          "start": 1.3984375,
          "end": 1.4635416666666572,
          "duration": 0.06510416666665719
        },
        {
          "pitch": 48,
          "velocity": 61,
          "start": 1.5911458333333144,
          "end": 2.0703125,
          "duration": 0.4791666666666856
        },
        {
          "pitch": 67,
          "velocity": 75,
          "start": 1.6015625,
          "end": 1.7734375,
          "duration": 0.171875
        },
        {
          "pitch": 36,
          "velocity": 58,
          "start": 1.6067708333333144,
          "end": 2.072916666666657,
          "duration": 0.4661458333333428
        },
        {
          "pitch": 60,
          "velocity": 51,
          "start": 1.6302083333333144,
          "end": 1.7552083333333144,
          "duration": 0.125
        },
        {
          "pitch": 72,
          "velocity": 52,
          "start": 1.8255208333333144,
          "end": 1.9296875,
          "duration": 0.10416666666668561
        },
        {
          "pitch": 74,
          "velocity": 48,
          "start": 1.8307291666666572,
          "end": 1.890625,
          "duration": 0.05989583333334281
        }
      ],
      "metadata": {
        "note_count": 16,
        "pitch_range": 38,
        "avg_velocity": 56,
        "note_density": 8.0,
        "duration": 2.0,
        "lowest_pitch": 36,
        "highest_pitch": 74
      },
      "label": "UNLABELED",
      "label_description": "",
      "is_labeled": false
    },
    {
      "id": "2025-08-03T174139Z_0_98_323f138d",
      "source_file": "2025-08-03T174139Z",
      "instrument_idx": 0,
      "bar_idx": 98,
      "pitch_hash": "323f138d",
      "notes": [
        {
          "pitch": 60,
          "velocity": 70,
          "start": 0.03385416666665719,
          "end": 0.15625,
          "duration": 0.12239583333334281
        },
        {
          "pitch": 36,
          "velocity": 50,
          "start": 0.21614583333331439,
          "end": 0.7838541666666572,
          "duration": 0.5677083333333428
        },
        {
          "pitch": 67,
          "velocity": 70,
          "start": 0.23958333333331439,
          "end": 0.3776041666666572,
          "duration": 0.1380208333333428
        },
        {
          "pitch": 48,
          "velocity": 59,
          "start": 0.2447916666666572,
          "end": 0.7708333333333144,
          "duration": 0.5260416666666572
        },
        {
          "pitch": 60,
          "velocity": 52,
          "start": 0.2786458333333144,
          "end": 0.3489583333333144,
          "duration": 0.0703125
        },
        {
          "pitch": 72,
          "velocity": 76,
          "start": 0.4635416666666572,
          "end": 0.5833333333333144,
          "duration": 0.11979166666665719
        },
        {
          "pitch": 60,
          "velocity": 60,
          "start": 0.4791666666666572,
          "end": 0.5338541666666572,
          "duration": 0.0546875
        },
        {
          "pitch": 69,
          "velocity": 71,
          "start": 0.734375,
          "end": 0.8645833333333144,
          "duration": 0.13020833333331439
        },
        {
          "pitch": 60,
          "velocity": 41,
          "start": 0.7473958333333144,
          "end": 0.7994791666666572,
          "duration": 0.05208333333334281
        },
        {
          "pitch": 36,
          "velocity": 51,
          "start": 0.8619791666666572,
          "end": 0.984375,
          "duration": 0.12239583333334281
        },
        {
          "pitch": 48,
          "velocity": 53,
          "start": 0.8984375,
          "end": 1.0130208333333144,
          "duration": 0.11458333333331439
        },
        {
          "pitch": 67,
          "velocity": 76,
          "start": 1.046875,
          "end": 1.1588541666666572,
          "duration": 0.11197916666665719
        },
        {
          "pitch": 69,
          "velocity": 78,
          "start": 1.2864583333333144,
          "end": 1.4244791666666572,
          "duration": 0.1380208333333428
        },
        {
          "pitch": 53,
          "velocity": 69,
          "start": 1.2890625,
          "end": 1.765625,
          "duration": 0.4765625
        },
        {
          "pitch": 41,
          "velocity": 59,
          "start": 1.2994791666666572,
          "end": 1.7421875,
          "duration": 0.4427083333333428
        },
        {
          "pitch": 67,
          "velocity": 71,
          "start": 1.4973958333333144,
          "end": 1.625,
          "duration": 0.12760416666668561
        },
        {
          "pitch": 60,
          "velocity": 59,
          "start": 1.71875,
          "end": 1.7864583333333144,
          "duration": 0.06770833333331439
        },
        {
          "pitch": 67,
          "velocity": 78,
          "start": 1.9114583333333144,
          "end": 2.0546875,
          "duration": 0.14322916666668561
        },
        {
          "pitch": 41,
          "velocity": 58,
          "start": 1.9192708333333144,
          "end": 2.375,
          "duration": 0.4557291666666856
        },
        {
          "pitch": 53,
          "velocity": 55,
          "start": 1.9322916666666572,
          "end": 2.390625,
          "duration": 0.4583333333333428
        },
        {
          "pitch": 60,
          "velocity": 57,
          "start": 1.9401041666666572,
          "end": 1.9973958333333144,
          "duration": 0.05729166666665719
        }
      ],
      "metadata": {
        "note_count": 21,
        "pitch_range": 36,
        "avg_velocity": 62,
        "note_density": 10.5,
        "duration": 2.0,
        "lowest_pitch": 36,
        "highest_pitch": 72
      },
      "label": "UNLABELED",
      "label_description": "",
      "is_labeled": false
    },
    {
      "id": "2025-08-03T174139Z_0_99_3a062c72",
      "source_file": "2025-08-03T174139Z",
      "instrument_idx": 0,
      "bar_idx": 99,
      "pitch_hash": "3a062c72",
      "notes": [
        {
          "pitch": 60,
          "velocity": 52,
          "start": 0.11979166666665719,
          "end": 0.1901041666666572,
          "duration": 0.0703125
        },
        {
          "pitch": 67,
          "velocity": 71,
          "start": 0.3255208333333144,
          "end": 0.4635416666666572,
          "duration": 0.1380208333333428
        },
        {
          "pitch": 60,
          "velocity": 59,
          "start": 0.3333333333333144,
          "end": 0.4427083333333144,
          "duration": 0.109375
        },
        {
          "pitch": 41,
          "velocity": 55,
          "start": 0.5546875,
          "end": 0.6458333333333144,
          "duration": 0.09114583333331439
        },
        {
          "pitch": 53,
          "velocity": 58,
          "start": 0.5598958333333144,
          "end": 0.6432291666666572,
          "duration": 0.08333333333334281
        },
        {
          "pitch": 60,
          "velocity": 58,
          "start": 0.734375,
          "end": 0.8072916666666572,
          "duration": 0.07291666666665719
        },
        {
          "pitch": 67,
          "velocity": 65,
          "start": 0.7421875,
          "end": 0.8307291666666572,
          "duration": 0.08854166666665719
        },
        {
          "pitch": 67,
          "velocity": 63,
          "start": 0.9453125,
          "end": 1.1536458333333144,
          "duration": 0.20833333333331439
        },
        {
          "pitch": 60,
          "velocity": 55,
          "start": 0.9505208333333144,
          "end": 1.1145833333333144,
          "duration": 0.1640625
        },
        {
          "pitch": 48,
          "velocity": 57,
          "start": 0.9609375,
          "end": 1.4427083333333144,
          "duration": 0.4817708333333144
        },
        {
          "pitch": 36,
          "velocity": 62,
          "start": 0.9635416666666572,
          "end": 1.4166666666666572,
          "duration": 0.453125
        },
        {
          "pitch": 72,
          "velocity": 69,
          "start": 1.1536458333333144,
          "end": 1.3098958333333144,
          "duration": 0.15625
        },
        {
          "pitch": 60,
          "velocity": 73,
          "start": 1.359375,
          "end": 1.4583333333333144,
          "duration": 0.09895833333331439
        },
        {
          "pitch": 60,
          "velocity": 66,
          "start": 1.5729166666666572,
          "end": 1.6640625,
          "duration": 0.09114583333334281
        },
        {
          "pitch": 67,
          "velocity": 71,
          "start": 1.5729166666666572,
          "end": 1.671875,
          "duration": 0.09895833333334281
        },
        {
          "pitch": 36,
          "velocity": 54,
          "start": 1.5833333333333144,
          "end": 1.9583333333333144,
          "duration": 0.375
        },
        {
          "pitch": 48,
          "velocity": 51,
          "start": 1.5833333333333144,
          "end": 1.9869791666666572,
          "duration": 0.4036458333333428
        },
        {
          "pitch": 60,
          "velocity": 51,
          "start": 1.7760416666666572,
          "end": 1.8828125,
          "duration": 0.10677083333334281
        },
        {
          "pitch": 67,
          "velocity": 51,
          "start": 1.7942708333333144,
          "end": 1.8828125,
          "duration": 0.08854166666668561
        },
        {
          "pitch": 69,
          "velocity": 75,
          "start": 1.9973958333333144,
          "end": 2.2005208333333144,
          "duration": 0.203125
        }
      ],
      "metadata": {
        "note_count": 20,
        "pitch_range": 36,
        "avg_velocity": 60,
        "note_density": 10.0,
        "duration": 2.0,
        "lowest_pitch": 36,
        "highest_pitch": 72
      },
      "label": "UNLABELED",
      "label_description": "",
      "is_labeled": false
    },
    {
      "id": "2025-08-03T174139Z_0_100_6e275549",
      "source_file": "2025-08-03T174139Z",
      "instrument_idx": 0,
      "bar_idx": 100,
      "pitch_hash": "6e275549",
      "notes": [
        {
          "pitch": 36,
          "velocity": 55,
          "start": 0.16927083333331439,
          "end": 0.2526041666666572,
          "duration": 0.08333333333334281
        },
        {
          "pitch": 48,
          "velocity": 48,
          "start": 0.2109375,
          "end": 0.28125,
          "duration": 0.0703125
        },
        {
          "pitch": 67,
          "velocity": 68,
          "start": 0.375,
          "end": 0.4739583333333144,
          "duration": 0.09895833333331439
        },
        {
          "pitch": 60,
          "velocity": 46,
          "start": 0.4036458333333144,
          "end": 0.4713541666666572,
          "duration": 0.06770833333334281
        },
        {
          "pitch": 69,
          "velocity": 77,
          "start": 0.5911458333333144,
          "end": 0.7317708333333144,
          "duration": 0.140625
        },
        {
          "pitch": 53,
          "velocity": 59,
          "start": 0.6223958333333144,
          "end": 1.0963541666666572,
          "duration": 0.4739583333333428
        },
        {
          "pitch": 41,
          "velocity": 58,
          "start": 0.625,
          "end": 1.0833333333333144,
          "duration": 0.4583333333333144
        },
        {
          "pitch": 60,
          "velocity": 61,
          "start": 0.7942708333333144,
          "end": 0.8880208333333144,
          "duration": 0.09375
        },
        {
          "pitch": 67,
          "velocity": 63,
          "start": 1.0390625,
          "end": 1.09375,
          "duration": 0.0546875
        },
        {
          "pitch": 60,
          "velocity": 61,
          "start": 1.2213541666666572,
          "end": 1.3072916666666572,
          "duration": 0.0859375
        },
        {
          "pitch": 67,
          "velocity": 67,
          "start": 1.2213541666666572,
          "end": 1.3697916666666572,
          "duration": 0.1484375
        },
        {
          "pitch": 41,
          "velocity": 59,
          "start": 1.2213541666666572,
          "end": 1.6927083333333144,
          "duration": 0.4713541666666572
        },
        {
          "pitch": 53,
          "velocity": 51,
          "start": 1.234375,
          "end": 1.7161458333333144,
          "duration": 0.4817708333333144
        },
        {
          "pitch": 60,
          "velocity": 47,
          "start": 1.4322916666666572,
          "end": 1.5078125,
          "duration": 0.07552083333334281
        },
        {
          "pitch": 67,
          "velocity": 62,
          "start": 1.6484375,
          "end": 1.7526041666666572,
          "duration": 0.10416666666665719
        },
        {
          "pitch": 60,
          "velocity": 46,
          "start": 1.671875,
          "end": 1.7317708333333144,
          "duration": 0.059895833333314386
        },
        {
          "pitch": 41,
          "velocity": 54,
          "start": 1.875,
          "end": 1.9270833333333144,
          "duration": 0.052083333333314386
        },
        {
          "pitch": 67,
          "velocity": 61,
          "start": 1.8802083333333144,
          "end": 1.953125,
          "duration": 0.07291666666668561
        },
        {
          "pitch": 60,
          "velocity": 52,
          "start": 1.8828125,
          "end": 1.9375,
          "duration": 0.0546875
        },
        {
          "pitch": 53,
          "velocity": 47,
          "start": 1.890625,
          "end": 1.9713541666666572,
          "duration": 0.08072916666665719
        }
      ],
      "metadata": {
        "note_count": 20,
        "pitch_range": 33,
        "avg_velocity": 57,
        "note_density": 10.0,
        "duration": 2.0,
        "lowest_pitch": 36,
        "highest_pitch": 69
      },
      "label": "UNLABELED",
      "label_description": "",
      "is_labeled": false
    },
    {
      "id": "2025-08-03T174139Z_0_101_5196db6c",
      "source_file": "2025-08-03T174139Z",
      "instrument_idx": 0,
      "bar_idx": 101,
      "pitch_hash": "5196db6c",
      "notes": [
        {
          "pitch": 67,
          "velocity": 59,
          "start": 0.07552083333331439,
          "end": 0.1510416666666572,
          "duration": 0.07552083333334281
        },
        {
          "pitch": 60,
          "velocity": 39,
          "start": 0.09895833333331439,
          "end": 0.15625,
          "duration": 0.057291666666685614
        },
        {
          "pitch": 60,
          "velocity": 55,
          "start": 0.2526041666666572,
          "end": 0.4114583333333144,
          "duration": 0.1588541666666572
        },
        {
          "pitch": 43,
          "velocity": 50,
          "start": 0.2630208333333144,
          "end": 0.7864583333333144,
          "duration": 0.5234375
        },
        {
          "pitch": 67,
          "velocity": 60,
          "start": 0.265625,
          "end": 0.4947916666666572,
          "duration": 0.2291666666666572
        },
        {
          "pitch": 55,
          "velocity": 55,
          "start": 0.265625,
          "end": 0.7604166666666572,
          "duration": 0.4947916666666572
        },
        {
          "pitch": 67,
          "velocity": 59,
          "start": 0.7057291666666572,
          "end": 0.8645833333333144,
          "duration": 0.1588541666666572
        },
        {
          "pitch": 60,
          "velocity": 54,
          "start": 0.7135416666666572,
          "end": 0.8229166666666572,
          "duration": 0.109375
        },
        {
          "pitch": 43,
          "velocity": 54,
          "start": 0.8854166666666572,
          "end": 1.53125,
          "duration": 0.6458333333333428
        },
        {
          "pitch": 55,
          "velocity": 51,
          "start": 0.9114583333333144,
          "end": 1.4973958333333144,
          "duration": 0.5859375
        },
        {
          "pitch": 60,
          "velocity": 63,
          "start": 1.1302083333333144,
          "end": 1.21875,
          "duration": 0.08854166666668561
        },
        {
          "pitch": 67,
          "velocity": 62,
          "start": 1.1302083333333144,
          "end": 1.2838541666666572,
          "duration": 0.1536458333333428
        },
        {
          "pitch": 67,
          "velocity": 63,
          "start": 1.5520833333333144,
          "end": 1.6953125,
          "duration": 0.14322916666668561
        },
        {
          "pitch": 60,
          "velocity": 56,
          "start": 1.5625,
          "end": 1.6614583333333144,
          "duration": 0.09895833333331439
        },
        {
          "pitch": 55,
          "velocity": 44,
          "start": 1.7005208333333144,
          "end": 1.7630208333333144,
          "duration": 0.0625
        },
        {
          "pitch": 67,
          "velocity": 67,
          "start": 1.9453125,
          "end": 2.0755208333333144,
          "duration": 0.13020833333331439
        },
        {
          "pitch": 60,
          "velocity": 58,
          "start": 1.953125,
          "end": 2.026041666666657,
          "duration": 0.07291666666665719
        },
        {
          "pitch": 53,
          "velocity": 50,
          "start": 1.9661458333333144,
          "end": 2.453125,
          "duration": 0.4869791666666856
        },
        {
          "pitch": 41,
          "velocity": 50,
          "start": 1.9713541666666572,
          "end": 2.4427083333333144,
          "duration": 0.4713541666666572
        }
      ],
      "metadata": {
        "note_count": 19,
        "pitch_range": 26,
        "avg_velocity": 55,
        "note_density": 9.5,
        "duration": 2.0,
        "lowest_pitch": 41,
        "highest_pitch": 67
      },
      "label": "UNLABELED",
      "label_description": "",
      "is_labeled": false
    },
    {
      "id": "2025-08-03T174139Z_0_102_b4a9861f",
      "source_file": "2025-08-03T174139Z",
      "instrument_idx": 0,
      "bar_idx": 102,
      "pitch_hash": "b4a9861f",
      "notes": [
        {
          "pitch": 60,
          "velocity": 44,
          "start": 0.18489583333331439,
          "end": 0.24739583333331439,
          "duration": 0.0625
        },
        {
          "pitch": 67,
          "velocity": 76,
          "start": 0.3854166666666572,
          "end": 0.5651041666666572,
          "duration": 0.1796875
        },
        {
          "pitch": 60,
          "velocity": 56,
          "start": 0.3958333333333144,
          "end": 0.5286458333333144,
          "duration": 0.1328125
        },
        {
          "pitch": 41,
          "velocity": 48,
          "start": 0.609375,
          "end": 1.0729166666666572,
          "duration": 0.4635416666666572
        },
        {
          "pitch": 53,
          "velocity": 51,
          "start": 0.6197916666666572,
          "end": 1.1067708333333144,
          "duration": 0.4869791666666572
        },
        {
          "pitch": 67,
          "velocity": 65,
          "start": 0.8229166666666572,
          "end": 0.9375,
          "duration": 0.11458333333334281
        },
        {
          "pitch": 60,
          "velocity": 54,
          "start": 1.0390625,
          "end": 1.125,
          "duration": 0.0859375
        },
        {
          "pitch": 41,
          "velocity": 48,
          "start": 1.2317708333333144,
          "end": 1.3567708333333144,
          "duration": 0.125
        },
        {
          "pitch": 67,
          "velocity": 66,
          "start": 1.2526041666666572,
          "end": 1.3515625,
          "duration": 0.09895833333334281
        },
        {
          "pitch": 53,
          "velocity": 49,
          "start": 1.28125,
          "end": 1.3854166666666572,
          "duration": 0.10416666666665719
        },
        {
          "pitch": 60,
          "velocity": 44,
          "start": 1.4713541666666572,
          "end": 1.5416666666666572,
          "duration": 0.0703125
        },
        {
          "pitch": 67,
          "velocity": 46,
          "start": 1.4739583333333144,
          "end": 1.5416666666666572,
          "duration": 0.06770833333334281
        },
        {
          "pitch": 43,
          "velocity": 54,
          "start": 1.6484375,
          "end": 2.1302083333333144,
          "duration": 0.4817708333333144
        },
        {
          "pitch": 55,
          "velocity": 55,
          "start": 1.6640625,
          "end": 2.1328125,
          "duration": 0.46875
        },
        {
          "pitch": 60,
          "velocity": 56,
          "start": 1.6666666666666572,
          "end": 1.7708333333333144,
          "duration": 0.10416666666665719
        },
        {
          "pitch": 67,
          "velocity": 53,
          "start": 1.6666666666666572,
          "end": 1.78125,
          "duration": 0.11458333333334281
        },
        {
          "pitch": 69,
          "velocity": 54,
          "start": 1.6796875,
          "end": 1.7682291666666572,
          "duration": 0.08854166666665719
        }
      ],
      "metadata": {
        "note_count": 17,
        "pitch_range": 28,
        "avg_velocity": 54,
        "note_density": 8.5,
        "duration": 2.0,
        "lowest_pitch": 41,
        "highest_pitch": 69
      },
      "label": "UNLABELED",
      "label_description": "",
      "is_labeled": false
    },
    {
      "id": "2025-08-03T174139Z_0_103_ec7e9c06",
      "source_file": "2025-08-03T174139Z",
      "instrument_idx": 0,
      "bar_idx": 103,
      "pitch_hash": "ec7e9c06",
      "notes": [
        {
          "pitch": 69,
          "velocity": 63,
          "start": 0.1015625,
          "end": 0.2291666666666572,
          "duration": 0.1276041666666572
        },
        {
          "pitch": 67,
          "velocity": 47,
          "start": 0.11458333333331439,
          "end": 0.2135416666666572,
          "duration": 0.09895833333334281
        },
        {
          "pitch": 60,
          "velocity": 50,
          "start": 0.1171875,
          "end": 0.20833333333331439,
          "duration": 0.09114583333331439
        },
        {
          "pitch": 43,
          "velocity": 45,
          "start": 0.328125,
          "end": 0.421875,
          "duration": 0.09375
        },
        {
          "pitch": 55,
          "velocity": 50,
          "start": 0.328125,
          "end": 0.4322916666666572,
          "duration": 0.10416666666665719
        },
        {
          "pitch": 60,
          "velocity": 62,
          "start": 0.5104166666666572,
          "end": 0.6067708333333144,
          "duration": 0.09635416666665719
        },
        {
          "pitch": 67,
          "velocity": 67,
          "start": 0.5104166666666572,
          "end": 0.6197916666666572,
          "duration": 0.109375
        },
        {
          "pitch": 43,
          "velocity": 52,
          "start": 0.5338541666666572,
          "end": 1.2213541666666572,
          "duration": 0.6875
        },
        {
          "pitch": 55,
          "velocity": 56,
          "start": 0.5572916666666572,
          "end": 1.1640625,
          "duration": 0.6067708333333428
        },
        {
          "pitch": 60,
          "velocity": 60,
          "start": 0.9609375,
          "end": 1.0546875,
          "duration": 0.09375
        },
        {
          "pitch": 67,
          "velocity": 69,
          "start": 0.9609375,
          "end": 1.0703125,
          "duration": 0.109375
        },
        {
          "pitch": 67,
          "velocity": 62,
          "start": 1.2161458333333144,
          "end": 1.2760416666666572,
          "duration": 0.05989583333334281
        },
        {
          "pitch": 60,
          "velocity": 50,
          "start": 1.2161458333333144,
          "end": 1.2760416666666572,
          "duration": 0.05989583333334281
        },
        {
          "pitch": 53,
          "velocity": 52,
          "start": 1.4010416666666572,
          "end": 1.9166666666666572,
          "duration": 0.515625
        },
        {
          "pitch": 41,
          "velocity": 62,
          "start": 1.4088541666666572,
          "end": 1.875,
          "duration": 0.4661458333333428
        },
        {
          "pitch": 60,
          "velocity": 57,
          "start": 1.4166666666666572,
          "end": 1.5026041666666572,
          "duration": 0.0859375
        },
        {
          "pitch": 67,
          "velocity": 69,
          "start": 1.4166666666666572,
          "end": 1.5364583333333144,
          "duration": 0.11979166666665719
        },
        {
          "pitch": 60,
          "velocity": 47,
          "start": 1.6458333333333144,
          "end": 1.7109375,
          "duration": 0.06510416666668561
        },
        {
          "pitch": 67,
          "velocity": 70,
          "start": 1.8411458333333144,
          "end": 1.9609375,
          "duration": 0.11979166666668561
        },
        {
          "pitch": 60,
          "velocity": 46,
          "start": 1.8697916666666572,
          "end": 1.9322916666666572,
          "duration": 0.0625
        }
      ],
      "metadata": {
        "note_count": 20,
        "pitch_range": 28,
        "avg_velocity": 56,
        "note_density": 10.0,
        "duration": 2.0,
        "lowest_pitch": 41,
        "highest_pitch": 69
      },
      "label": "UNLABELED",
      "label_description": "",
      "is_labeled": false
    },
    {
      "id": "2025-08-03T174139Z_0_104_7087bbf8",
      "source_file": "2025-08-03T174139Z",
      "instrument_idx": 0,
      "bar_idx": 104,
      "pitch_hash": "7087bbf8",
      "notes": [
        {
          "pitch": 41,
          "velocity": 49,
          "start": 0.059895833333314386,
          "end": 0.4713541666666572,
          "duration": 0.4114583333333428
        },
        {
          "pitch": 53,
          "velocity": 50,
          "start": 0.06770833333331439,
          "end": 0.4921875,
          "duration": 0.4244791666666856
        },
        {
          "pitch": 60,
          "velocity": 42,
          "start": 0.07291666666665719,
          "end": 0.1354166666666572,
          "duration": 0.0625
        },
        {
          "pitch": 67,
          "velocity": 47,
          "start": 0.07552083333331439,
          "end": 0.140625,
          "duration": 0.06510416666668561
        },
        {
          "pitch": 67,
          "velocity": 67,
          "start": 0.2682291666666572,
          "end": 0.3854166666666572,
          "duration": 0.1171875
        },
        {
          "pitch": 60,
          "velocity": 50,
          "start": 0.2916666666666572,
          "end": 0.3515625,
          "duration": 0.05989583333334281
        },
        {
          "pitch": 60,
          "velocity": 50,
          "start": 0.4869791666666572,
          "end": 0.5625,
          "duration": 0.07552083333334281
        },
        {
          "pitch": 67,
          "velocity": 40,
          "start": 0.5078125,
          "end": 0.5651041666666572,
          "duration": 0.05729166666665719
        },
        {
          "pitch": 67,
          "velocity": 63,
          "start": 0.6875,
          "end": 0.7604166666666572,
          "duration": 0.07291666666665719
        },
        {
          "pitch": 60,
          "velocity": 40,
          "start": 0.7083333333333144,
          "end": 0.7604166666666572,
          "duration": 0.05208333333334281
        },
        {
          "pitch": 53,
          "velocity": 59,
          "start": 0.7083333333333144,
          "end": 0.7734375,
          "duration": 0.06510416666668561
        },
        {
          "pitch": 41,
          "velocity": 48,
          "start": 0.7265625,
          "end": 0.8072916666666572,
          "duration": 0.08072916666665719
        },
        {
          "pitch": 60,
          "velocity": 57,
          "start": 0.8828125,
          "end": 0.9869791666666572,
          "duration": 0.10416666666665719
        },
        {
          "pitch": 67,
          "velocity": 67,
          "start": 1.109375,
          "end": 1.2161458333333144,
          "duration": 0.10677083333331439
        },
        {
          "pitch": 72,
          "velocity": 67,
          "start": 1.109375,
          "end": 1.2395833333333144,
          "duration": 0.13020833333331439
        },
        {
          "pitch": 36,
          "velocity": 59,
          "start": 1.125,
          "end": 1.609375,
          "duration": 0.484375
        },
        {
          "pitch": 48,
          "velocity": 59,
          "start": 1.125,
          "end": 1.6171875,
          "duration": 0.4921875
        },
        {
          "pitch": 60,
          "velocity": 55,
          "start": 1.3098958333333144,
          "end": 1.4036458333333144,
          "duration": 0.09375
        },
        {
          "pitch": 60,
          "velocity": 57,
          "start": 1.5416666666666572,
          "end": 1.6171875,
          "duration": 0.07552083333334281
        },
        {
          "pitch": 67,
          "velocity": 67,
          "start": 1.546875,
          "end": 1.6171875,
          "duration": 0.0703125
        },
        {
          "pitch": 36,
          "velocity": 50,
          "start": 1.7421875,
          "end": 2.2109375,
          "duration": 0.46875
        },
        {
          "pitch": 60,
          "velocity": 66,
          "start": 1.7473958333333144,
          "end": 1.8333333333333144,
          "duration": 0.0859375
        },
        {
          "pitch": 67,
          "velocity": 73,
          "start": 1.7526041666666572,
          "end": 1.84375,
          "duration": 0.09114583333334281
        },
        {
          "pitch": 48,
          "velocity": 53,
          "start": 1.7578125,
          "end": 2.190104166666657,
          "duration": 0.4322916666666572
        }
      ],
      "metadata": {
        "note_count": 24,
        "pitch_range": 36,
        "avg_velocity": 55,
        "note_density": 12.0,
        "duration": 2.0,
        "lowest_pitch": 36,
        "highest_pitch": 72
      },
      "label": "UNLABELED",
      "label_description": "",
      "is_labeled": false
    },
    {
      "id": "2025-08-03T174139Z_0_105_4b1a970a",
      "source_file": "2025-08-03T174139Z",
      "instrument_idx": 0,
      "bar_idx": 105,
      "pitch_hash": "4b1a970a",
      "notes": [
        {
          "pitch": 72,
          "velocity": 80,
          "start": 0.1666666666666572,
          "end": 0.3645833333333144,
          "duration": 0.1979166666666572
        },
        {
          "pitch": 60,
          "velocity": 56,
          "start": 0.1796875,
          "end": 0.2578125,
          "duration": 0.078125
        },
        {
          "pitch": 36,
          "velocity": 48,
          "start": 0.3645833333333144,
          "end": 0.4270833333333144,
          "duration": 0.0625
        },
        {
          "pitch": 67,
          "velocity": 69,
          "start": 0.5338541666666572,
          "end": 0.6588541666666572,
          "duration": 0.125
        },
        {
          "pitch": 69,
          "velocity": 73,
          "start": 0.7604166666666572,
          "end": 0.9583333333333144,
          "duration": 0.1979166666666572
        },
        {
          "pitch": 53,
          "velocity": 61,
          "start": 0.7604166666666572,
          "end": 1.2317708333333144,
          "duration": 0.4713541666666572
        },
        {
          "pitch": 41,
          "velocity": 58,
          "start": 0.765625,
          "end": 1.2213541666666572,
          "duration": 0.4557291666666572
        },
        {
          "pitch": 60,
          "velocity": 52,
          "start": 0.7760416666666572,
          "end": 0.8515625,
          "duration": 0.07552083333334281
        },
        {
          "pitch": 60,
          "velocity": 61,
          "start": 1.1328125,
          "end": 1.2239583333333144,
          "duration": 0.09114583333331439
        },
        {
          "pitch": 67,
          "velocity": 69,
          "start": 1.3697916666666572,
          "end": 1.5677083333333144,
          "duration": 0.1979166666666572
        },
        {
          "pitch": 60,
          "velocity": 56,
          "start": 1.3723958333333144,
          "end": 1.5,
          "duration": 0.12760416666668561
        },
        {
          "pitch": 53,
          "velocity": 56,
          "start": 1.3776041666666572,
          "end": 1.828125,
          "duration": 0.4505208333333428
        },
        {
          "pitch": 41,
          "velocity": 58,
          "start": 1.3776041666666572,
          "end": 1.8411458333333144,
          "duration": 0.4635416666666572
        },
        {
          "pitch": 60,
          "velocity": 66,
          "start": 1.7760416666666572,
          "end": 1.8463541666666572,
          "duration": 0.0703125
        },
        {
          "pitch": 67,
          "velocity": 48,
          "start": 1.8046875,
          "end": 1.8671875,
          "duration": 0.0625
        },
        {
          "pitch": 67,
          "velocity": 56,
          "start": 1.984375,
          "end": 2.096354166666657,
          "duration": 0.11197916666665719
        },
        {
          "pitch": 53,
          "velocity": 59,
          "start": 1.9921875,
          "end": 2.0598958333333144,
          "duration": 0.06770833333331439
        },
        {
          "pitch": 41,
          "velocity": 58,
          "start": 1.9973958333333144,
          "end": 2.125,
          "duration": 0.12760416666668561
        }
      ],
      "metadata": {
        "note_count": 18,
        "pitch_range": 36,
        "avg_velocity": 60,
        "note_density": 9.0,
        "duration": 2.0,
        "lowest_pitch": 36,
        "highest_pitch": 72
      },
      "label": "UNLABELED",
      "label_description": "",
      "is_labeled": false
    },
    {
      "id": "2025-08-03T174139Z_0_106_c4e6d132",
      "source_file": "2025-08-03T174139Z",
      "instrument_idx": 0,
      "bar_idx": 106,
      "pitch_hash": "c4e6d132",
      "notes": [
        {
          "pitch": 60,
          "velocity": 52,
          "start": 0.015625,
          "end": 0.0703125,
          "duration": 0.0546875
        },
        {
          "pitch": 67,
          "velocity": 61,
          "start": 0.1744791666666572,
          "end": 0.3098958333333144,
          "duration": 0.1354166666666572
        },
        {
          "pitch": 60,
          "velocity": 51,
          "start": 0.1744791666666572,
          "end": 0.3958333333333144,
          "duration": 0.2213541666666572
        },
        {
          "pitch": 36,
          "velocity": 62,
          "start": 0.3932291666666572,
          "end": 0.8411458333333144,
          "duration": 0.4479166666666572
        },
        {
          "pitch": 72,
          "velocity": 72,
          "start": 0.3958333333333144,
          "end": 0.5755208333333144,
          "duration": 0.1796875
        },
        {
          "pitch": 48,
          "velocity": 58,
          "start": 0.3958333333333144,
          "end": 0.859375,
          "duration": 0.4635416666666856
        },
        {
          "pitch": 60,
          "velocity": 59,
          "start": 0.5859375,
          "end": 0.6901041666666572,
          "duration": 0.10416666666665719
        },
        {
          "pitch": 67,
          "velocity": 67,
          "start": 0.8020833333333144,
          "end": 0.9765625,
          "duration": 0.17447916666668561
        },
        {
          "pitch": 60,
          "velocity": 56,
          "start": 0.8177083333333144,
          "end": 0.953125,
          "duration": 0.13541666666668561
        },
        {
          "pitch": 36,
          "velocity": 52,
          "start": 1.0130208333333144,
          "end": 1.4088541666666572,
          "duration": 0.3958333333333428
        },
        {
          "pitch": 48,
          "velocity": 53,
          "start": 1.0286458333333144,
          "end": 1.359375,
          "duration": 0.3307291666666856
        },
        {
          "pitch": 72,
          "velocity": 84,
          "start": 1.1770833333333144,
          "end": 1.3385416666666572,
          "duration": 0.1614583333333428
        },
        {
          "pitch": 67,
          "velocity": 77,
          "start": 1.4296875,
          "end": 1.5572916666666572,
          "duration": 0.1276041666666572
        },
        {
          "pitch": 36,
          "velocity": 54,
          "start": 1.5520833333333144,
          "end": 1.6197916666666572,
          "duration": 0.06770833333334281
        },
        {
          "pitch": 48,
          "velocity": 47,
          "start": 1.5963541666666572,
          "end": 1.6614583333333144,
          "duration": 0.06510416666665719
        },
        {
          "pitch": 67,
          "velocity": 65,
          "start": 1.6875,
          "end": 1.8359375,
          "duration": 0.1484375
        },
        {
          "pitch": 69,
          "velocity": 77,
          "start": 1.9401041666666572,
          "end": 2.385416666666657,
          "duration": 0.4453125
        },
        {
          "pitch": 55,
          "velocity": 68,
          "start": 1.9583333333333144,
          "end": 2.393229166666657,
          "duration": 0.4348958333333428
        },
        {
          "pitch": 43,
          "velocity": 60,
          "start": 1.9713541666666572,
          "end": 2.421875,
          "duration": 0.4505208333333428
        },
        {
          "pitch": 60,
          "velocity": 45,
          "start": 1.9765625,
          "end": 2.041666666666657,
          "duration": 0.06510416666665719
        }
      ],
      "metadata": {
        "note_count": 20,
        "pitch_range": 36,
        "avg_velocity": 61,
        "note_density": 10.0,
        "duration": 2.0,
        "lowest_pitch": 36,
        "highest_pitch": 72
      },
      "label": "UNLABELED",
      "label_description": "",
      "is_labeled": false
    },
    {
      "id": "2025-08-03T174139Z_0_107_3d18b186",
      "source_file": "2025-08-03T174139Z",
      "instrument_idx": 0,
      "bar_idx": 107,
      "pitch_hash": "3d18b186",
      "notes": [
        {
          "pitch": 60,
          "velocity": 63,
          "start": 0.3229166666666572,
          "end": 0.4244791666666572,
          "duration": 0.1015625
        },
        {
          "pitch": 67,
          "velocity": 70,
          "start": 0.5598958333333144,
          "end": 0.8854166666666572,
          "duration": 0.3255208333333428
        },
        {
          "pitch": 53,
          "velocity": 58,
          "start": 0.5625,
          "end": 1.0078125,
          "duration": 0.4453125
        },
        {
          "pitch": 60,
          "velocity": 57,
          "start": 0.5651041666666572,
          "end": 0.6953125,
          "duration": 0.1302083333333428
        },
        {
          "pitch": 41,
          "velocity": 62,
          "start": 0.5807291666666572,
          "end": 1.0390625,
          "duration": 0.4583333333333428
        },
        {
          "pitch": 60,
          "velocity": 58,
          "start": 0.9609375,
          "end": 1.109375,
          "duration": 0.1484375
        },
        {
          "pitch": 67,
          "velocity": 62,
          "start": 1.171875,
          "end": 1.3359375,
          "duration": 0.1640625
        },
        {
          "pitch": 48,
          "velocity": 49,
          "start": 1.4375,
          "end": 1.953125,
          "duration": 0.515625
        },
        {
          "pitch": 69,
          "velocity": 70,
          "start": 1.4427083333333144,
          "end": 1.8828125,
          "duration": 0.4401041666666856
        },
        {
          "pitch": 36,
          "velocity": 51,
          "start": 1.4427083333333144,
          "end": 1.9479166666666572,
          "duration": 0.5052083333333428
        },
        {
          "pitch": 60,
          "velocity": 59,
          "start": 1.8411458333333144,
          "end": 2.1692708333333144,
          "duration": 0.328125
        }
      ],
      "metadata": {
        "note_count": 11,
        "pitch_range": 33,
        "avg_velocity": 59,
        "note_density": 5.5,
        "duration": 2.0,
        "lowest_pitch": 36,
        "highest_pitch": 69
      },
      "label": "UNLABELED",
      "label_description": "",
      "is_labeled": false
    },
    {
      "id": "2025-08-03T174139Z_0_108_623db64d",
      "source_file": "2025-08-03T174139Z",
      "instrument_idx": 0,
      "bar_idx": 108,
      "pitch_hash": "623db64d",
      "notes": [
        {
          "pitch": 67,
          "velocity": 69,
          "start": 0.0625,
          "end": 0.2942708333333144,
          "duration": 0.23177083333331439
        },
        {
          "pitch": 48,
          "velocity": 49,
          "start": 0.2916666666666572,
          "end": 0.8177083333333144,
          "duration": 0.5260416666666572
        },
        {
          "pitch": 36,
          "velocity": 47,
          "start": 0.296875,
          "end": 0.7916666666666572,
          "duration": 0.4947916666666572
        },
        {
          "pitch": 60,
          "velocity": 55,
          "start": 0.5078125,
          "end": 0.6822916666666572,
          "duration": 0.1744791666666572
        },
        {
          "pitch": 67,
          "velocity": 59,
          "start": 0.7317708333333144,
          "end": 0.9973958333333144,
          "duration": 0.265625
        },
        {
          "pitch": 36,
          "velocity": 46,
          "start": 0.9583333333333144,
          "end": 1.0989583333333144,
          "duration": 0.140625
        },
        {
          "pitch": 72,
          "velocity": 59,
          "start": 0.9713541666666572,
          "end": 1.1302083333333144,
          "duration": 0.1588541666666572
        },
        {
          "pitch": 48,
          "velocity": 37,
          "start": 1.0286458333333144,
          "end": 1.1197916666666572,
          "duration": 0.09114583333334281
        },
        {
          "pitch": 67,
          "velocity": 42,
          "start": 1.2265625,
          "end": 1.3098958333333144,
          "duration": 0.08333333333331439
        },
        {
          "pitch": 72,
          "velocity": 71,
          "start": 1.3854166666666572,
          "end": 1.609375,
          "duration": 0.2239583333333428
        },
        {
          "pitch": 36,
          "velocity": 55,
          "start": 1.3932291666666572,
          "end": 1.6848958333333144,
          "duration": 0.2916666666666572
        },
        {
          "pitch": 48,
          "velocity": 47,
          "start": 1.4192708333333144,
          "end": 1.7239583333333144,
          "duration": 0.3046875
        },
        {
          "pitch": 67,
          "velocity": 64,
          "start": 1.6119791666666572,
          "end": 1.8203125,
          "duration": 0.2083333333333428
        },
        {
          "pitch": 60,
          "velocity": 55,
          "start": 1.8333333333333144,
          "end": 1.9791666666666572,
          "duration": 0.1458333333333428
        }
      ],
      "metadata": {
        "note_count": 14,
        "pitch_range": 36,
        "avg_velocity": 53,
        "note_density": 7.0,
        "duration": 2.0,
        "lowest_pitch": 36,
        "highest_pitch": 72
      },
      "label": "UNLABELED",
      "label_description": "",
      "is_labeled": false
    },
    {
      "id": "2025-08-03T174139Z_0_109_4b0a559a",
      "source_file": "2025-08-03T174139Z",
      "instrument_idx": 0,
      "bar_idx": 109,
      "pitch_hash": "4b0a559a",
      "notes": [
        {
          "pitch": 36,
          "velocity": 48,
          "start": 0.010416666666657193,
          "end": 0.2838541666666572,
          "duration": 0.2734375
        },
        {
          "pitch": 48,
          "velocity": 49,
          "start": 0.026041666666657193,
          "end": 0.3203125,
          "duration": 0.2942708333333428
        },
        {
          "pitch": 72,
          "velocity": 66,
          "start": 0.24739583333331439,
          "end": 0.484375,
          "duration": 0.23697916666668561
        },
        {
          "pitch": 67,
          "velocity": 41,
          "start": 0.2760416666666572,
          "end": 0.3385416666666572,
          "duration": 0.0625
        },
        {
          "pitch": 36,
          "velocity": 35,
          "start": 0.6015625,
          "end": 0.6510416666666572,
          "duration": 0.04947916666665719
        },
        {
          "pitch": 48,
          "velocity": 50,
          "start": 0.6015625,
          "end": 0.6927083333333144,
          "duration": 0.09114583333331439
        },
        {
          "pitch": 60,
          "velocity": 55,
          "start": 0.828125,
          "end": 0.9192708333333144,
          "duration": 0.09114583333331439
        },
        {
          "pitch": 53,
          "velocity": 53,
          "start": 1.0182291666666572,
          "end": 1.4921875,
          "duration": 0.4739583333333428
        },
        {
          "pitch": 41,
          "velocity": 57,
          "start": 1.0182291666666572,
          "end": 1.7265625,
          "duration": 0.7083333333333428
        },
        {
          "pitch": 69,
          "velocity": 78,
          "start": 1.0286458333333144,
          "end": 1.5286458333333144,
          "duration": 0.5
        },
        {
          "pitch": 60,
          "velocity": 44,
          "start": 1.0442708333333144,
          "end": 1.125,
          "duration": 0.08072916666668561
        },
        {
          "pitch": 60,
          "velocity": 55,
          "start": 1.4088541666666572,
          "end": 1.4791666666666572,
          "duration": 0.0703125
        },
        {
          "pitch": 53,
          "velocity": 62,
          "start": 1.6145833333333144,
          "end": 1.6953125,
          "duration": 0.08072916666668561
        },
        {
          "pitch": 41,
          "velocity": 60,
          "start": 1.8229166666666572,
          "end": 2.0911458333333144,
          "duration": 0.2682291666666572
        },
        {
          "pitch": 53,
          "velocity": 56,
          "start": 1.8463541666666572,
          "end": 2.09375,
          "duration": 0.2473958333333428
        }
      ],
      "metadata": {
        "note_count": 15,
        "pitch_range": 36,
        "avg_velocity": 53,
        "note_density": 7.5,
        "duration": 2.0,
        "lowest_pitch": 36,
        "highest_pitch": 72
      },
      "label": "UNLABELED",
      "label_description": "",
      "is_labeled": false
    },
    {
      "id": "2025-08-03T174139Z_0_110_59086833",
      "source_file": "2025-08-03T174139Z",
      "instrument_idx": 0,
      "bar_idx": 110,
      "pitch_hash": "59086833",
      "notes": [
        {
          "pitch": 67,
          "velocity": 92,
          "start": 0.036458333333314386,
          "end": 0.2369791666666572,
          "duration": 0.2005208333333428
        },
        {
          "pitch": 41,
          "velocity": 61,
          "start": 0.2057291666666572,
          "end": 0.3489583333333144,
          "duration": 0.1432291666666572
        },
        {
          "pitch": 53,
          "velocity": 52,
          "start": 0.2213541666666572,
          "end": 0.3932291666666572,
          "duration": 0.171875
        },
        {
          "pitch": 65,
          "velocity": 69,
          "start": 0.375,
          "end": 0.5078125,
          "duration": 0.1328125
        },
        {
          "pitch": 69,
          "velocity": 67,
          "start": 0.6145833333333144,
          "end": 0.90625,
          "duration": 0.2916666666666856
        },
        {
          "pitch": 43,
          "velocity": 52,
          "start": 0.671875,
          "end": 1.1536458333333144,
          "duration": 0.4817708333333144
        },
        {
          "pitch": 55,
          "velocity": 55,
          "start": 0.6744791666666572,
          "end": 1.1588541666666572,
          "duration": 0.484375
        },
        {
          "pitch": 62,
          "velocity": 49,
          "start": 0.6901041666666572,
          "end": 0.7994791666666572,
          "duration": 0.109375
        },
        {
          "pitch": 62,
          "velocity": 72,
          "start": 1.0677083333333144,
          "end": 1.34375,
          "duration": 0.2760416666666856
        },
        {
          "pitch": 69,
          "velocity": 78,
          "start": 1.0729166666666572,
          "end": 1.3619791666666572,
          "duration": 0.2890625
        },
        {
          "pitch": 43,
          "velocity": 54,
          "start": 1.2760416666666572,
          "end": 1.4036458333333144,
          "duration": 0.1276041666666572
        },
        {
          "pitch": 55,
          "velocity": 61,
          "start": 1.2916666666666572,
          "end": 1.4140625,
          "duration": 0.12239583333334281
        },
        {
          "pitch": 62,
          "velocity": 70,
          "start": 1.4869791666666572,
          "end": 1.6953125,
          "duration": 0.2083333333333428
        },
        {
          "pitch": 71,
          "velocity": 79,
          "start": 1.4869791666666572,
          "end": 1.7473958333333144,
          "duration": 0.2604166666666572
        },
        {
          "pitch": 43,
          "velocity": 62,
          "start": 1.8984375,
          "end": 2.0208333333333144,
          "duration": 0.12239583333331439
        },
        {
          "pitch": 71,
          "velocity": 63,
          "start": 1.9010416666666572,
          "end": 1.9557291666666572,
          "duration": 0.0546875
        },
        {
          "pitch": 55,
          "velocity": 61,
          "start": 1.9088541666666572,
          "end": 1.9895833333333144,
          "duration": 0.08072916666665719
        },
        {
          "pitch": 62,
          "velocity": 60,
          "start": 1.9088541666666572,
          "end": 1.9921875,
          "duration": 0.08333333333334281
        }
      ],
      "metadata": {
        "note_count": 18,
        "pitch_range": 30,
        "avg_velocity": 64,
        "note_density": 9.0,
        "duration": 2.0,
        "lowest_pitch": 41,
        "highest_pitch": 71
      },
      "label": "UNLABELED",
      "label_description": "",
      "is_labeled": false
    },
    {
      "id": "2025-08-03T174139Z_0_111_c47d6acb",
      "source_file": "2025-08-03T174139Z",
      "instrument_idx": 0,
      "bar_idx": 111,
      "pitch_hash": "c47d6acb",
      "notes": [
        {
          "pitch": 74,
          "velocity": 61,
          "start": 0.5572916666666572,
          "end": 1.0625,
          "duration": 0.5052083333333428
        },
        {
          "pitch": 36,
          "velocity": 57,
          "start": 0.5625,
          "end": 1.1145833333333144,
          "duration": 0.5520833333333144
        },
        {
          "pitch": 48,
          "velocity": 52,
          "start": 0.5833333333333144,
          "end": 1.1145833333333144,
          "duration": 0.53125
        },
        {
          "pitch": 69,
          "velocity": 65,
          "start": 0.7838541666666572,
          "end": 0.9192708333333144,
          "duration": 0.1354166666666572
        },
        {
          "pitch": 72,
          "velocity": 77,
          "start": 1.4375,
          "end": 1.6666666666666572,
          "duration": 0.2291666666666572
        },
        {
          "pitch": 36,
          "velocity": 54,
          "start": 1.4427083333333144,
          "end": 1.921875,
          "duration": 0.4791666666666856
        },
        {
          "pitch": 48,
          "velocity": 50,
          "start": 1.4713541666666572,
          "end": 1.8958333333333144,
          "duration": 0.4244791666666572
        },
        {
          "pitch": 67,
          "velocity": 66,
          "start": 1.6354166666666572,
          "end": 1.828125,
          "duration": 0.1927083333333428
        },
        {
          "pitch": 60,
          "velocity": 63,
          "start": 1.8541666666666572,
          "end": 1.9453125,
          "duration": 0.09114583333334281
        }
      ],
      "metadata": {
        "note_count": 9,
        "pitch_range": 38,
        "avg_velocity": 60,
        "note_density": 4.5,
        "duration": 2.0,
        "lowest_pitch": 36,
        "highest_pitch": 74
      },
      "label": "UNLABELED",
      "label_description": "",
      "is_labeled": false
    },
    {
      "id": "2025-08-03T174139Z_0_112_e27c5388",
      "source_file": "2025-08-03T174139Z",
      "instrument_idx": 0,
      "bar_idx": 112,
      "pitch_hash": "e27c5388",
      "notes": [
        {
          "pitch": 36,
          "velocity": 55,
          "start": 0.036458333333314386,
          "end": 2.4114583333333144,
          "duration": 2.375
        },
        {
          "pitch": 60,
          "velocity": 59,
          "start": 0.04947916666665719,
          "end": 0.16927083333331439,
          "duration": 0.11979166666665719
        },
        {
          "pitch": 67,
          "velocity": 69,
          "start": 0.052083333333314386,
          "end": 0.1796875,
          "duration": 0.12760416666668561
        },
        {
          "pitch": 48,
          "velocity": 53,
          "start": 0.07291666666665719,
          "end": 0.515625,
          "duration": 0.4427083333333428
        },
        {
          "pitch": 60,
          "velocity": 79,
          "start": 0.4322916666666572,
          "end": 0.5885416666666572,
          "duration": 0.15625
        },
        {
          "pitch": 67,
          "velocity": 71,
          "start": 0.4505208333333144,
          "end": 0.5963541666666572,
          "duration": 0.1458333333333428
        },
        {
          "pitch": 48,
          "velocity": 55,
          "start": 0.6380208333333144,
          "end": 0.890625,
          "duration": 0.2526041666666856
        },
        {
          "pitch": 67,
          "velocity": 84,
          "start": 0.84375,
          "end": 0.9869791666666572,
          "duration": 0.1432291666666572
        },
        {
          "pitch": 60,
          "velocity": 80,
          "start": 0.8489583333333144,
          "end": 0.9661458333333144,
          "duration": 0.1171875
        },
        {
          "pitch": 70,
          "velocity": 31,
          "start": 0.90625,
          "end": 0.9453125,
          "duration": 0.0390625
        },
        {
          "pitch": 48,
          "velocity": 57,
          "start": 1.0442708333333144,
          "end": 1.4479166666666572,
          "duration": 0.4036458333333428
        },
        {
          "pitch": 67,
          "velocity": 67,
          "start": 1.2526041666666572,
          "end": 1.3125,
          "duration": 0.05989583333334281
        },
        {
          "pitch": 60,
          "velocity": 58,
          "start": 1.2526041666666572,
          "end": 1.3151041666666572,
          "duration": 0.0625
        },
        {
          "pitch": 67,
          "velocity": 65,
          "start": 1.6536458333333144,
          "end": 1.7682291666666572,
          "duration": 0.11458333333334281
        },
        {
          "pitch": 67,
          "velocity": 64,
          "start": 1.8958333333333144,
          "end": 2.0052083333333144,
          "duration": 0.109375
        }
      ],
      "metadata": {
        "note_count": 15,
        "pitch_range": 34,
        "avg_velocity": 63,
        "note_density": 7.5,
        "duration": 2.0,
        "lowest_pitch": 36,
        "highest_pitch": 70
      },
      "label": "UNLABELED",
      "label_description": "",
      "is_labeled": false
    },
    {
      "id": "2025-08-03T174139Z_0_113_007abddb",
      "source_file": "2025-08-03T174139Z",
      "instrument_idx": 0,
      "bar_idx": 113,
      "pitch_hash": "007abddb",
      "notes": [
        {
          "pitch": 60,
          "velocity": 67,
          "start": 0.1744791666666572,
          "end": 0.2838541666666572,
          "duration": 0.109375
        },
        {
          "pitch": 48,
          "velocity": 40,
          "start": 0.4088541666666572,
          "end": 0.484375,
          "duration": 0.07552083333334281
        },
        {
          "pitch": 41,
          "velocity": 54,
          "start": 0.8411458333333144,
          "end": 1.1875,
          "duration": 0.3463541666666856
        },
        {
          "pitch": 53,
          "velocity": 47,
          "start": 0.84375,
          "end": 1.2265625,
          "duration": 0.3828125
        },
        {
          "pitch": 69,
          "velocity": 69,
          "start": 0.8463541666666572,
          "end": 1.1875,
          "duration": 0.3411458333333428
        },
        {
          "pitch": 60,
          "velocity": 43,
          "start": 0.8802083333333144,
          "end": 0.9739583333333144,
          "duration": 0.09375
        },
        {
          "pitch": 67,
          "velocity": 66,
          "start": 1.0989583333333144,
          "end": 1.265625,
          "duration": 0.16666666666668561
        },
        {
          "pitch": 65,
          "velocity": 68,
          "start": 1.3151041666666572,
          "end": 1.4479166666666572,
          "duration": 0.1328125
        },
        {
          "pitch": 67,
          "velocity": 78,
          "start": 1.5651041666666572,
          "end": 2.0442708333333144,
          "duration": 0.4791666666666572
        },
        {
          "pitch": 43,
          "velocity": 60,
          "start": 1.5677083333333144,
          "end": 2.015625,
          "duration": 0.4479166666666856
        },
        {
          "pitch": 55,
          "velocity": 57,
          "start": 1.5703125,
          "end": 2.018229166666657,
          "duration": 0.4479166666666572
        },
        {
          "pitch": 60,
          "velocity": 65,
          "start": 1.5729166666666572,
          "end": 1.7760416666666572,
          "duration": 0.203125
        },
        {
          "pitch": 60,
          "velocity": 77,
          "start": 1.9557291666666572,
          "end": 2.15625,
          "duration": 0.2005208333333428
        }
      ],
      "metadata": {
        "note_count": 13,
        "pitch_range": 28,
        "avg_velocity": 60,
        "note_density": 6.5,
        "duration": 2.0,
        "lowest_pitch": 41,
        "highest_pitch": 69
      },
      "label": "UNLABELED",
      "label_description": "",
      "is_labeled": false
    },
    {
      "id": "2025-08-03T174139Z_0_114_93edbd24",
      "source_file": "2025-08-03T174139Z",
      "instrument_idx": 0,
      "bar_idx": 114,
      "pitch_hash": "93edbd24",
      "notes": [
        {
          "pitch": 43,
          "velocity": 50,
          "start": 0.1510416666666572,
          "end": 0.2526041666666572,
          "duration": 0.1015625
        },
        {
          "pitch": 55,
          "velocity": 54,
          "start": 0.15364583333331439,
          "end": 0.2213541666666572,
          "duration": 0.06770833333334281
        },
        {
          "pitch": 60,
          "velocity": 63,
          "start": 0.3151041666666572,
          "end": 0.4270833333333144,
          "duration": 0.11197916666665719
        },
        {
          "pitch": 41,
          "velocity": 58,
          "start": 0.4895833333333144,
          "end": 1.0078125,
          "duration": 0.5182291666666856
        },
        {
          "pitch": 69,
          "velocity": 74,
          "start": 0.4921875,
          "end": 0.8515625,
          "duration": 0.359375
        },
        {
          "pitch": 53,
          "velocity": 45,
          "start": 0.5338541666666572,
          "end": 1.0729166666666572,
          "duration": 0.5390625
        },
        {
          "pitch": 67,
          "velocity": 68,
          "start": 0.7317708333333144,
          "end": 0.9427083333333144,
          "duration": 0.2109375
        },
        {
          "pitch": 65,
          "velocity": 65,
          "start": 0.9427083333333144,
          "end": 1.0807291666666572,
          "duration": 0.1380208333333428
        },
        {
          "pitch": 60,
          "velocity": 61,
          "start": 1.2239583333333144,
          "end": 1.4817708333333144,
          "duration": 0.2578125
        },
        {
          "pitch": 65,
          "velocity": 61,
          "start": 1.2239583333333144,
          "end": 1.5598958333333144,
          "duration": 0.3359375
        },
        {
          "pitch": 67,
          "velocity": 66,
          "start": 1.2239583333333144,
          "end": 1.5885416666666572,
          "duration": 0.3645833333333428
        },
        {
          "pitch": 43,
          "velocity": 61,
          "start": 1.2239583333333144,
          "end": 2.041666666666657,
          "duration": 0.8177083333333428
        },
        {
          "pitch": 55,
          "velocity": 62,
          "start": 1.2265625,
          "end": 2.0390625,
          "duration": 0.8125
        },
        {
          "pitch": 67,
          "velocity": 67,
          "start": 1.9010416666666572,
          "end": 2.2734375,
          "duration": 0.3723958333333428
        },
        {
          "pitch": 60,
          "velocity": 55,
          "start": 1.9140625,
          "end": 2.2083333333333144,
          "duration": 0.2942708333333144
        },
        {
          "pitch": 65,
          "velocity": 63,
          "start": 1.9140625,
          "end": 2.2578125,
          "duration": 0.34375
        }
      ],
      "metadata": {
        "note_count": 16,
        "pitch_range": 28,
        "avg_velocity": 60,
        "note_density": 8.0,
        "duration": 2.0,
        "lowest_pitch": 41,
        "highest_pitch": 69
      },
      "label": "UNLABELED",
      "label_description": "",
      "is_labeled": false
    },
    {
      "id": "2025-08-03T174139Z_0_115_d759d819",
      "source_file": "2025-08-03T174139Z",
      "instrument_idx": 0,
      "bar_idx": 115,
      "pitch_hash": "d759d819",
      "notes": [
        {
          "pitch": 43,
          "velocity": 49,
          "start": 0.1796875,
          "end": 1.8671875,
          "duration": 1.6875
        },
        {
          "pitch": 55,
          "velocity": 50,
          "start": 0.20052083333331439,
          "end": 0.6666666666666572,
          "duration": 0.4661458333333428
        },
        {
          "pitch": 60,
          "velocity": 52,
          "start": 0.4921875,
          "end": 0.6666666666666572,
          "duration": 0.1744791666666572
        },
        {
          "pitch": 67,
          "velocity": 63,
          "start": 0.4921875,
          "end": 0.8020833333333144,
          "duration": 0.3098958333333144
        },
        {
          "pitch": 65,
          "velocity": 60,
          "start": 0.4947916666666572,
          "end": 0.7682291666666572,
          "duration": 0.2734375
        },
        {
          "pitch": 55,
          "velocity": 55,
          "start": 0.78125,
          "end": 1.1145833333333144,
          "duration": 0.3333333333333144
        },
        {
          "pitch": 60,
          "velocity": 58,
          "start": 1.0625,
          "end": 1.3515625,
          "duration": 0.2890625
        },
        {
          "pitch": 65,
          "velocity": 58,
          "start": 1.0703125,
          "end": 1.3723958333333144,
          "duration": 0.3020833333333144
        },
        {
          "pitch": 67,
          "velocity": 61,
          "start": 1.0729166666666572,
          "end": 1.3723958333333144,
          "duration": 0.2994791666666572
        },
        {
          "pitch": 55,
          "velocity": 50,
          "start": 1.3776041666666572,
          "end": 1.734375,
          "duration": 0.3567708333333428
        },
        {
          "pitch": 60,
          "velocity": 60,
          "start": 1.6302083333333144,
          "end": 1.90625,
          "duration": 0.2760416666666856
        },
        {
          "pitch": 67,
          "velocity": 57,
          "start": 1.6380208333333144,
          "end": 1.9244791666666572,
          "duration": 0.2864583333333428
        },
        {
          "pitch": 65,
          "velocity": 58,
          "start": 1.640625,
          "end": 1.9036458333333144,
          "duration": 0.2630208333333144
        },
        {
          "pitch": 43,
          "velocity": 34,
          "start": 1.9114583333333144,
          "end": 2.3411458333333144,
          "duration": 0.4296875
        },
        {
          "pitch": 55,
          "velocity": 41,
          "start": 1.9505208333333144,
          "end": 2.2942708333333144,
          "duration": 0.34375
        }
      ],
      "metadata": {
        "note_count": 15,
        "pitch_range": 24,
        "avg_velocity": 53,
        "note_density": 7.5,
        "duration": 2.0,
        "lowest_pitch": 43,
        "highest_pitch": 67
      },
      "label": "UNLABELED",
      "label_description": "",
      "is_labeled": false
    },
    {
      "id": "2025-08-03T174139Z_0_116_b21be59a",
      "source_file": "2025-08-03T174139Z",
      "instrument_idx": 0,
      "bar_idx": 116,
      "pitch_hash": "b21be59a",
      "notes": [
        {
          "pitch": 67,
          "velocity": 45,
          "start": 0.20833333333331439,
          "end": 0.5338541666666572,
          "duration": 0.3255208333333428
        },
        {
          "pitch": 60,
          "velocity": 50,
          "start": 0.2135416666666572,
          "end": 0.4973958333333144,
          "duration": 0.2838541666666572
        },
        {
          "pitch": 65,
          "velocity": 51,
          "start": 0.2135416666666572,
          "end": 0.5234375,
          "duration": 0.3098958333333428
        },
        {
          "pitch": 55,
          "velocity": 38,
          "start": 0.5104166666666572,
          "end": 0.9270833333333144,
          "duration": 0.4166666666666572
        },
        {
          "pitch": 43,
          "velocity": 45,
          "start": 0.5234375,
          "end": 1.5130208333333144,
          "duration": 0.9895833333333144
        },
        {
          "pitch": 65,
          "velocity": 53,
          "start": 0.8151041666666572,
          "end": 1.1458333333333144,
          "duration": 0.3307291666666572
        },
        {
          "pitch": 60,
          "velocity": 51,
          "start": 0.8177083333333144,
          "end": 1.1119791666666572,
          "duration": 0.2942708333333428
        },
        {
          "pitch": 67,
          "velocity": 50,
          "start": 0.8177083333333144,
          "end": 1.1458333333333144,
          "duration": 0.328125
        },
        {
          "pitch": 55,
          "velocity": 48,
          "start": 1.125,
          "end": 1.5052083333333144,
          "duration": 0.3802083333333144
        },
        {
          "pitch": 65,
          "velocity": 53,
          "start": 1.3932291666666572,
          "end": 1.7369791666666572,
          "duration": 0.34375
        },
        {
          "pitch": 67,
          "velocity": 53,
          "start": 1.3984375,
          "end": 1.734375,
          "duration": 0.3359375
        },
        {
          "pitch": 60,
          "velocity": 51,
          "start": 1.40625,
          "end": 1.6953125,
          "duration": 0.2890625
        },
        {
          "pitch": 43,
          "velocity": 42,
          "start": 1.7135416666666572,
          "end": 2.2630208333333144,
          "duration": 0.5494791666666572
        },
        {
          "pitch": 55,
          "velocity": 35,
          "start": 1.71875,
          "end": 2.265625,
          "duration": 0.546875
        }
      ],
      "metadata": {
        "note_count": 14,
        "pitch_range": 24,
        "avg_velocity": 47,
        "note_density": 7.0,
        "duration": 2.0,
        "lowest_pitch": 43,
        "highest_pitch": 67
      },
      "label": "UNLABELED",
      "label_description": "",
      "is_labeled": false
    },
    {
      "id": "2025-08-03T174139Z_0_117_8d022d36",
      "source_file": "2025-08-03T174139Z",
      "instrument_idx": 0,
      "bar_idx": 117,
      "pitch_hash": "8d022d36",
      "notes": [
        {
          "pitch": 60,
          "velocity": 52,
          "start": 0.03385416666665719,
          "end": 0.3697916666666572,
          "duration": 0.3359375
        },
        {
          "pitch": 65,
          "velocity": 50,
          "start": 0.03385416666665719,
          "end": 0.3932291666666572,
          "duration": 0.359375
        },
        {
          "pitch": 67,
          "velocity": 58,
          "start": 0.03385416666665719,
          "end": 0.4166666666666572,
          "duration": 0.3828125
        },
        {
          "pitch": 43,
          "velocity": 34,
          "start": 0.375,
          "end": 0.890625,
          "duration": 0.515625
        },
        {
          "pitch": 55,
          "velocity": 45,
          "start": 0.390625,
          "end": 0.890625,
          "duration": 0.5
        },
        {
          "pitch": 67,
          "velocity": 47,
          "start": 0.7473958333333144,
          "end": 1.1666666666666572,
          "duration": 0.4192708333333428
        },
        {
          "pitch": 65,
          "velocity": 54,
          "start": 0.75,
          "end": 1.1588541666666572,
          "duration": 0.4088541666666572
        },
        {
          "pitch": 60,
          "velocity": 48,
          "start": 0.7578125,
          "end": 1.1276041666666572,
          "duration": 0.3697916666666572
        },
        {
          "pitch": 43,
          "velocity": 45,
          "start": 1.109375,
          "end": 1.5677083333333144,
          "duration": 0.4583333333333144
        },
        {
          "pitch": 55,
          "velocity": 39,
          "start": 1.1171875,
          "end": 1.5859375,
          "duration": 0.46875
        },
        {
          "pitch": 60,
          "velocity": 56,
          "start": 1.4557291666666572,
          "end": 1.7630208333333144,
          "duration": 0.3072916666666572
        },
        {
          "pitch": 67,
          "velocity": 57,
          "start": 1.4609375,
          "end": 1.8072916666666572,
          "duration": 0.3463541666666572
        },
        {
          "pitch": 65,
          "velocity": 61,
          "start": 1.4661458333333144,
          "end": 1.796875,
          "duration": 0.3307291666666856
        },
        {
          "pitch": 43,
          "velocity": 54,
          "start": 1.8098958333333144,
          "end": 2.2630208333333144,
          "duration": 0.453125
        },
        {
          "pitch": 55,
          "velocity": 44,
          "start": 1.8255208333333144,
          "end": 2.2395833333333144,
          "duration": 0.4140625
        }
      ],
      "metadata": {
        "note_count": 15,
        "pitch_range": 24,
        "avg_velocity": 49,
        "note_density": 7.5,
        "duration": 2.0,
        "lowest_pitch": 43,
        "highest_pitch": 67
      },
      "label": "UNLABELED",
      "label_description": "",
      "is_labeled": false
    },
    {
      "id": "2025-08-03T174139Z_0_118_22a9582e",
      "source_file": "2025-08-03T174139Z",
      "instrument_idx": 0,
      "bar_idx": 118,
      "pitch_hash": "22a9582e",
      "notes": [
        {
          "pitch": 60,
          "velocity": 70,
          "start": 0.1822916666666572,
          "end": 0.3072916666666572,
          "duration": 0.125
        },
        {
          "pitch": 67,
          "velocity": 75,
          "start": 0.1822916666666572,
          "end": 0.3098958333333144,
          "duration": 0.1276041666666572
        },
        {
          "pitch": 43,
          "velocity": 44,
          "start": 0.4817708333333144,
          "end": 0.5520833333333144,
          "duration": 0.0703125
        },
        {
          "pitch": 57,
          "velocity": 66,
          "start": 0.8802083333333144,
          "end": 1.0052083333333144,
          "duration": 0.125
        },
        {
          "pitch": 45,
          "velocity": 54,
          "start": 0.9114583333333144,
          "end": 1.8671875,
          "duration": 0.9557291666666856
        },
        {
          "pitch": 61,
          "velocity": 76,
          "start": 0.9166666666666572,
          "end": 2.0286458333333144,
          "duration": 1.1119791666666572
        },
        {
          "pitch": 33,
          "velocity": 47,
          "start": 0.9427083333333144,
          "end": 2.799479166666657,
          "duration": 1.8567708333333428
        },
        {
          "pitch": 59,
          "velocity": 58,
          "start": 1.8541666666666572,
          "end": 2.026041666666657,
          "duration": 0.171875
        }
      ],
      "metadata": {
        "note_count": 8,
        "pitch_range": 34,
        "avg_velocity": 61,
        "note_density": 4.0,
        "duration": 2.0,
        "lowest_pitch": 33,
        "highest_pitch": 67
      },
      "label": "UNLABELED",
      "label_description": "",
      "is_labeled": false
    },
    {
      "id": "2025-08-03T174139Z_0_119_b86d83d9",
      "source_file": "2025-08-03T174139Z",
      "instrument_idx": 0,
      "bar_idx": 119,
      "pitch_hash": "b86d83d9",
      "notes": [
        {
          "pitch": 45,
          "velocity": 46,
          "start": 0.0703125,
          "end": 0.20052083333331439,
          "duration": 0.13020833333331439
        },
        {
          "pitch": 57,
          "velocity": 45,
          "start": 0.078125,
          "end": 0.14583333333331439,
          "duration": 0.06770833333331439
        },
        {
          "pitch": 57,
          "velocity": 46,
          "start": 0.2734375,
          "end": 0.359375,
          "duration": 0.0859375
        },
        {
          "pitch": 61,
          "velocity": 59,
          "start": 0.3098958333333144,
          "end": 0.390625,
          "duration": 0.08072916666668561
        },
        {
          "pitch": 45,
          "velocity": 53,
          "start": 0.3098958333333144,
          "end": 0.4401041666666572,
          "duration": 0.1302083333333428
        },
        {
          "pitch": 61,
          "velocity": 59,
          "start": 0.7057291666666572,
          "end": 0.8046875,
          "duration": 0.09895833333334281
        },
        {
          "pitch": 45,
          "velocity": 50,
          "start": 0.7265625,
          "end": 0.8020833333333144,
          "duration": 0.07552083333331439
        },
        {
          "pitch": 57,
          "velocity": 56,
          "start": 0.921875,
          "end": 1.0572916666666572,
          "duration": 0.1354166666666572
        },
        {
          "pitch": 61,
          "velocity": 49,
          "start": 0.921875,
          "end": 1.1067708333333144,
          "duration": 0.18489583333331439
        },
        {
          "pitch": 64,
          "velocity": 66,
          "start": 0.921875,
          "end": 1.2083333333333144,
          "duration": 0.2864583333333144
        },
        {
          "pitch": 33,
          "velocity": 21,
          "start": 1.1328125,
          "end": 2.283854166666657,
          "duration": 1.1510416666666572
        },
        {
          "pitch": 45,
          "velocity": 46,
          "start": 1.1588541666666572,
          "end": 1.3411458333333144,
          "duration": 0.1822916666666572
        },
        {
          "pitch": 61,
          "velocity": 54,
          "start": 1.375,
          "end": 1.546875,
          "duration": 0.171875
        },
        {
          "pitch": 57,
          "velocity": 50,
          "start": 1.3932291666666572,
          "end": 1.5442708333333144,
          "duration": 0.1510416666666572
        },
        {
          "pitch": 64,
          "velocity": 26,
          "start": 1.4088541666666572,
          "end": 1.5364583333333144,
          "duration": 0.1276041666666572
        },
        {
          "pitch": 45,
          "velocity": 48,
          "start": 1.5911458333333144,
          "end": 1.7395833333333144,
          "duration": 0.1484375
        },
        {
          "pitch": 61,
          "velocity": 44,
          "start": 1.7942708333333144,
          "end": 2.0078125,
          "duration": 0.21354166666668561
        },
        {
          "pitch": 57,
          "velocity": 50,
          "start": 1.8177083333333144,
          "end": 1.9791666666666572,
          "duration": 0.1614583333333428
        },
        {
          "pitch": 64,
          "velocity": 50,
          "start": 1.8463541666666572,
          "end": 2.0130208333333144,
          "duration": 0.1666666666666572
        }
      ],
      "metadata": {
        "note_count": 19,
        "pitch_range": 31,
        "avg_velocity": 48,
        "note_density": 9.5,
        "duration": 2.0,
        "lowest_pitch": 33,
        "highest_pitch": 64
      },
      "label": "UNLABELED",
      "label_description": "",
      "is_labeled": false
    },
    {
      "id": "2025-08-03T174139Z_0_120_cf22dcc4",
      "source_file": "2025-08-03T174139Z",
      "instrument_idx": 0,
      "bar_idx": 120,
      "pitch_hash": "cf22dcc4",
      "notes": [
        {
          "pitch": 45,
          "velocity": 45,
          "start": 0.020833333333314386,
          "end": 0.2057291666666572,
          "duration": 0.1848958333333428
        },
        {
          "pitch": 61,
          "velocity": 41,
          "start": 0.24739583333331439,
          "end": 0.421875,
          "duration": 0.17447916666668561
        },
        {
          "pitch": 57,
          "velocity": 53,
          "start": 0.2578125,
          "end": 0.4713541666666572,
          "duration": 0.2135416666666572
        },
        {
          "pitch": 33,
          "velocity": 18,
          "start": 0.4505208333333144,
          "end": 0.640625,
          "duration": 0.19010416666668561
        },
        {
          "pitch": 45,
          "velocity": 45,
          "start": 0.4739583333333144,
          "end": 0.6067708333333144,
          "duration": 0.1328125
        },
        {
          "pitch": 57,
          "velocity": 56,
          "start": 0.7161458333333144,
          "end": 0.8072916666666572,
          "duration": 0.09114583333334281
        },
        {
          "pitch": 57,
          "velocity": 49,
          "start": 0.8567708333333144,
          "end": 0.9739583333333144,
          "duration": 0.1171875
        },
        {
          "pitch": 45,
          "velocity": 57,
          "start": 0.8958333333333144,
          "end": 1.3411458333333144,
          "duration": 0.4453125
        },
        {
          "pitch": 33,
          "velocity": 57,
          "start": 0.9036458333333144,
          "end": 1.3046875,
          "duration": 0.4010416666666856
        },
        {
          "pitch": 61,
          "velocity": 69,
          "start": 0.9088541666666572,
          "end": 1.3151041666666572,
          "duration": 0.40625
        },
        {
          "pitch": 59,
          "velocity": 63,
          "start": 1.1171875,
          "end": 1.2994791666666572,
          "duration": 0.1822916666666572
        },
        {
          "pitch": 57,
          "velocity": 57,
          "start": 1.3385416666666572,
          "end": 1.5703125,
          "duration": 0.2317708333333428
        },
        {
          "pitch": 33,
          "velocity": 31,
          "start": 1.5182291666666572,
          "end": 1.6979166666666572,
          "duration": 0.1796875
        },
        {
          "pitch": 61,
          "velocity": 63,
          "start": 1.5260416666666572,
          "end": 1.59375,
          "duration": 0.06770833333334281
        },
        {
          "pitch": 45,
          "velocity": 56,
          "start": 1.5364583333333144,
          "end": 1.65625,
          "duration": 0.11979166666668561
        },
        {
          "pitch": 66,
          "velocity": 68,
          "start": 1.9244791666666572,
          "end": 2.046875,
          "duration": 0.12239583333334281
        },
        {
          "pitch": 57,
          "velocity": 57,
          "start": 1.9427083333333144,
          "end": 2.018229166666657,
          "duration": 0.07552083333334281
        },
        {
          "pitch": 45,
          "velocity": 51,
          "start": 1.9453125,
          "end": 2.0625,
          "duration": 0.1171875
        },
        {
          "pitch": 33,
          "velocity": 51,
          "start": 1.9557291666666572,
          "end": 2.0364583333333144,
          "duration": 0.08072916666665719
        }
      ],
      "metadata": {
        "note_count": 19,
        "pitch_range": 33,
        "avg_velocity": 51,
        "note_density": 9.5,
        "duration": 2.0,
        "lowest_pitch": 33,
        "highest_pitch": 66
      },
      "label": "UNLABELED",
      "label_description": "",
      "is_labeled": false
    },
    {
      "id": "2025-08-03T174139Z_0_121_5a177303",
      "source_file": "2025-08-03T174139Z",
      "instrument_idx": 0,
      "bar_idx": 121,
      "pitch_hash": "5a177303",
      "notes": [
        {
          "pitch": 45,
          "velocity": 52,
          "start": 0.328125,
          "end": 0.8385416666666572,
          "duration": 0.5104166666666572
        },
        {
          "pitch": 64,
          "velocity": 64,
          "start": 0.3359375,
          "end": 0.8776041666666572,
          "duration": 0.5416666666666572
        },
        {
          "pitch": 57,
          "velocity": 56,
          "start": 0.3385416666666572,
          "end": 0.5078125,
          "duration": 0.1692708333333428
        },
        {
          "pitch": 33,
          "velocity": 50,
          "start": 0.3385416666666572,
          "end": 1.8671875,
          "duration": 1.5286458333333428
        },
        {
          "pitch": 57,
          "velocity": 54,
          "start": 0.734375,
          "end": 0.9322916666666572,
          "duration": 0.1979166666666572
        },
        {
          "pitch": 45,
          "velocity": 48,
          "start": 0.9765625,
          "end": 1.1796875,
          "duration": 0.203125
        },
        {
          "pitch": 57,
          "velocity": 55,
          "start": 1.1848958333333144,
          "end": 1.3697916666666572,
          "duration": 0.1848958333333428
        },
        {
          "pitch": 45,
          "velocity": 44,
          "start": 1.4166666666666572,
          "end": 1.5520833333333144,
          "duration": 0.1354166666666572
        },
        {
          "pitch": 57,
          "velocity": 54,
          "start": 1.6302083333333144,
          "end": 1.7760416666666572,
          "duration": 0.1458333333333428
        },
        {
          "pitch": 45,
          "velocity": 44,
          "start": 1.859375,
          "end": 1.9635416666666572,
          "duration": 0.10416666666665719
        }
      ],
      "metadata": {
        "note_count": 10,
        "pitch_range": 31,
        "avg_velocity": 52,
        "note_density": 5.0,
        "duration": 2.0,
        "lowest_pitch": 33,
        "highest_pitch": 64
      },
      "label": "UNLABELED",
      "label_description": "",
      "is_labeled": false
    },
    {
      "id": "2025-08-03T174139Z_0_122_e0605c8c",
      "source_file": "2025-08-03T174139Z",
      "instrument_idx": 0,
      "bar_idx": 122,
      "pitch_hash": "e0605c8c",
      "notes": [
        {
          "pitch": 57,
          "velocity": 53,
          "start": 0.03385416666665719,
          "end": 0.2135416666666572,
          "duration": 0.1796875
        },
        {
          "pitch": 50,
          "velocity": 57,
          "start": 0.24739583333331439,
          "end": 0.8489583333333144,
          "duration": 0.6015625
        },
        {
          "pitch": 66,
          "velocity": 62,
          "start": 0.2552083333333144,
          "end": 0.4088541666666572,
          "duration": 0.1536458333333428
        },
        {
          "pitch": 69,
          "velocity": 65,
          "start": 0.4609375,
          "end": 0.6119791666666572,
          "duration": 0.1510416666666572
        },
        {
          "pitch": 57,
          "velocity": 48,
          "start": 0.6796875,
          "end": 0.9192708333333144,
          "duration": 0.23958333333331439
        },
        {
          "pitch": 52,
          "velocity": 53,
          "start": 0.8619791666666572,
          "end": 1.3177083333333144,
          "duration": 0.4557291666666572
        },
        {
          "pitch": 64,
          "velocity": 66,
          "start": 0.8854166666666572,
          "end": 1.4635416666666572,
          "duration": 0.578125
        },
        {
          "pitch": 45,
          "velocity": 49,
          "start": 0.8854166666666572,
          "end": 1.8880208333333144,
          "duration": 1.0026041666666572
        },
        {
          "pitch": 57,
          "velocity": 64,
          "start": 1.2760416666666572,
          "end": 1.4895833333333144,
          "duration": 0.2135416666666572
        },
        {
          "pitch": 52,
          "velocity": 53,
          "start": 1.5104166666666572,
          "end": 1.8776041666666572,
          "duration": 0.3671875
        },
        {
          "pitch": 57,
          "velocity": 62,
          "start": 1.71875,
          "end": 1.8984375,
          "duration": 0.1796875
        },
        {
          "pitch": 50,
          "velocity": 66,
          "start": 1.9088541666666572,
          "end": 2.549479166666657,
          "duration": 0.640625
        },
        {
          "pitch": 66,
          "velocity": 70,
          "start": 1.9192708333333144,
          "end": 2.1067708333333144,
          "duration": 0.1875
        }
      ],
      "metadata": {
        "note_count": 13,
        "pitch_range": 24,
        "avg_velocity": 59,
        "note_density": 6.5,
        "duration": 2.0,
        "lowest_pitch": 45,
        "highest_pitch": 69
      },
      "label": "UNLABELED",
      "label_description": "",
      "is_labeled": false
    },
    {
      "id": "2025-08-03T174139Z_0_123_ebabf271",
      "source_file": "2025-08-03T174139Z",
      "instrument_idx": 0,
      "bar_idx": 123,
      "pitch_hash": "ebabf271",
      "notes": [
        {
          "pitch": 69,
          "velocity": 66,
          "start": 0.140625,
          "end": 0.3072916666666572,
          "duration": 0.1666666666666572
        },
        {
          "pitch": 57,
          "velocity": 56,
          "start": 0.3723958333333144,
          "end": 0.53125,
          "duration": 0.15885416666668561
        },
        {
          "pitch": 52,
          "velocity": 56,
          "start": 0.5598958333333144,
          "end": 1.0260416666666572,
          "duration": 0.4661458333333428
        },
        {
          "pitch": 45,
          "velocity": 52,
          "start": 0.578125,
          "end": 1.0729166666666572,
          "duration": 0.4947916666666572
        },
        {
          "pitch": 64,
          "velocity": 66,
          "start": 0.578125,
          "end": 1.1692708333333144,
          "duration": 0.5911458333333144
        },
        {
          "pitch": 57,
          "velocity": 71,
          "start": 0.9895833333333144,
          "end": 1.1770833333333144,
          "duration": 0.1875
        },
        {
          "pitch": 52,
          "velocity": 56,
          "start": 1.2057291666666572,
          "end": 1.5416666666666572,
          "duration": 0.3359375
        },
        {
          "pitch": 45,
          "velocity": 47,
          "start": 1.2213541666666572,
          "end": 1.5703125,
          "duration": 0.3489583333333428
        },
        {
          "pitch": 57,
          "velocity": 63,
          "start": 1.4114583333333144,
          "end": 1.5885416666666572,
          "duration": 0.1770833333333428
        },
        {
          "pitch": 50,
          "velocity": 63,
          "start": 1.6041666666666572,
          "end": 2.221354166666657,
          "duration": 0.6171875
        },
        {
          "pitch": 66,
          "velocity": 64,
          "start": 1.6328125,
          "end": 1.78125,
          "duration": 0.1484375
        },
        {
          "pitch": 69,
          "velocity": 64,
          "start": 1.8098958333333144,
          "end": 1.96875,
          "duration": 0.15885416666668561
        }
      ],
      "metadata": {
        "note_count": 12,
        "pitch_range": 24,
        "avg_velocity": 60,
        "note_density": 6.0,
        "duration": 2.0,
        "lowest_pitch": 45,
        "highest_pitch": 69
      },
      "label": "UNLABELED",
      "label_description": "",
      "is_labeled": false
    }
  ],
  "categories": {
    "low_pitch": [
      "2025-08-03T174139Z_0_0_667f3e97",
      "2025-08-03T174139Z_0_1_cab1b343",
      "2025-08-03T174139Z_0_24_8c3b95e9",
      "2025-08-03T174139Z_0_25_7315a47c",
      "2025-08-03T174139Z_0_28_b96ee2e2",
      "2025-08-03T174139Z_0_29_b83b3333",
      "2025-08-03T174139Z_0_30_3d6f8af1",
      "2025-08-03T174139Z_0_31_49ac8e67",
      "2025-08-03T174139Z_0_32_ea868063",
      "2025-08-03T174139Z_0_33_8da36edf",
      "2025-08-03T174139Z_0_34_1be696e6",
      "2025-08-03T174139Z_0_35_44459390",
      "2025-08-03T174139Z_0_36_e1b48804",
      "2025-08-03T174139Z_0_37_4d65776b",
      "2025-08-03T174139Z_0_38_962ba474",
      "2025-08-03T174139Z_0_39_aab0f12f",
      "2025-08-03T174139Z_0_40_bc5dd3ac",
      "2025-08-03T174139Z_0_41_439952e1",
      "2025-08-03T174139Z_0_42_40dfe487",
      "2025-08-03T174139Z_0_43_9fe72f3d",
      "2025-08-03T174139Z_0_44_fa309bc2",
      "2025-08-03T174139Z_0_45_fee47ff6",
      "2025-08-03T174139Z_0_46_6bde78c0",
      "2025-08-03T174139Z_0_47_8a360a84",
      "2025-08-03T174139Z_0_48_f22b5ed4",
      "2025-08-03T174139Z_0_49_c7b00e10",
      "2025-08-03T174139Z_0_50_ad9ebb98",
      "2025-08-03T174139Z_0_51_c4249b12",
      "2025-08-03T174139Z_0_52_e542698a",
      "2025-08-03T174139Z_0_53_46a8dd04",
      "2025-08-03T174139Z_0_54_992b9c0a",
      "2025-08-03T174139Z_0_55_aa913f51",
      "2025-08-03T174139Z_0_56_fab34121",
      "2025-08-03T174139Z_0_57_8108cf68",
      "2025-08-03T174139Z_0_58_b8273a9a",
      "2025-08-03T174139Z_0_59_206ea915",
      "2025-08-03T174139Z_0_60_996e6caf",
      "2025-08-03T174139Z_0_61_3bd1ced1",
      "2025-08-03T174139Z_0_62_5cba2b7f",
      "2025-08-03T174139Z_0_63_eaab4d21",
      "2025-08-03T174139Z_0_64_5dfc5158",
      "2025-08-03T174139Z_0_65_f239249a",
      "2025-08-03T174139Z_0_66_a348e6fc",
      "2025-08-03T174139Z_0_67_bd525a3b",
      "2025-08-03T174139Z_0_68_704cf03a",
      "2025-08-03T174139Z_0_69_3479cd8c",
      "2025-08-03T174139Z_0_70_860e0a22",
      "2025-08-03T174139Z_0_71_5bce982b",
      "2025-08-03T174139Z_0_72_4e067ac1",
      "2025-08-03T174139Z_0_73_70801ad7",
      "2025-08-03T174139Z_0_74_7c0f93c0",
      "2025-08-03T174139Z_0_75_d98ddb15",
      "2025-08-03T174139Z_0_76_6d620b0d",
      "2025-08-03T174139Z_0_77_2ce1a0c8",
      "2025-08-03T174139Z_0_78_48fd7140",
      "2025-08-03T174139Z_0_79_c00aa7af",
      "2025-08-03T174139Z_0_80_b8356758",
      "2025-08-03T174139Z_0_81_dc9c8f81",
      "2025-08-03T174139Z_0_82_341a1b0f",
      "2025-08-03T174139Z_0_83_c6f79970",
      "2025-08-03T174139Z_0_84_400ae1e9",
      "2025-08-03T174139Z_0_85_c6bee299",
      "2025-08-03T174139Z_0_86_beaf7f52",
      "2025-08-03T174139Z_0_87_269d6b01",
      "2025-08-03T174139Z_0_88_95fe59ca",
      "2025-08-03T174139Z_0_89_019bb7df",
      "2025-08-03T174139Z_0_90_ebcf6b6d",
      "2025-08-03T174139Z_0_91_2d34c1ae",
      "2025-08-03T174139Z_0_92_6e4ba6dc",
      "2025-08-03T174139Z_0_93_dcccf1d7",
      "2025-08-03T174139Z_0_94_2de1aa1c",
      "2025-08-03T174139Z_0_95_caf08dde",
      "2025-08-03T174139Z_0_96_923179e6",
      "2025-08-03T174139Z_0_97_9aaebe5f",
      "2025-08-03T174139Z_0_98_323f138d",
      "2025-08-03T174139Z_0_99_3a062c72",
      "2025-08-03T174139Z_0_100_6e275549",
      "2025-08-03T174139Z_0_101_5196db6c",
      "2025-08-03T174139Z_0_102_b4a9861f",
      "2025-08-03T174139Z_0_103_ec7e9c06",
      "2025-08-03T174139Z_0_104_7087bbf8",
      "2025-08-03T174139Z_0_105_4b1a970a",
      "2025-08-03T174139Z_0_106_c4e6d132",
      "2025-08-03T174139Z_0_107_3d18b186",
      "2025-08-03T174139Z_0_108_623db64d",
      "2025-08-03T174139Z_0_109_4b0a559a",
      "2025-08-03T174139Z_0_110_59086833",
      "2025-08-03T174139Z_0_111_c47d6acb",
      "2025-08-03T174139Z_0_112_e27c5388",
      "2025-08-03T174139Z_0_113_007abddb",
      "2025-08-03T174139Z_0_114_93edbd24",
      "2025-08-03T174139Z_0_115_d759d819",
      "2025-08-03T174139Z_0_116_b21be59a",
      "2025-08-03T174139Z_0_117_8d022d36",
      "2025-08-03T174139Z_0_118_22a9582e",
      "2025-08-03T174139Z_0_119_b86d83d9",
      "2025-08-03T174139Z_0_120_cf22dcc4",
      "2025-08-03T174139Z_0_121_5a177303",
      "2025-08-03T174139Z_0_122_e0605c8c",
      "2025-08-03T174139Z_0_123_ebabf271"
    ],
    "high_pitch": [],
    "dense": [
      "2025-08-03T174139Z_0_0_667f3e97",
      "2025-08-03T174139Z_0_25_7315a47c",
      "2025-08-03T174139Z_0_29_b83b3333",
      "2025-08-03T174139Z_0_30_3d6f8af1",
      "2025-08-03T174139Z_0_31_49ac8e67",
      "2025-08-03T174139Z_0_32_ea868063",
      "2025-08-03T174139Z_0_33_8da36edf",
      "2025-08-03T174139Z_0_34_1be696e6",
      "2025-08-03T174139Z_0_35_44459390",
      "2025-08-03T174139Z_0_36_e1b48804",
      "2025-08-03T174139Z_0_37_4d65776b",
      "2025-08-03T174139Z_0_38_962ba474",
      "2025-08-03T174139Z_0_39_aab0f12f",
      "2025-08-03T174139Z_0_40_bc5dd3ac",
      "2025-08-03T174139Z_0_41_439952e1",
      "2025-08-03T174139Z_0_42_40dfe487",
      "2025-08-03T174139Z_0_43_9fe72f3d",
      "2025-08-03T174139Z_0_44_fa309bc2",
      "2025-08-03T174139Z_0_45_fee47ff6",
      "2025-08-03T174139Z_0_46_6bde78c0",
      "2025-08-03T174139Z_0_47_8a360a84",
      "2025-08-03T174139Z_0_48_f22b5ed4",
      "2025-08-03T174139Z_0_49_c7b00e10",
      "2025-08-03T174139Z_0_50_ad9ebb98",
      "2025-08-03T174139Z_0_51_c4249b12",
      "2025-08-03T174139Z_0_52_e542698a",
      "2025-08-03T174139Z_0_53_46a8dd04",
      "2025-08-03T174139Z_0_54_992b9c0a",
      "2025-08-03T174139Z_0_55_aa913f51",
      "2025-08-03T174139Z_0_56_fab34121",
      "2025-08-03T174139Z_0_57_8108cf68",
      "2025-08-03T174139Z_0_58_b8273a9a",
      "2025-08-03T174139Z_0_59_206ea915",
      "2025-08-03T174139Z_0_60_996e6caf",
      "2025-08-03T174139Z_0_61_3bd1ced1",
      "2025-08-03T174139Z_0_62_5cba2b7f",
      "2025-08-03T174139Z_0_63_eaab4d21",
      "2025-08-03T174139Z_0_64_5dfc5158",
      "2025-08-03T174139Z_0_65_f239249a",
      "2025-08-03T174139Z_0_66_a348e6fc",
      "2025-08-03T174139Z_0_67_bd525a3b",
      "2025-08-03T174139Z_0_68_704cf03a",
      "2025-08-03T174139Z_0_69_3479cd8c",
      "2025-08-03T174139Z_0_70_860e0a22",
      "2025-08-03T174139Z_0_71_5bce982b",
      "2025-08-03T174139Z_0_72_4e067ac1",
      "2025-08-03T174139Z_0_73_70801ad7",
      "2025-08-03T174139Z_0_74_7c0f93c0",
      "2025-08-03T174139Z_0_75_d98ddb15",
      "2025-08-03T174139Z_0_76_6d620b0d",
      "2025-08-03T174139Z_0_77_2ce1a0c8",
      "2025-08-03T174139Z_0_78_48fd7140",
      "2025-08-03T174139Z_0_79_c00aa7af",
      "2025-08-03T174139Z_0_80_b8356758",
      "2025-08-03T174139Z_0_81_dc9c8f81",
      "2025-08-03T174139Z_0_82_341a1b0f",
      "2025-08-03T174139Z_0_83_c6f79970",
      "2025-08-03T174139Z_0_84_400ae1e9",
      "2025-08-03T174139Z_0_85_c6bee299",
      "2025-08-03T174139Z_0_86_beaf7f52",
      "2025-08-03T174139Z_0_87_269d6b01",
      "2025-08-03T174139Z_0_88_95fe59ca",
      "2025-08-03T174139Z_0_89_019bb7df",
      "2025-08-03T174139Z_0_90_ebcf6b6d",
      "2025-08-03T174139Z_0_91_2d34c1ae",
      "2025-08-03T174139Z_0_92_6e4ba6dc",
      "2025-08-03T174139Z_0_93_dcccf1d7",
      "2025-08-03T174139Z_0_94_2de1aa1c",
      "2025-08-03T174139Z_0_95_caf08dde",
      "2025-08-03T174139Z_0_96_923179e6",
      "2025-08-03T174139Z_0_97_9aaebe5f",
      "2025-08-03T174139Z_0_98_323f138d",
      "2025-08-03T174139Z_0_99_3a062c72",
      "2025-08-03T174139Z_0_100_6e275549",
      "2025-08-03T174139Z_0_101_5196db6c",
      "2025-08-03T174139Z_0_102_b4a9861f",
      "2025-08-03T174139Z_0_103_ec7e9c06",
      "2025-08-03T174139Z_0_104_7087bbf8",
      "2025-08-03T174139Z_0_105_4b1a970a",
      "2025-08-03T174139Z_0_106_c4e6d132",
      "2025-08-03T174139Z_0_107_3d18b186",
      "2025-08-03T174139Z_0_108_623db64d",
      "2025-08-03T174139Z_0_109_4b0a559a",
      "2025-08-03T174139Z_0_110_59086833",
      "2025-08-03T174139Z_0_111_c47d6acb",
      "2025-08-03T174139Z_0_112_e27c5388",
      "2025-08-03T174139Z_0_113_007abddb",
      "2025-08-03T174139Z_0_114_93edbd24",
      "2025-08-03T174139Z_0_115_d759d819",
      "2025-08-03T174139Z_0_116_b21be59a",
      "2025-08-03T174139Z_0_117_8d022d36",
      "2025-08-03T174139Z_0_118_22a9582e",
      "2025-08-03T174139Z_0_119_b86d83d9",
      "2025-08-03T174139Z_0_120_cf22dcc4",
      "2025-08-03T174139Z_0_121_5a177303",
      "2025-08-03T174139Z_0_122_e0605c8c",
      "2025-08-03T174139Z_0_123_ebabf271"
    ],
    "sparse": [],
    "wide_range": [
      "2025-08-03T174139Z_0_28_b96ee2e2",
      "2025-08-03T174139Z_0_29_b83b3333",
      "2025-08-03T174139Z_0_30_3d6f8af1",
      "2025-08-03T174139Z_0_31_49ac8e67",
      "2025-08-03T174139Z_0_32_ea868063",
      "2025-08-03T174139Z_0_33_8da36edf",
      "2025-08-03T174139Z_0_34_1be696e6",
      "2025-08-03T174139Z_0_35_44459390",
      "2025-08-03T174139Z_0_36_e1b48804",
      "2025-08-03T174139Z_0_37_4d65776b",
      "2025-08-03T174139Z_0_38_962ba474",
      "2025-08-03T174139Z_0_39_aab0f12f",
      "2025-08-03T174139Z_0_40_bc5dd3ac",
      "2025-08-03T174139Z_0_41_439952e1",
      "2025-08-03T174139Z_0_42_40dfe487",
      "2025-08-03T174139Z_0_43_9fe72f3d",
      "2025-08-03T174139Z_0_44_fa309bc2",
      "2025-08-03T174139Z_0_45_fee47ff6",
      "2025-08-03T174139Z_0_46_6bde78c0",
      "2025-08-03T174139Z_0_47_8a360a84",
      "2025-08-03T174139Z_0_48_f22b5ed4",
      "2025-08-03T174139Z_0_49_c7b00e10",
      "2025-08-03T174139Z_0_50_ad9ebb98",
      "2025-08-03T174139Z_0_51_c4249b12",
      "2025-08-03T174139Z_0_52_e542698a",
      "2025-08-03T174139Z_0_53_46a8dd04",
      "2025-08-03T174139Z_0_54_992b9c0a",
      "2025-08-03T174139Z_0_55_aa913f51",
      "2025-08-03T174139Z_0_56_fab34121",
      "2025-08-03T174139Z_0_57_8108cf68",
      "2025-08-03T174139Z_0_58_b8273a9a",
      "2025-08-03T174139Z_0_59_206ea915",
      "2025-08-03T174139Z_0_60_996e6caf",
      "2025-08-03T174139Z_0_61_3bd1ced1",
      "2025-08-03T174139Z_0_62_5cba2b7f",
      "2025-08-03T174139Z_0_63_eaab4d21",
      "2025-08-03T174139Z_0_64_5dfc5158",
      "2025-08-03T174139Z_0_65_f239249a",
      "2025-08-03T174139Z_0_66_a348e6fc",
      "2025-08-03T174139Z_0_67_bd525a3b",
      "2025-08-03T174139Z_0_68_704cf03a",
      "2025-08-03T174139Z_0_69_3479cd8c",
      "2025-08-03T174139Z_0_70_860e0a22",
      "2025-08-03T174139Z_0_71_5bce982b",
      "2025-08-03T174139Z_0_75_d98ddb15",
      "2025-08-03T174139Z_0_78_48fd7140",
      "2025-08-03T174139Z_0_79_c00aa7af",
      "2025-08-03T174139Z_0_80_b8356758",
      "2025-08-03T174139Z_0_81_dc9c8f81",
      "2025-08-03T174139Z_0_82_341a1b0f",
      "2025-08-03T174139Z_0_83_c6f79970",
      "2025-08-03T174139Z_0_84_400ae1e9",
      "2025-08-03T174139Z_0_85_c6bee299",
      "2025-08-03T174139Z_0_86_beaf7f52",
      "2025-08-03T174139Z_0_87_269d6b01",
      "2025-08-03T174139Z_0_88_95fe59ca",
      "2025-08-03T174139Z_0_89_019bb7df",
      "2025-08-03T174139Z_0_90_ebcf6b6d",
      "2025-08-03T174139Z_0_91_2d34c1ae",
      "2025-08-03T174139Z_0_92_6e4ba6dc",
      "2025-08-03T174139Z_0_93_dcccf1d7",
      "2025-08-03T174139Z_0_94_2de1aa1c",
      "2025-08-03T174139Z_0_95_caf08dde",
      "2025-08-03T174139Z_0_96_923179e6",
      "2025-08-03T174139Z_0_97_9aaebe5f",
      "2025-08-03T174139Z_0_98_323f138d",
      "2025-08-03T174139Z_0_99_3a062c72",
      "2025-08-03T174139Z_0_100_6e275549",
      "2025-08-03T174139Z_0_101_5196db6c",
      "2025-08-03T174139Z_0_102_b4a9861f",
      "2025-08-03T174139Z_0_103_ec7e9c06",
      "2025-08-03T174139Z_0_104_7087bbf8",
      "2025-08-03T174139Z_0_105_4b1a970a",
      "2025-08-03T174139Z_0_106_c4e6d132",
      "2025-08-03T174139Z_0_107_3d18b186",
      "2025-08-03T174139Z_0_108_623db64d",
      "2025-08-03T174139Z_0_109_4b0a559a",
      "2025-08-03T174139Z_0_110_59086833",
      "2025-08-03T174139Z_0_111_c47d6acb",
      "2025-08-03T174139Z_0_112_e27c5388",
      "2025-08-03T174139Z_0_113_007abddb",
      "2025-08-03T174139Z_0_114_93edbd24",
      "2025-08-03T174139Z_0_115_d759d819",
      "2025-08-03T174139Z_0_116_b21be59a",
      "2025-08-03T174139Z_0_117_8d022d36",
      "2025-08-03T174139Z_0_118_22a9582e",
      "2025-08-03T174139Z_0_119_b86d83d9",
      "2025-08-03T174139Z_0_120_cf22dcc4",
      "2025-08-03T174139Z_0_121_5a177303",
      "2025-08-03T174139Z_0_122_e0605c8c",
      "2025-08-03T174139Z_0_123_ebabf271"
    ],
    "narrow_range": [
      "2025-08-03T174139Z_0_0_667f3e97",
      "2025-08-03T174139Z_0_1_cab1b343",
      "2025-08-03T174139Z_0_24_8c3b95e9",
      "2025-08-03T174139Z_0_25_7315a47c"
    ],
    "soft": [
      "2025-08-03T174139Z_0_24_8c3b95e9",
      "2025-08-03T174139Z_0_28_b96ee2e2",
      "2025-08-03T174139Z_0_30_3d6f8af1",
      "2025-08-03T174139Z_0_52_e542698a",
      "2025-08-03T174139Z_0_69_3479cd8c",
      "2025-08-03T174139Z_0_71_5bce982b",
      "2025-08-03T174139Z_0_116_b21be59a",
      "2025-08-03T174139Z_0_117_8d022d36",
      "2025-08-03T174139Z_0_119_b86d83d9"
    ],
    "loud": []
  },
  "training_metadata": {
    "labeled_bars": 1,
    "total_bars": 1,
    "training_ready": true,
    "last_labeled": "/Users/James/Documents/tg",
    "label_distribution": {
      "MOMENTUM_POS": 1,
      "UNLABELED": 99
    }
  }
}