<svg width="283" height="64" viewBox="0 0 283 64" fill="none" xmlns="http://www.w3.org/2000/svg">
<path d="M141.04 16c-11.04 0-19 8.96-19 19 0 10.08 7.96 19 19 19 11.04 0 19-8.92 19-19 0-10.04-7.96-19-19-19zm0 31.28c-6.84 0-12.28-5.44-12.28-12.28 0-6.8 5.44-12.28 12.28-12.28 6.8 0 12.28 5.48 12.28 12.28 0 6.84-5.48 12.28-12.28 12.28z" fill="#000"/>
<path d="M26.04 35.44h18.36c.72 0 1.2-.48 1.2-1.2v-4.48c0-.72-.48-1.2-1.2-1.2H26.04c-.72 0-1.2.48-1.2 1.2v4.48c0 .72.48 1.2 1.2 1.2z" fill="#000"/>
<path d="M234.08 0L194 64h80L234.08 0z" fill="#000"/>
</svg>

